<?xml version="1.0" encoding="UTF-8"?>
<svg version="1.1" xmlns="http://www.w3.org/2000/svg" width="221" height="359">
<path d="M0 0 C2.3309262 33.02145449 -16.7182358 63.67454292 -36.125 88.625 C-55.33217899 113.39457803 -68.7939308 138.72880981 -64.74609375 171.02587891 C-63.03314991 183.72518617 -59.27744732 196.63381386 -48.69921875 204.76953125 C-31.81333813 216.37704687 -9.66284221 217.32195345 10.0625 213.9375 C25.30250115 210.27989972 36.32742003 202.42225737 44.875 189.375 C45.93833294 187.59610654 46.98201478 185.80522713 48 184 C48.41121094 183.27683594 48.82242188 182.55367187 49.24609375 181.80859375 C55.24207929 170.58533876 55.62250237 156.95457002 53.3828125 144.59375 C52.45215334 141.59587448 51.32127372 138.84783008 50 136 C49.73155273 135.39236816 49.46310547 134.78473633 49.18652344 134.15869141 C44.66502625 123.99158174 38.97595023 115.61200371 32 107 C30.66601627 105.26632077 29.35138806 103.51746253 28.0625 101.75 C27.53785156 101.04359375 27.01320313 100.3371875 26.47265625 99.609375 C22.70030526 92.92520932 21.49066943 86.41640043 21.625 78.8125 C21.63587646 77.58672241 21.63587646 77.58672241 21.64697266 76.33618164 C22.06013073 57.93986927 22.06013073 57.93986927 27 53 C27.37125 54.093125 27.7425 55.18625 28.125 56.3125 C31.27421223 64.5863394 35.94952107 71.95175524 40.66015625 79.40356445 C58.78111586 108.16130033 73.08453024 143.1725642 66.75 177.75 C62.22548969 197.63293981 53.1824875 218.80403859 36 231 C16.96278434 242.57052329 -6.42573685 246.82141557 -28.13671875 242.03125 C-47.76716107 236.79117237 -63.76758527 226.19239359 -74.1796875 208.41015625 C-85.84542919 186.55566592 -86.06749531 162.3750325 -79.40234375 138.89453125 C-72.57144146 116.43845128 -59.14983607 98.16826257 -45.34375 79.51953125 C-44.22910892 78.01306356 -43.11452168 76.50655603 -42 75 C-41.53078125 74.36755371 -41.0615625 73.73510742 -40.578125 73.08349609 C-31.72007945 61.57818854 -31.72007945 61.57818854 -28 48 C-46.53875771 53.78803715 -61.47038972 58.53220871 -72.25 75.8125 C-78.71060261 88.46451344 -80.55978484 104.00626767 -82 118 C-82.66 118 -83.32 118 -84 118 C-82.15466188 50.24008442 -82.15466188 50.24008442 -62.83203125 30.65625 C-56.00278556 24.25088852 -48.31004025 21.24507252 -39.67871094 18.03491211 C-32.49914362 15.31571354 -25.60041656 12.08305804 -18.6875 8.75 C-17.60782959 8.23034668 -16.52815918 7.71069336 -15.41577148 7.17529297 C-9.75463119 4.43796881 -9.75463119 4.43796881 -4.29223633 1.33300781 C-2 0 -2 0 0 0 Z " fill="#127C7E" transform="translate(111,37)"/>
<path d="M0 0 C0.66 0 1.32 0 2 0 C2.18433594 0.76441406 2.36867187 1.52882812 2.55859375 2.31640625 C5.76223317 14.14851452 11.94695853 23.50922539 18.7434082 33.57592773 C27.12802152 45.99727542 33.97971423 58.50288813 39.875 72.3125 C40.33962646 73.39764893 40.80425293 74.48279785 41.28295898 75.60083008 C47.60409997 90.76115851 49.23743839 104.51605163 49.25 120.8125 C49.25067474 121.59622986 49.25134949 122.37995972 49.25204468 123.18743896 C49.23584471 135.02613171 48.81545368 146.44721811 46 158 C45.75056641 159.06758545 45.75056641 159.06758545 45.49609375 160.15673828 C39.81548741 183.75755369 26.94028834 201.91643505 9 218 C8.34 218 7.68 218 7 218 C8.40617189 213.91400315 10.36753555 211.04788777 13.0625 207.6875 C25.22779113 191.7413696 31.85663841 174.49817216 36 155 C36.176521 154.19916992 36.35304199 153.39833984 36.53491211 152.57324219 C39.09181351 138.42639662 37.20167523 123.59134861 33 110 C32.64591064 108.79875488 32.64591064 108.79875488 32.28466797 107.57324219 C26.62053838 88.50291034 18.63656907 71.00381972 7.19042969 54.72753906 C5.19795949 51.83608724 3.34292135 48.86324453 1.5 45.875 C0.8709375 44.86179688 0.241875 43.84859375 -0.40625 42.8046875 C-3.41474353 37.51032879 -4.35784671 33.32785492 -4.3125 27.25 C-4.31048584 26.51716797 -4.30847168 25.78433594 -4.30639648 25.02929688 C-3.93157526 3.93157526 -3.93157526 3.93157526 0 0 Z " fill="#147A7C" transform="translate(150,55)"/>
<path d="M0 0 C13.97581861 4.09414318 28.23547588 14.30970542 35.81640625 26.765625 C43.09444073 40.50501683 40.16109726 55.45214625 35.86328125 69.79296875 C34.62911418 73.54997575 33.33474402 77.27759072 32 81 C31.77489746 81.62890137 31.54979492 82.25780273 31.31787109 82.90576172 C30.25773642 85.86729923 29.19305992 88.82680672 28.11328125 91.78125 C24.30591555 102.78921258 21.2635727 116.10512599 26.06640625 127.2734375 C27.42169917 129.7798788 29.09182902 131.89443202 31 134 C30.67 134.66 30.34 135.32 30 136 C6.99945141 123.83688569 6.99945141 123.83688569 3 112 C2.69015874 109.23096819 2.53394058 106.75728193 2.5625 104 C2.5325293 103.01966797 2.5325293 103.01966797 2.50195312 102.01953125 C2.51453047 88.61207989 8.59185514 74.77794112 12.79638672 62.17504883 C18.03794963 46.42164446 22.63374352 31.33316767 14.81640625 15.62109375 C11.48644674 10.04600573 7.45631948 6.82894269 1.9765625 3.41015625 C1.32429688 2.94480469 0.67203125 2.47945313 0 2 C0 1.34 0 0.68 0 0 Z " fill="#127B7E" transform="translate(101,5)"/>
<path d="M0 0 C3.63 0 7.26 0 11 0 C14.89393294 8.07630536 17.43530621 16.4335023 20 25 C22.88145544 18.01367787 25.46799778 10.94498472 27.94921875 3.80859375 C29 1 29 1 30 0 C31.98 0 33.96 0 36 0 C38.97 8.58 41.94 17.16 45 26 C47.59114032 17.81857003 47.59114032 17.81857003 50.17553711 9.63500977 C50.4978833 8.62237061 50.82022949 7.60973145 51.15234375 6.56640625 C51.6472229 5.00321655 51.6472229 5.00321655 52.15209961 3.40844727 C53 1 53 1 54 0 C55.85287502 -0.07226502 57.70833878 -0.0838122 59.5625 -0.0625 C60.57441406 -0.05347656 61.58632812 -0.04445313 62.62890625 -0.03515625 C63.41136719 -0.02355469 64.19382812 -0.01195312 65 0 C66.19394604 3.58183813 65.72003863 4.59579596 64.55297852 8.11401367 C64.2125502 9.15486618 63.87212189 10.19571869 63.52137756 11.26811218 C63.14436203 12.39006485 62.7673465 13.51201752 62.37890625 14.66796875 C62.00015854 15.81791824 61.62141083 16.96786774 61.23118591 18.15266418 C60.01663991 21.83376514 58.78972826 25.51061 57.5625 29.1875 C56.73811609 31.67876652 55.91453791 34.17029982 55.09179688 36.66210938 C53.07054579 42.77786876 51.03912056 48.89017702 49 55 C46.69 55 44.38 55 42 55 C39.03 46.42 36.06 37.84 33 29 C28.89225592 38.82030972 28.89225592 38.82030972 25.1875 48.75 C24.76855469 49.94109375 24.34960938 51.1321875 23.91796875 52.359375 C23.46357422 53.66648437 23.46357422 53.66648437 23 55 C21.02 55 19.04 55 17 55 C14.24019598 48.30576672 11.76252798 41.56864295 9.51171875 34.6875 C9.20426224 33.75196289 8.89680573 32.81642578 8.58003235 31.85253906 C7.93887052 29.89690194 7.29949842 27.9406772 6.66186523 25.98388672 C5.6801603 22.97752296 4.68693162 19.97511579 3.69335938 16.97265625 C3.06960665 15.06533486 2.44653462 13.15779069 1.82421875 11.25 C1.52537277 10.35112061 1.22652679 9.45224121 0.91862488 8.52612305 C0.65116959 7.69765869 0.38371429 6.86919434 0.1081543 6.015625 C-0.13070999 5.28633789 -0.36957428 4.55705078 -0.61567688 3.80566406 C-1 2 -1 2 0 0 Z " fill="#13797C" transform="translate(107,295)"/>
<path d="M0 0 C4.20328965 0.6168141 5.12511287 1.96041387 7.63964844 5.21069336 C8.12594727 5.8785083 8.61224609 6.54632324 9.11328125 7.234375 C9.62665039 7.90799072 10.14001953 8.58160645 10.66894531 9.27563477 C12.23068466 11.33250656 13.76631928 13.40711016 15.30078125 15.484375 C16.22474116 16.70840822 17.15041819 17.9311479 18.078125 19.15234375 C20.175576 21.91366085 22.23618383 24.69716848 24.30078125 27.484375 C24.63078125 18.574375 24.96078125 9.664375 25.30078125 0.484375 C28.93078125 0.484375 32.56078125 0.484375 36.30078125 0.484375 C36.30078125 18.634375 36.30078125 36.784375 36.30078125 55.484375 C30.30078125 55.484375 30.30078125 55.484375 28.66088867 54.29785156 C28.24685791 53.74581055 27.83282715 53.19376953 27.40625 52.625 C26.92961914 52.00890869 26.45298828 51.39281738 25.96191406 50.75805664 C25.47561523 50.0902417 24.98931641 49.42242676 24.48828125 48.734375 C23.97491211 48.06075928 23.46154297 47.38714355 22.93261719 46.69311523 C21.37087784 44.63624344 19.83524322 42.56163984 18.30078125 40.484375 C17.37682134 39.26034178 16.45114431 38.0376021 15.5234375 36.81640625 C13.4259865 34.05508915 11.36537867 31.27158152 9.30078125 28.484375 C8.97078125 37.394375 8.64078125 46.304375 8.30078125 55.484375 C4.67078125 55.484375 1.04078125 55.484375 -2.69921875 55.484375 C-4.36638559 53.81720816 -3.82666757 51.8113136 -3.82861328 49.52148438 C-3.83176544 48.46368774 -3.8349176 47.40589111 -3.83816528 46.31604004 C-3.83512894 44.58952209 -3.83512894 44.58952209 -3.83203125 42.828125 C-3.83298798 41.65552124 -3.8339447 40.48291748 -3.83493042 39.27478027 C-3.83561245 36.78979438 -3.83375659 34.30480671 -3.82958984 31.81982422 C-3.82424194 28.00093613 -3.82953411 24.18216565 -3.8359375 20.36328125 C-3.83527672 17.95572891 -3.83399557 15.54817663 -3.83203125 13.140625 C-3.83405548 11.98961304 -3.83607971 10.83860107 -3.83816528 9.65270996 C-3.83501312 8.59491333 -3.83186096 7.5371167 -3.82861328 6.44726562 C-3.82781769 5.51096313 -3.82702209 4.57466064 -3.82620239 3.60998535 C-3.63535546 0.41535176 -3.19160404 0.57273358 0 0 Z " fill="#137A7C" transform="translate(22.69921875,294.515625)"/>
<path d="M0 0 C11.55 0 23.1 0 35 0 C35 3.63 35 7.26 35 11 C34 12 34 12 31.86694336 12.11352539 C30.95050049 12.10828857 30.03405762 12.10305176 29.08984375 12.09765625 C28.10048828 12.09443359 27.11113281 12.09121094 26.09179688 12.08789062 C25.05087891 12.07951172 24.00996094 12.07113281 22.9375 12.0625 C21.89271484 12.05798828 20.84792969 12.05347656 19.77148438 12.04882812 C17.1809334 12.03699913 14.59049441 12.02051689 12 12 C12 14.64 12 17.28 12 20 C13.14339844 19.98839844 14.28679687 19.97679687 15.46484375 19.96484375 C16.95572754 19.95546712 18.44661309 19.94636679 19.9375 19.9375 C20.69224609 19.92912109 21.44699219 19.92074219 22.22460938 19.91210938 C24.14994313 19.90347559 26.07535581 19.94775667 28 20 C29 21 29 21 29.09765625 23.28515625 C29.06510417 25.85677083 29.03255208 28.42838542 29 31 C23.39 31 17.78 31 12 31 C12 34.96 12 38.92 12 43 C13.57652344 42.98839844 15.15304688 42.97679687 16.77734375 42.96484375 C18.83072799 42.95546757 20.8841135 42.94636718 22.9375 42.9375 C23.97841797 42.92912109 25.01933594 42.92074219 26.09179688 42.91210938 C27.08115234 42.90888672 28.07050781 42.90566406 29.08984375 42.90234375 C30.00628662 42.89710693 30.92272949 42.89187012 31.86694336 42.88647461 C34 43 34 43 35 44 C35.07226502 45.85287502 35.0838122 47.70833878 35.0625 49.5625 C35.05347656 50.57441406 35.04445312 51.58632813 35.03515625 52.62890625 C35.02355469 53.41136719 35.01195312 54.19382812 35 55 C30.17619198 55.0246519 25.35242033 55.04283693 20.52856445 55.05493164 C18.88630536 55.05997174 17.24405077 55.06680378 15.60180664 55.07543945 C13.24624521 55.08751926 10.89074291 55.09323139 8.53515625 55.09765625 C7.79660904 55.10281754 7.05806183 55.10797882 6.2971344 55.11329651 C4.53101912 55.1134925 2.76502854 55.06194719 1 55 C0 54 0 54 -0.12025452 51.82969666 C-0.11803391 50.87261307 -0.11581329 49.91552948 -0.11352539 48.92944336 C-0.11344986 47.84839828 -0.11337433 46.76735321 -0.11329651 45.65354919 C-0.10813522 44.4775264 -0.10297394 43.3015036 -0.09765625 42.08984375 C-0.0962413 40.89267227 -0.09482635 39.69550079 -0.09336853 38.46205139 C-0.08774979 34.62050934 -0.07519411 30.77902457 -0.0625 26.9375 C-0.05748741 24.34049563 -0.05292409 21.74349035 -0.04882812 19.14648438 C-0.03862313 12.76428284 -0.01905136 6.3822059 0 0 Z " fill="#0E7D80" transform="translate(69,295)"/>
<path d="M0 0 C-0.30921884 1.45903258 -0.62248799 2.91720722 -0.9375 4.375 C-1.19853516 5.59316406 -1.19853516 5.59316406 -1.46484375 6.8359375 C-2 9 -2 9 -3 11 C-3.58007812 10.77183594 -4.16015625 10.54367187 -4.7578125 10.30859375 C-9.57455796 8.53609501 -12.88474517 7.55723582 -18 9 C-18.67154684 11.28341743 -18.67154684 11.28341743 -18 14 C-16.20856559 15.47420123 -14.315644 16.54177228 -12.296875 17.68359375 C-6.87768192 20.78949183 -1.23239021 24.56958444 2 30 C3.46275509 36.04605436 3.14638771 39.44138171 0 45 C-3.92438547 49.64729859 -7.20563791 51.71288514 -13.26953125 52.3359375 C-20.69933332 52.41785373 -25.69463967 52.03543061 -32 48 C-31.52269162 46.5410574 -31.04308958 45.08286504 -30.5625 43.625 C-30.16224609 42.40683594 -30.16224609 42.40683594 -29.75390625 41.1640625 C-29 39 -29 39 -28 37 C-27.236875 37.309375 -26.47375 37.61875 -25.6875 37.9375 C-22.20894223 39.31274377 -19.53562139 40.12353478 -15.8125 40.0625 C-14.554375 40.041875 -13.29625 40.02125 -12 40 C-11.04979584 37.760165 -11.04979584 37.760165 -11 35 C-13.68927438 31.41430082 -16.48648288 29.6707043 -20.4375 27.625 C-24.97980689 25.15635495 -28.69286486 22.76116653 -31 18 C-31.98912484 13.05437578 -32.1604891 8.39245759 -29.921875 3.77734375 C-22.55920179 -5.74963176 -9.7957996 -6.08928083 0 0 Z " fill="#14787B" transform="translate(206,298)"/>
<path d="M0 0 C0.66 0 1.32 0 2 0 C3.15625 1.50390625 3.15625 1.50390625 4.5 3.5625 C10.43949876 11.66833768 18.08232651 15.49994041 27.62890625 18.078125 C28.41136719 18.38234375 29.19382813 18.6865625 30 19 C31.22668194 22.68004581 30.67169983 23.33689159 29.05078125 26.74609375 C28.61443359 27.66583984 28.17808594 28.58558594 27.72851562 29.53320312 C27.26123047 30.49162109 26.79394531 31.45003906 26.3125 32.4375 C25.86455078 33.39205078 25.41660156 34.34660156 24.95507812 35.33007812 C20.93419488 43.69374938 20.93419488 43.69374938 17 47 C7.60483762 46.81782234 -2.75998468 39.89039117 -9.44921875 33.67578125 C-9.96097656 33.12277344 -10.47273438 32.56976563 -11 32 C-11.87591797 31.06220703 -11.87591797 31.06220703 -12.76953125 30.10546875 C-14 28 -14 28 -13.74487305 25.68164062 C-12.94157521 22.7896631 -11.82497736 20.57780326 -10.3125 17.98828125 C-9.77882813 17.06595703 -9.24515625 16.14363281 -8.6953125 15.19335938 C-8.13585937 14.24267578 -7.57640625 13.29199219 -7 12.3125 C-5.8956065 10.41289228 -4.79142895 8.51315898 -3.6875 6.61328125 C-3.19636719 5.77579346 -2.70523438 4.93830566 -2.19921875 4.07543945 C-1.42692727 2.73886578 -0.69034242 1.38068485 0 0 Z " fill="#127B7D" transform="translate(96,159)"/>
<path d="M0 0 C11.55 0 23.1 0 35 0 C35 3.63 35 7.26 35 11 C34 12 34 12 31.86694336 12.11352539 C30.95050049 12.10828857 30.03405762 12.10305176 29.08984375 12.09765625 C28.10048828 12.09443359 27.11113281 12.09121094 26.09179688 12.08789062 C25.05087891 12.07951172 24.00996094 12.07113281 22.9375 12.0625 C21.89271484 12.05798828 20.84792969 12.05347656 19.77148438 12.04882812 C17.1809334 12.03699913 14.59049441 12.02051689 12 12 C12 11.34 12 10.68 12 10 C19.26 10 26.52 10 34 10 C34 7.36 34 4.72 34 2 C23.44 2 12.88 2 2 2 C2 18.83 2 35.66 2 53 C12.56 53 23.12 53 34 53 C34 50.36 34 47.72 34 45 C26.41 45 18.82 45 11 45 C11 40.38 11 35.76 11 31 C11.33 31 11.66 31 12 31 C12 34.96 12 38.92 12 43 C13.57652344 42.98839844 15.15304688 42.97679687 16.77734375 42.96484375 C18.83072799 42.95546757 20.8841135 42.94636718 22.9375 42.9375 C23.97841797 42.92912109 25.01933594 42.92074219 26.09179688 42.91210938 C27.08115234 42.90888672 28.07050781 42.90566406 29.08984375 42.90234375 C30.00628662 42.89710693 30.92272949 42.89187012 31.86694336 42.88647461 C34 43 34 43 35 44 C35.07226502 45.85287502 35.0838122 47.70833878 35.0625 49.5625 C35.05347656 50.57441406 35.04445312 51.58632813 35.03515625 52.62890625 C35.02355469 53.41136719 35.01195312 54.19382812 35 55 C30.17619198 55.0246519 25.35242033 55.04283693 20.52856445 55.05493164 C18.88630536 55.05997174 17.24405077 55.06680378 15.60180664 55.07543945 C13.24624521 55.08751926 10.89074291 55.09323139 8.53515625 55.09765625 C7.79660904 55.10281754 7.05806183 55.10797882 6.2971344 55.11329651 C4.53101912 55.1134925 2.76502854 55.06194719 1 55 C0 54 0 54 -0.12025452 51.82969666 C-0.11803391 50.87261307 -0.11581329 49.91552948 -0.11352539 48.92944336 C-0.11344986 47.84839828 -0.11337433 46.76735321 -0.11329651 45.65354919 C-0.10813522 44.4775264 -0.10297394 43.3015036 -0.09765625 42.08984375 C-0.0962413 40.89267227 -0.09482635 39.69550079 -0.09336853 38.46205139 C-0.08774979 34.62050934 -0.07519411 30.77902457 -0.0625 26.9375 C-0.05748741 24.34049563 -0.05292409 21.74349035 -0.04882812 19.14648438 C-0.03862313 12.76428284 -0.01905136 6.3822059 0 0 Z " fill="#296364" transform="translate(69,295)"/>
<path d="M0 0 C0.33 0 0.66 0 1 0 C0.67 7.92 0.34 15.84 0 24 C0.99 23.67 1.98 23.34 3 23 C3.73323796 20.98491642 3.73323796 20.98491642 4 19 C5.29396993 21.58793986 4.79660922 22.49404405 4.07421875 25.26171875 C3.74587036 26.5597644 3.74587036 26.5597644 3.41088867 27.8840332 C3.17217041 28.80917725 2.93345215 29.73432129 2.6875 30.6875 C0.50382841 39.43946343 -1.07653952 48.02727209 -2 57 C-2.66 57 -3.32 57 -4 57 C-2.87069625 15.53251721 -2.87069625 15.53251721 0 0 Z " fill="#326769" transform="translate(31,98)"/>
<path d="M0 0 C0.33 0 0.66 0 1 0 C1 3.3 1 6.6 1 10 C1.66 10 2.32 10 3 10 C2.34 15.94 1.68 21.88 1 28 C0.34 28 -0.32 28 -1 28 C-0.67 18.76 -0.34 9.52 0 0 Z " fill="#445D5E" transform="translate(28,127)"/>
<path d="M0 0 C5.96652354 1.57013777 10.82909025 4.75029782 16 8 C15.01 8.66 14.02 9.32 13 10 C12.67 10.66 12.34 11.32 12 12 C11.319375 11.278125 10.63875 10.55625 9.9375 9.8125 C7.83993751 7.69082759 5.65004857 5.99424049 3.1875 4.3125 C2.135625 3.549375 1.08375 2.78625 0 2 C0 1.34 0 0.68 0 0 Z " fill="#2B686A" transform="translate(101,5)"/>
<path d="M0 0 C3.63 0 7.26 0 11 0 C12.28497537 3.85492611 11.4052209 5.40346836 10.0625 9.1875 C9.68222656 10.27417969 9.30195313 11.36085938 8.91015625 12.48046875 C8.60980469 13.31191406 8.30945313 14.14335937 8 15 C7.67 15 7.34 15 7 15 C7.54855348 10.428721 8.41744803 6.32564205 10 2 C6.37 2.33 2.74 2.66 -1 3 C-0.67 2.01 -0.34 1.02 0 0 Z " fill="#2F6061" transform="translate(161,295)"/>
<path d="M0 0 C0.33 0.66 0.66 1.32 1 2 C0.67 2.66 0.34 3.32 0 4 C0.66 4.33 1.32 4.66 2 5 C0.54782324 6.50596108 -0.91192861 8.00462104 -2.375 9.5 C-3.18710938 10.3353125 -3.99921875 11.170625 -4.8359375 12.03125 C-7 14 -7 14 -9 14 C-7.65070536 10.16336928 -5.92248975 7.34827431 -3.375 4.1875 C-2.42753906 3.00220703 -2.42753906 3.00220703 -1.4609375 1.79296875 C-0.97882813 1.20128906 -0.49671875 0.60960937 0 0 Z " fill="#2D6C6E" transform="translate(166,259)"/>
<path d="M0 0 C1 2 1 2 0.546875 3.8046875 C-0.91664204 7.60696217 -2.27937222 10.89071111 -5 14 C-5.25 7.375 -5.25 7.375 -3 4 C-2.34 4 -1.68 4 -1 4 C-0.67 2.68 -0.34 1.36 0 0 Z " fill="#1E6E70" transform="translate(35,117)"/>
<path d="M0 0 C0.66 0.33 1.32 0.66 2 1 C-1.3 4.63 -4.6 8.26 -8 12 C-8.66 11.67 -9.32 11.34 -10 11 C-8.52116808 9.35386588 -7.04192523 7.70810092 -5.5625 6.0625 C-4.73878906 5.14597656 -3.91507813 4.22945313 -3.06640625 3.28515625 C-1 1 -1 1 0 0 Z " fill="#296C6E" transform="translate(51,65)"/>
<path d="M0 0 C0.66 0.33 1.32 0.66 2 1 C2.625 4.0625 2.625 4.0625 3 7 C2.01 7 1.02 7 0 7 C-0.66 7.66 -1.32 8.32 -2 9 C-1.125 2.25 -1.125 2.25 0 0 Z " fill="#2E5C5D" transform="translate(137,90)"/>
<path d="M0 0 C3.77545388 1.09068668 6.47043472 1.9083091 9 5 C8.34 5.66 7.68 6.32 7 7 C5.82780457 6.21654285 4.66236332 5.42297164 3.5 4.625 C2.8503125 4.18414063 2.200625 3.74328125 1.53125 3.2890625 C1.0259375 2.86367187 0.520625 2.43828125 0 2 C0 1.34 0 0.68 0 0 Z " fill="#435C5C" transform="translate(101,5)"/>
<path d="M0 0 C0.66 0 1.32 0 2 0 C2.66 2.97 3.32 5.94 4 9 C3.34 9 2.68 9 2 9 C1.34 8.01 0.68 7.02 0 6 C-0.33 6 -0.66 6 -1 6 C-1.042721 4.33388095 -1.04063832 2.66617115 -1 1 C-0.67 0.67 -0.34 0.34 0 0 Z " fill="#385E5F" transform="translate(150,55)"/>
<path d="M0 0 C1.65 1.65 3.3 3.3 5 5 C4.67 5.66 4.34 6.32 4 7 C0.535 5.02 0.535 5.02 -3 3 C-2.01 2.67 -1.02 2.34 0 2 C0 1.34 0 0.68 0 0 Z " fill="#3C6363" transform="translate(127,134)"/>
<path d="M0 0 C0.66 0.99 1.32 1.98 2 3 C0.71034824 4.37562854 -0.62689293 5.70766393 -2 7 C-2.66 7 -3.32 7 -4 7 C-2.92598892 4.08482708 -2.22189824 2.22189824 0 0 Z " fill="#395E5F" transform="translate(161,266)"/>
<path d="M0 0 C0 3.96 0 7.92 0 12 C-0.33 12 -0.66 12 -1 12 C-1.07347656 11.06027344 -1.07347656 11.06027344 -1.1484375 10.1015625 C-1.22320312 9.28429688 -1.29796875 8.46703125 -1.375 7.625 C-1.44460937 6.81289063 -1.51421875 6.00078125 -1.5859375 5.1640625 C-1.82892588 2.79665809 -1.82892588 2.79665809 -4 1 C-2 0 -2 0 0 0 Z " fill="#3E5556" transform="translate(111,37)"/>
</svg>
