<svg width="20" height="20" viewBox="0 0 20 20" fill="none" xmlns="http://www.w3.org/2000/svg">
<g clip-path="url(#clip0_1556_3222)">
<path fill-rule="evenodd" clip-rule="evenodd" d="M10.0002 2.49998C5.85803 2.49998 2.50016 5.85784 2.50016 9.99998C2.50016 14.1421 5.85803 17.5 10.0002 17.5C14.1423 17.5 17.5002 14.1421 17.5002 9.99998C17.5002 5.85784 14.1423 2.49998 10.0002 2.49998ZM0.833496 9.99998C0.833496 4.93737 4.93755 0.833313 10.0002 0.833313C15.0628 0.833313 19.1668 4.93737 19.1668 9.99998C19.1668 15.0626 15.0628 19.1666 10.0002 19.1666C4.93755 19.1666 0.833496 15.0626 0.833496 9.99998Z" fill="#F49040"/>
<path fill-rule="evenodd" clip-rule="evenodd" d="M9.99984 4.16669C10.4601 4.16669 10.8332 4.53978 10.8332 5.00002V9.48499L13.7058 10.9213C14.1175 11.1272 14.2844 11.6277 14.0785 12.0394C13.8727 12.451 13.3721 12.6179 12.9605 12.412L9.62716 10.7454C9.34484 10.6042 9.1665 10.3157 9.1665 10V5.00002C9.1665 4.53978 9.5396 4.16669 9.99984 4.16669Z" fill="#F49040"/>
</g>
<defs>
<clipPath id="clip0_1556_3222">
<rect width="20" height="20" fill="white"/>
</clipPath>
</defs>
</svg>
