<?xml version="1.0" encoding="UTF-8"?>
<svg version="1.1" xmlns="http://www.w3.org/2000/svg" width="400" height="95">
<path d="M0 0 C1.83499146 -0.36076355 1.83499146 -0.36076355 4.08251953 -0.34057617 C5.34360031 -0.34023628 5.34360031 -0.34023628 6.63015747 -0.33988953 C7.53853363 -0.32440567 8.44690979 -0.30892181 9.3828125 -0.29296875 C10.31221649 -0.28872391 11.24162048 -0.28447906 12.19918823 -0.28010559 C15.17475056 -0.26328012 18.14964156 -0.22562103 21.125 -0.1875 C23.13931315 -0.17245816 25.15363689 -0.15876888 27.16796875 -0.14648438 C32.11223879 -0.11336394 37.05600549 -0.06155529 42 0 C42 2.31 42 4.62 42 7 C41.28972656 7.06058594 40.57945312 7.12117187 39.84765625 7.18359375 C38.92855469 7.26738281 38.00945312 7.35117188 37.0625 7.4375 C36.14597656 7.51871094 35.22945312 7.59992187 34.28515625 7.68359375 C32.03840268 7.76044976 32.03840268 7.76044976 31 9 C30.30004188 15.7313026 32.50636172 21.32902291 34.71875 27.62109375 C35.28474915 29.27094017 35.28474915 29.27094017 35.86218262 30.95411682 C37.06478283 34.45212255 38.2821508 37.94477772 39.5 41.4375 C40.31999124 43.81411494 41.13901275 46.1910647 41.95703125 48.56835938 C43.96013501 54.38283241 45.97537469 60.19298821 48 66 C49.6787749 63.48183765 50.52014669 61.80325027 51.4362793 59.00683594 C51.6996257 58.20880554 51.96297211 57.41077515 52.23429871 56.58856201 C52.65005913 55.29948944 52.65005913 55.29948944 53.07421875 53.984375 C53.36230911 53.09518372 53.65039948 52.20599243 53.94721985 51.28985596 C54.55418877 49.40781216 55.15838305 47.5248716 55.76000977 45.64111328 C56.68096695 42.77036441 57.62239333 39.90685025 58.56445312 37.04296875 C59.15232384 35.21134853 59.73895302 33.37932927 60.32421875 31.546875 C60.74908821 30.26994781 60.74908821 30.26994781 61.18254089 28.96722412 C63.16626876 22.63342705 63.2256495 18.03494161 60.6875 11.75 C57.05485712 8.03287705 53.60342616 7.63083875 48.58203125 6.73828125 C47.72996094 6.49464844 46.87789062 6.25101562 46 6 C45.505 4.515 45.505 4.515 45 3 C45.66 2.01 46.32 1.02 47 0 C48.83499146 -0.36076355 48.83499146 -0.36076355 51.08251953 -0.34057617 C52.34360031 -0.34023628 52.34360031 -0.34023628 53.63015747 -0.33988953 C54.53853363 -0.32440567 55.44690979 -0.30892181 56.3828125 -0.29296875 C57.31221649 -0.28872391 58.24162048 -0.28447906 59.19918823 -0.28010559 C62.17475056 -0.26328012 65.14964156 -0.22562103 68.125 -0.1875 C70.13931315 -0.17245816 72.15363689 -0.15876888 74.16796875 -0.14648438 C79.11223879 -0.11336394 84.05600549 -0.06155529 89 0 C89 2.31 89 4.62 89 7 C85.7 7.33 82.4 7.66 79 8 C79.56628625 15.04711781 81.53928746 21.26639842 83.81640625 27.9375 C84.19232407 29.05817871 84.56824188 30.17885742 84.95555115 31.33349609 C86.15081037 34.89141929 87.35648561 38.44570984 88.5625 42 C89.37764465 44.42034013 90.19210527 46.84091075 91.00585938 49.26171875 C92.99599401 55.17717084 94.99467865 61.08968005 97 67 C99.11968616 60.38028432 101.23740684 53.75994223 103.35375977 47.13916016 C104.07400962 44.88673652 104.79470994 42.63445688 105.51586914 40.38232422 C106.55212866 37.14588532 107.58676919 33.90893273 108.62109375 30.671875 C108.94403915 29.66445251 109.26698456 28.65703003 109.59971619 27.61907959 C109.89995193 26.67840637 110.20018768 25.73773315 110.50952148 24.76855469 C110.77377426 23.94248718 111.03802704 23.11641968 111.31028748 22.26531982 C112.70999679 17.66805771 113.09330606 13.85191512 113 9 C109.93146462 7.46573231 106.70412079 7.61060127 103.3125 7.37890625 C101 7 101 7 99 5 C99.375 2.375 99.375 2.375 100 0 C107.25812487 -0.27953653 114.51506925 -0.4919815 121.77750969 -0.62174606 C125.15114857 -0.6840733 128.52107624 -0.76837844 131.89257812 -0.90527344 C155.5282465 -1.79553864 155.5282465 -1.79553864 160.82983398 2.43457031 C163.51404758 5.27062869 165.24366595 8.52280253 167 12 C168.08744585 13.46823705 169.20536175 14.91480233 170.36328125 16.328125 C171.34843723 17.63384761 172.33150934 18.94114509 173.3125 20.25 C178.11618378 26.597725 183.05808264 32.80754618 188.10888672 38.9597168 C192.71185996 44.58982854 197.13902337 50.3439287 201.51171875 56.15429688 C204.85695623 60.58156349 208.35134576 64.81845736 212 69 C212.09632828 53.57710169 212.17203344 38.16414077 211.5625 22.75 C211.52326416 21.71689697 211.48402832 20.68379395 211.44360352 19.61938477 C211.26638841 15.59990133 211.0954943 11.88741749 210 8 C208.51886719 7.90912109 208.51886719 7.90912109 207.0078125 7.81640625 C205.72648438 7.73261719 204.44515625 7.64882812 203.125 7.5625 C201.84882813 7.48128906 200.57265625 7.40007813 199.2578125 7.31640625 C196 7 196 7 194 6 C193.957279 4.33388095 193.95936168 2.66617115 194 1 C195 0 195 0 198.60180664 -0.11352539 C200.20459856 -0.11336625 201.8073956 -0.10767063 203.41015625 -0.09765625 C204.25219101 -0.0962413 205.09422577 -0.09482635 205.96177673 -0.09336853 C208.66205335 -0.08775263 211.36224828 -0.07519748 214.0625 -0.0625 C215.88867068 -0.05748705 217.71484266 -0.05292379 219.54101562 -0.04882812 C224.02737542 -0.03777804 228.51367384 -0.02050279 233 0 C233 2.31 233 4.62 233 7 C231.93458984 7.19916016 231.93458984 7.19916016 230.84765625 7.40234375 C229.46900391 7.66724609 229.46900391 7.66724609 228.0625 7.9375 C227.14597656 8.11152344 226.22945312 8.28554687 225.28515625 8.46484375 C223.04710156 8.77714988 223.04710156 8.77714988 222 10 C221.87490166 12.64651343 221.81394005 15.26822219 221.79467773 17.91625977 C221.78477814 18.74545929 221.77487854 19.57465881 221.76467896 20.4289856 C221.7329688 23.18309629 221.70826912 25.93722426 221.68359375 28.69140625 C221.66303243 30.59570273 221.64203618 32.49999455 221.62062073 34.40428162 C221.56531515 39.42662806 221.51594344 44.44901627 221.46777344 49.47143555 C221.41762021 54.59232315 221.36190197 59.7131498 221.30664062 64.83398438 C221.19895533 74.8892709 221.09753355 84.94461025 221 95 C219.57045652 95.08164579 218.1395565 95.1397523 216.70849609 95.18798828 C215.91188568 95.22288361 215.11527527 95.25777893 214.29452515 95.29373169 C211.46928365 94.9320608 210.55325588 94.07005681 208.6640625 91.9921875 C207.62262294 90.64123036 206.6107678 89.26710034 205.625 87.875 C205.07537598 87.14941895 204.52575195 86.42383789 203.95947266 85.67626953 C202.82975415 84.18311319 201.71105093 82.68155884 200.60351562 81.171875 C198.70096183 78.59496901 196.72413176 76.08527177 194.73022461 73.57885742 C193.36956879 71.8681716 192.02095161 70.14866315 190.67578125 68.42578125 C187.97537295 64.96819384 185.2710561 61.51370911 182.5625 58.0625 C182.11116699 57.48741699 181.65983398 56.91233398 181.19482422 56.31982422 C177.82036124 52.02733518 174.41549962 47.75987939 171 43.5 C166.9379895 38.43258726 162.89288143 33.3524957 158.875 28.25 C158.18277344 27.37311523 158.18277344 27.37311523 157.4765625 26.47851562 C155.55478165 24.03287584 153.72652569 21.58978853 152 19 C151.95352803 26.57171785 151.91805557 34.14342079 151.89637566 41.71524906 C151.885967 45.23168562 151.87186161 48.74802414 151.84912109 52.2644043 C151.82310451 56.31299751 151.8135031 60.36148876 151.8046875 64.41015625 C151.79436493 65.66458023 151.78404236 66.91900421 151.77340698 68.21144104 C151.754715 76.80284369 151.754715 76.80284369 154 85 C156.00796386 86.42824865 156.00796386 86.42824865 158.4375 86.875 C159.61119141 87.18050781 159.61119141 87.18050781 160.80859375 87.4921875 C161.53175781 87.65976563 162.25492188 87.82734375 163 88 C163.99 88.33 164.98 88.66 166 89 C166 90.98 166 92.96 166 95 C153.46 95 140.92 95 128 95 C127.67 93.35 127.34 91.7 127 90 C128.010625 89.71125 129.02125 89.4225 130.0625 89.125 C130.69671875 88.93808594 131.3309375 88.75117187 131.984375 88.55859375 C133.90762992 88.02559868 135.86058987 87.60348085 137.8125 87.1875 C141.10888444 86.35376859 141.10888444 86.35376859 142.18403625 83.85415649 C143.14299472 80.49981931 143.24704544 77.63636122 143.24291992 74.14599609 C143.24576744 73.14263466 143.24576744 73.14263466 143.24867249 72.1190033 C143.2523604 69.92036 143.24170606 67.72205115 143.23046875 65.5234375 C143.22927588 63.99077391 143.22882401 62.45810959 143.2290802 60.92544556 C143.22751886 57.71945595 143.21925463 54.51357857 143.20581055 51.30761719 C143.18879253 47.19730816 143.18499725 43.08712198 143.18575573 38.97678185 C143.18548394 35.81467516 143.18000177 32.65259534 143.17275429 29.49049759 C143.16957198 27.97462797 143.16760123 26.45875531 143.16686058 24.94288254 C143.16469399 22.8269404 143.15594372 20.71112893 143.14526367 18.59521484 C143.14145187 17.39118011 143.13764008 16.18714539 143.13371277 14.94662476 C143.13156871 11.93987726 143.13156871 11.93987726 142 9 C139.01836682 8.00612227 136.75006754 7.73630378 133.625 7.625 C132.68914062 7.57601563 131.75328125 7.52703125 130.7890625 7.4765625 C126.86542897 8.2129307 125.58280253 10.0005347 123 13 C121.46706513 16.18448209 121.46706513 16.18448209 120.37890625 19.78125 C120.04666046 20.78704353 120.04666046 20.78704353 119.70770264 21.81315613 C118.97763539 24.0375274 118.26997244 26.26834952 117.5625 28.5 C117.05273325 30.06911001 116.54188519 31.63786908 116.0300293 33.20629883 C111.01196787 48.66347534 106.21967981 64.19681848 101.45727539 79.734375 C101.02176361 81.15016594 101.02176361 81.15016594 100.57745361 82.59455872 C100.0293809 84.37732976 99.48389551 86.16089884 98.94134521 87.94535828 C97.11209658 93.88790342 97.11209658 93.88790342 96 95 C93.69 95 91.38 95 89 95 C82.07 74.21 75.14 53.42 68 32 C61.4 52.79 54.8 73.58 48 95 C45.69 95 43.38 95 41 95 C37.76267086 87.24713352 35.03967433 79.36740747 32.41015625 71.390625 C31.9797588 70.09313771 31.54904225 68.79575623 31.11802673 67.49847412 C29.99128531 64.10505831 28.86789895 60.71054277 27.74554443 57.31567383 C25.95452924 51.89925724 24.1594599 46.4841879 22.36227226 41.06981659 C21.74441135 39.2062421 21.12876453 37.34193399 20.51319885 35.4776001 C19.74159056 33.149758 18.96408738 30.82386015 18.1802063 28.50012207 C17.35104657 26.04109413 16.53762648 23.57961185 15.73458862 21.11218262 C15.30873288 19.84244728 14.88216904 18.57294917 14.45483398 17.30371094 C14.07979233 16.16673767 13.70475067 15.0297644 13.31834412 13.8583374 C11.91182574 10.80882701 10.87766414 9.65433117 8 8 C5.6472525 7.3673284 3.3309174 7.00289373 0.92578125 6.625 C0.29027344 6.41875 -0.34523437 6.2125 -1 6 C-1.33 5.01 -1.66 4.02 -2 3 C-1.34 2.01 -0.68 1.02 0 0 Z " fill="#353132" transform="translate(163,0)"/>
<path d="M0 0 C1.26254105 -0.00960754 2.52508209 -0.01921509 3.82588196 -0.02911377 C5.21879903 -0.03396606 6.6117182 -0.03824382 8.00463867 -0.04199219 C9.43177797 -0.04774652 10.85891725 -0.05350422 12.28605652 -0.05926514 C15.2898291 -0.06979485 18.29357482 -0.07562223 21.29736328 -0.07910156 C25.11556827 -0.08454117 28.93340843 -0.10846171 32.75150013 -0.13707352 C35.70723939 -0.1558733 38.66289463 -0.16091496 41.61868858 -0.16243744 C43.02387133 -0.16543388 44.42905368 -0.17335853 45.83417702 -0.18662262 C60.6925999 -0.31668032 74.52432346 2.03767574 85.92260742 12.28613281 C94.69745095 21.79924443 97.50078463 33.94148671 97.42260742 46.47363281 C97.4152356 47.86739136 97.4152356 47.86739136 97.40771484 49.28930664 C97.29353675 55.97077431 96.67863537 61.93219256 94.11010742 68.16113281 C93.78139648 69.00546875 93.45268555 69.84980469 93.11401367 70.71972656 C88.35802192 81.53179086 79.83462621 88.55412122 69.11010742 93.16113281 C64.28420812 94.74353898 60.14492472 95.40707254 55.07324219 95.38818359 C54.4089772 95.38847565 53.74471222 95.3887677 53.06031799 95.3890686 C50.8905781 95.38768844 48.72119269 95.37219031 46.55151367 95.35644531 C45.03694344 95.35271049 43.52237077 95.34986574 42.00779724 95.34786987 C38.04087536 95.34027032 34.07410227 95.32065388 30.10723877 95.29846191 C26.05157483 95.27792382 21.99588661 95.2688512 17.94018555 95.25878906 C9.99675825 95.23740414 2.0534514 95.20331316 -5.88989258 95.16113281 C-6.27208025 93.50498624 -6.6038436 91.83656257 -6.88989258 90.16113281 C-4.68761678 87.95885701 0.2468638 88.70881046 3.22729492 88.54003906 C6.30269576 88.35163129 6.30269576 88.35163129 9.11010742 86.16113281 C10.48040131 82.72093377 10.23708049 79.11022028 10.23950195 75.45239258 C10.24125427 74.78684357 10.24300659 74.12129456 10.24481201 73.43557739 C10.24920376 71.24120455 10.24630163 69.04691269 10.24291992 66.85253906 C10.24359381 65.32323694 10.24456455 63.79393493 10.24581909 62.26463318 C10.2472925 59.06109598 10.24515324 55.85758669 10.24047852 52.65405273 C10.23478627 48.55400904 10.23805929 44.45403088 10.24405098 40.3539896 C10.24767032 37.19609588 10.24651161 34.03821761 10.24392319 30.88032341 C10.24325747 29.36889577 10.24406991 27.85746671 10.24640274 26.34604073 C10.24895126 24.23041208 10.24505753 22.11488843 10.23950195 19.99926758 C10.23870636 18.79665787 10.23791077 17.59404816 10.23709106 16.35499573 C10.12347982 13.49747229 9.76897083 10.93717586 9.11010742 8.16113281 C7.62897461 8.07025391 7.62897461 8.07025391 6.11791992 7.97753906 C4.8365918 7.89375 3.55526367 7.80996094 2.23510742 7.72363281 C0.95893555 7.64242188 -0.31723633 7.56121094 -1.63208008 7.47753906 C-4.88989258 7.16113281 -4.88989258 7.16113281 -6.88989258 6.16113281 C-6.93261358 4.49501376 -6.9305309 2.82730396 -6.88989258 1.16113281 C-5.09814889 -0.63061087 -2.41985547 0.01480134 0 0 Z M26.11010742 10.16113281 C25.65138161 13.42634016 25.65138161 13.42634016 25.72192383 17.23120117 C25.71666687 17.9469783 25.71140991 18.66275543 25.70599365 19.40022278 C25.69278533 21.76736243 25.70153517 24.13383001 25.71166992 26.50097656 C25.70964919 28.14620594 25.70673776 29.79143445 25.70297241 31.43666077 C25.69854776 34.88583905 25.70498369 38.33478434 25.71899414 41.78393555 C25.73607283 46.20375879 25.72625433 50.623035 25.70827675 55.0428381 C25.69743116 58.44092421 25.70088901 61.83888087 25.70866013 65.2369709 C25.71066069 66.86645129 25.70820787 68.49594344 25.70122147 70.12541008 C25.69359556 72.40447948 25.70522678 74.6826662 25.72192383 76.96166992 C25.72431061 78.25834091 25.72669739 79.5550119 25.72915649 80.89097595 C26.13297906 84.35746743 26.62867227 85.75534589 29.11010742 88.16113281 C39.30961682 91.56096928 53.17344735 89.50616827 62.63745117 84.94238281 C71.66773962 79.53322501 75.80752338 71.0659008 78.66943359 61.2409668 C81.42925929 48.21550692 80.12054795 32.5557088 73.86010742 20.81738281 C69.45363198 14.10752248 62.67895915 9.94409027 54.96557617 8.01660156 C49.7221075 6.94515038 44.57197647 6.82978794 39.23510742 6.84863281 C38.29924805 6.83251953 37.36338867 6.81640625 36.39916992 6.79980469 C35.50198242 6.79916016 34.60479492 6.79851563 33.68041992 6.79785156 C32.87362793 6.79487061 32.06683594 6.79188965 31.2355957 6.78881836 C28.45431205 7.27600623 27.76976569 7.87265066 26.11010742 10.16113281 Z " fill="#312E2E" transform="translate(10.889892578125,-0.1611328125)"/>
<path d="M0 0 C2.97 0 5.94 0 9 0 C9.31240631 0.84365616 9.62481262 1.68731232 9.94668579 2.55653381 C12.91553879 10.57288157 15.88628281 18.58852554 18.8590641 26.6034174 C20.38671305 30.72229681 21.91367238 34.84142893 23.43896484 38.96118164 C24.91560881 42.94945409 26.39418276 46.93700643 27.87400436 50.92410088 C28.43352054 52.43259497 28.99238282 53.94133179 29.55052567 55.45033455 C31.09628169 59.62873752 32.66052688 63.79944294 34.24091339 67.96486282 C35.02233654 70.05988504 35.76909268 72.16534833 36.51385498 74.27365112 C37.01425359 75.63637851 37.51530604 76.99886604 38.01708984 78.36108398 C38.4477475 79.56707748 38.87840515 80.77307098 39.32211304 82.01560974 C41.73189501 86.3017923 44.79735655 87.36239268 49.375 88.6875 C49.91125 88.790625 50.4475 88.89375 51 89 C51 90.98 51 92.96 51 95 C37.8 95 24.6 95 11 95 C11 90 11 90 12 89 C13.47396739 88.79231771 14.9549126 88.63283983 16.4375 88.5 C19.84497505 88.20853056 19.84497505 88.20853056 23 87 C22.56881521 85.16517111 22.12967947 83.33221033 21.6875 81.5 C21.44386719 80.4790625 21.20023437 79.458125 20.94921875 78.40625 C19.86913761 74.53040328 18.41275437 70.76734498 17 67 C5.78 66.67 -5.44 66.34 -17 66 C-17.99 68.97 -18.98 71.94 -20 75 C-20.391875 75.86625 -20.78375 76.7325 -21.1875 77.625 C-22.27355356 80.79961811 -22.13049332 83.67242039 -22 87 C-17.545 87.99 -17.545 87.99 -13 89 C-13 90.98 -13 92.96 -13 95 C-23.56 95 -34.12 95 -45 95 C-46 91 -46 91 -45 89 C-43.07507002 88.58293184 -41.14730637 88.17084168 -39.203125 87.85546875 C-35.06933525 86.25032699 -32.84510062 83.62239998 -30.84667969 79.78588867 C-29.56957507 76.88404743 -28.39948714 73.9547757 -27.25 71 C-26.79681396 69.86312744 -26.34362793 68.72625488 -25.87670898 67.55493164 C-20.34625114 53.61429806 -15.10556282 39.55546845 -9.83886719 25.51367188 C-9.48265793 24.56428238 -9.12644867 23.61489288 -8.75944519 22.63673401 C-8.09322644 20.85959179 -7.42802954 19.08206598 -6.76411438 17.30406189 C-4.59062028 11.50256226 -2.32219154 5.74355151 0 0 Z M-1 22 C-2.8555538 26.94637193 -4.7068576 31.89430516 -6.55419922 36.84375 C-7.1835592 38.52810836 -7.81408897 40.21203009 -8.44580078 41.89550781 C-9.35234799 44.31201826 -10.25470972 46.73005537 -11.15625 49.1484375 C-11.5827887 50.28132706 -11.5827887 50.28132706 -12.01794434 51.43710327 C-13.48300316 55.11832947 -13.48300316 55.11832947 -14 59 C-4.76 59 4.48 59 14 59 C11.58648248 50.95494159 8.94294824 43.25516521 5.9375 35.4375 C5.49083984 34.25091797 5.04417969 33.06433594 4.58398438 31.84179688 C4.15279297 30.71708984 3.72160156 29.59238281 3.27734375 28.43359375 C2.88796631 27.41322021 2.49858887 26.39284668 2.09741211 25.34155273 C1.22733734 22.8552908 1.22733734 22.8552908 -1 22 Z " fill="#363233" transform="translate(140,0)"/>
<path d="M0 0 C0.33 0 0.66 0 1 0 C1.36923077 6.52307692 1.36923077 6.52307692 -0.5 8.9375 C-0.995 9.288125 -1.49 9.63875 -2 10 C-1.54177532 6.53058454 -1.10868317 3.32604951 0 0 Z " fill="#6F6C6D" transform="translate(263,58)"/>
<path d="M0 0 C0.33 0 0.66 0 1 0 C1.36923077 6.52307692 1.36923077 6.52307692 -0.5 8.9375 C-0.995 9.288125 -1.49 9.63875 -2 10 C-1.54177532 6.53058454 -1.10868317 3.32604951 0 0 Z " fill="#726F70" transform="translate(216,53)"/>
<path d="M0 0 C2.31 0 4.62 0 7 0 C7 0.33 7 0.66 7 1 C4.69 1 2.38 1 0 1 C0 0.67 0 0.34 0 0 Z " fill="#EAEAEB" transform="translate(7,11)"/>
<path d="M0 0 C0.66 0 1.32 0 2 0 C2 0.66 2 1.32 2 2 C1.34 2 0.68 2 0 2 C0 1.34 0 0.68 0 0 Z " fill="#F4F4F4" transform="translate(13,83)"/>
<path d="M0 0 C4 1 4 1 4 1 Z " fill="#EEEEEF" transform="translate(392,11)"/>
<path d="" fill="#F7F7F7" transform="translate(0,0)"/>
<path d="" fill="#F6F6F6" transform="translate(0,0)"/>
<path d="" fill="#F1F1F1" transform="translate(0,0)"/>
<path d="" fill="#F0F0F1" transform="translate(0,0)"/>
<path d="" fill="#F2F2F3" transform="translate(0,0)"/>
</svg>
