<svg width="31" height="30" viewBox="0 0 31 30" fill="none" xmlns="http://www.w3.org/2000/svg">
<path d="M4.00024 15C4.00024 16.4774 4.29123 17.9403 4.8566 19.3052C5.42196 20.6701 6.25063 21.9103 7.29529 22.955C8.33995 23.9996 9.58014 24.8283 10.9451 25.3936C12.31 25.959 13.7729 26.25 15.2502 26.25C16.7276 26.25 18.1905 25.959 19.5554 25.3936C20.9203 24.8283 22.1605 23.9996 23.2052 22.955C24.2499 21.9103 25.0785 20.6701 25.6439 19.3052C26.2093 17.9403 26.5002 16.4774 26.5002 15C26.5002 13.5226 26.2093 12.0597 25.6439 10.6948C25.0785 9.3299 24.2499 8.08971 23.2052 7.04505C22.1605 6.00039 20.9203 5.17172 19.5554 4.60636C18.1905 4.04099 16.7276 3.75 15.2502 3.75C13.7729 3.75 12.31 4.04099 10.9451 4.60636C9.58014 5.17172 8.33995 6.00039 7.29529 7.04505C6.25063 8.08971 5.42196 9.3299 4.8566 10.6948C4.29123 12.0597 4.00024 13.5226 4.00024 15Z" stroke="#F49040" stroke-width="2" stroke-linecap="round" stroke-linejoin="round"/>
<path d="M17.584 12.1875C17.2765 11.5875 16.699 11.2263 16.084 11.25H14.4165C13.4965 11.25 12.7502 12.0875 12.7502 13.125C12.7502 14.1588 13.4965 14.9988 14.4165 14.9988H16.084C17.004 14.9988 17.7502 15.8375 17.7502 16.8738C17.7502 17.9088 17.004 18.7475 16.084 18.7475H14.4165C13.8015 18.7713 13.224 18.41 12.9165 17.81M15.2502 8.75V11.25M15.2502 18.75V21.25M7.75024 7.5L9.62524 9.375M20.8752 20.625L22.7502 22.5" stroke="#F49040" stroke-width="2" stroke-linecap="round" stroke-linejoin="round"/>
</svg>
