<svg width="62" height="72" viewBox="0 0 62 72" fill="none" xmlns="http://www.w3.org/2000/svg">
<path d="M47.606 44.1127C47.5857 44.1044 47.5654 44.0969 47.5448 44.0899C45.5606 43.3529 43.9797 43.1134 43.7755 43.0662C43.6377 42.6204 43.4061 42.1981 43.0798 41.8319C41.5033 40.063 39.6123 39.0891 38.5891 38.6542V37.3641C40.8239 35.7579 42.3906 33.6508 43.0469 30.4501H44.2992C46.2474 30.4501 47.8325 28.8651 47.8325 26.9169V24.7874C47.8325 23.2057 46.7877 21.8633 45.3495 21.4143V18.3267C45.7767 18.038 46.0712 17.5846 46.1577 17.0756L46.93 12.5341L51.6296 10.7501V12.2908C50.7678 12.4161 50.078 13.1047 49.9748 13.9929L49.4184 18.7908C49.2849 19.9439 50.1858 20.9643 51.3545 20.9643H54.0137C55.1747 20.9643 56.0846 19.9516 55.9498 18.7905L55.3934 13.9929C55.2903 13.1049 54.6005 12.4161 53.7387 12.2908V8.98119C53.7387 8.97993 53.7388 8.9788 53.7388 8.97754C53.7387 8.38733 53.382 7.87068 52.8304 7.66143L47.0597 5.47091C46.5148 5.26391 45.906 5.53813 45.6993 6.08263C45.4925 6.62727 45.7665 7.23632 46.311 7.44304L50.3548 8.97796L46.0909 10.5966C45.9359 10.4978 45.7648 10.4194 45.5789 10.3678C35.8026 7.65664 26.2982 7.65693 16.5228 10.3678C16.3369 10.4192 16.1656 10.4978 16.0107 10.5966L11.7468 8.97796L28.7074 2.53972C30.2183 1.96597 31.8831 1.96583 33.3946 2.53972L41.6954 5.69071C42.2403 5.89785 42.8489 5.62349 43.0558 5.07899C43.2625 4.53435 42.9886 3.9253 42.4441 3.71858L34.1433 0.567738C32.1489 -0.189246 29.9528 -0.189246 27.9587 0.567738L9.27162 7.66128C8.71967 7.87068 8.36305 8.38733 8.36305 8.97754C8.36291 9.56774 8.71939 10.0847 9.27148 10.2943L15.172 12.5341L15.9444 17.0754C16.0309 17.5845 16.3254 18.038 16.7526 18.3266V21.4134C15.3155 21.8617 14.2696 23.2047 14.2696 24.7873V26.9168C14.2696 28.8649 15.8546 30.45 17.8029 30.45H19.0555C19.6579 33.4702 21.0995 35.5506 23.2551 37.1738V38.6542C22.2318 39.089 20.3408 40.0631 18.7645 41.8319C18.4383 42.1979 18.2067 42.6202 18.0688 43.066C18.0184 43.0777 15.934 43.4194 14.2379 44.1127C6.00983 47.1979 0.341797 55.1332 0.341797 64.1592V66.619C0.341797 69.5861 2.75577 72 5.72281 72H56.1214C59.0885 72 61.5024 69.5861 61.5024 66.619V64.1592C61.5024 55.1329 55.8342 47.1976 47.606 44.1127ZM53.3147 14.378L53.8339 18.855H51.5345L52.0537 14.378H53.3147ZM39.1025 41.2802C39.8598 41.7316 40.7345 42.371 41.5048 43.2353C41.8761 43.6521 41.915 44.2625 41.6155 44.7127C41.6152 44.7133 41.615 44.7139 41.6145 44.7144C41.6119 44.7184 41.6093 44.7223 41.6068 44.7264L37.4532 50.9285C37.453 50.9288 37.4527 50.9291 37.4526 50.9293C37.095 51.4633 36.3879 51.6146 35.8434 51.2742C34.8388 50.6464 33.2999 49.685 32.6857 49.3012L37.4667 45.0713C38.5634 44.1007 39.1429 42.6973 39.1025 41.2802ZM35.7737 53.4913C35.428 54.0328 34.9258 54.8197 34.1966 55.9627L33.5187 54.0043L34.3697 52.8404C34.6003 52.967 35.0213 53.326 35.7737 53.4913ZM36.8116 40.4328C37.2263 41.5023 36.9279 42.7315 36.0688 43.4914L30.9221 48.0448L25.7755 43.4914C24.9164 42.7315 24.6179 41.5024 25.0327 40.433C25.1898 39.9454 25.3645 39.7324 25.3645 39.3801V38.4854C28.8006 40.199 32.875 40.3078 36.4796 38.6083V39.3801C36.4796 39.6502 36.5645 39.7888 36.8116 40.4328ZM30.9221 50.6865L32.5759 51.7198L31.8059 52.7728H30.0383L29.2684 51.7198L30.9221 50.6865ZM30.254 54.8822H31.5904L32.7494 58.231C32.4625 58.6807 32.1545 59.1634 31.8225 59.6838C31.4039 60.3455 30.4443 60.3515 30.0199 59.6804C29.6885 59.1613 29.3814 58.6798 29.0951 58.231L30.254 54.8822ZM43.24 21.2541H42.0391C41.4206 21.2541 40.8547 20.7996 40.8547 20.1413V17.9227C41.6481 18.0789 42.4431 18.2537 43.24 18.4476V21.2541ZM45.723 24.7874V26.9169C45.723 27.702 45.0842 28.3408 44.2991 28.3408H43.3096C43.3469 27.6153 43.3167 28.5642 43.3279 23.3635H44.2947C44.2954 23.3635 44.2961 23.3633 44.297 23.3633C44.2978 23.3633 44.2984 23.3635 44.2992 23.3635C45.0842 23.3635 45.723 24.0023 45.723 24.7874ZM44.8222 12.3471L44.1175 16.4904C35.3622 14.2991 26.81 14.2812 17.9843 16.4903L17.2797 12.3471C26.544 9.81186 35.5574 9.81186 44.8222 12.3471ZM17.8029 28.3409C17.0178 28.3409 16.379 27.7022 16.379 26.9171V24.7876C16.379 24.0025 17.0178 23.3636 17.8029 23.3636H17.8073H18.7779C18.794 28.4368 18.7607 27.5386 18.8008 28.3409H17.8029ZM18.862 21.2541V18.4475C19.6589 18.2536 20.4538 18.0786 21.2473 17.9226C21.2458 20.2894 21.2503 20.1509 21.2433 20.2427C21.1987 20.8099 20.6801 21.2541 20.063 21.2541C20.0411 21.2541 18.7821 21.2541 18.862 21.2541ZM20.8905 27.8503L20.8873 23.2573C22.2153 22.9194 23.2374 21.7903 23.3461 20.4087C23.3646 20.1742 23.3531 20.2641 23.3566 17.5513C28.5036 16.7528 33.5983 16.7528 38.7455 17.5514C38.749 20.2334 38.7375 20.1751 38.756 20.4082C38.8649 21.7914 39.8888 22.9213 41.2187 23.2581C41.2191 29.442 41.2067 27.5229 41.2194 27.8986C40.8824 40.9552 21.1827 40.9921 20.8905 27.8503ZM20.3394 43.2353C21.1096 42.3709 21.9844 41.7315 22.7417 41.2801C22.7015 42.697 23.2808 44.1007 24.3778 45.0713L29.1588 49.3012C28.5133 49.7017 27.6564 50.2358 26.0011 51.2742C25.4567 51.6145 24.7499 51.4633 24.3922 50.9298L20.2377 44.7264C20.235 44.7223 20.2324 44.7184 20.2297 44.7143C20.2294 44.7139 20.2291 44.7133 20.2288 44.7129C19.9354 44.2719 19.9611 43.6599 20.3394 43.2353ZM28.3255 54.0044L27.6477 55.9629C26.9182 54.8197 26.4161 54.0328 26.0704 53.4913C26.8213 53.3263 27.2359 52.9714 27.4745 52.8407L28.3255 54.0044ZM59.393 66.619C59.393 68.4231 57.9255 69.8907 56.1214 69.8907H50.6469V62.6507C50.6469 62.0681 50.1748 61.596 49.5922 61.596C49.0096 61.596 48.5375 62.0681 48.5375 62.6507V69.8907H13.3067V62.6507C13.3067 62.0681 12.8346 61.596 12.252 61.596C11.6694 61.596 11.1973 62.0681 11.1973 62.6507V69.8907H5.72281C3.91873 69.8907 2.45117 68.4231 2.45117 66.619V64.1592C2.45117 56.3054 7.21175 49.3678 14.213 46.3939L17.3796 51.4152C17.5802 51.7333 17.9226 51.9074 18.2727 51.9074C18.465 51.9074 18.6597 51.8548 18.8344 51.7447C19.327 51.4341 19.4747 50.7827 19.1639 50.2899L16.2458 45.6627C17.2441 45.3657 17.9288 45.2467 18.1282 45.203C18.5084 46.2409 18.0046 44.77 28.2394 60.8116C29.4875 62.785 32.3608 62.7787 33.603 60.815C41.6206 48.2473 43.3529 45.8999 43.367 45.8886C43.51 45.6742 43.6394 45.4125 43.7162 45.2028C43.9327 45.2502 44.5688 45.3561 45.5986 45.6624L35.3487 61.9154C33.311 65.1464 28.5326 65.1455 26.4957 61.9154L21.795 54.4616C21.4843 53.9688 20.833 53.8214 20.3402 54.1321C19.8476 54.4427 19.7 55.0941 20.0107 55.5868L24.7114 63.0407C27.5768 67.584 34.2674 67.5841 37.1327 63.0407L47.631 46.3935C54.6323 49.3674 59.3929 56.305 59.3929 64.1589V66.619H59.393Z" fill="#F49040"/>
</svg>
