<svg width="169" height="177" viewBox="0 0 169 177" fill="none" xmlns="http://www.w3.org/2000/svg">
<path fill-rule="evenodd" clip-rule="evenodd" d="M151.674 108.295C150.698 107.335 149.146 107.35 148.178 108.312C136.575 119.473 124.358 125.149 111.901 125.291C99.7719 125.428 87.5179 120.166 75.4954 109.74C72.823 107.465 68.6922 102.727 65.0585 97.1325C68.1074 92.7469 70.1392 87.5534 71.1423 82.5498C72.622 75.16 71.5446 68.3652 69.106 65C67.7547 63.1365 66.0123 61.9946 63.975 61.5185C61.3673 60.9129 57.824 61.4532 53.7572 64.9026C48.1464 69.6842 46.7826 76.5115 48.4588 84.0253C49.3441 87.9753 51.1314 92.1204 53.3578 96.1039C50.7816 98.1603 47.5765 99.3499 43.6759 98.9216C35.4192 98.071 29.2283 91.2911 24.8248 83.3142C21.0058 76.4133 16.405 66.2187 17.6212 58.1181C18.0329 55.3653 19.2372 52.9994 16.9652 50.7496C13.4868 47.2686 10.2983 50.8719 9.72751 54.6529C8.50552 62.7752 11.4006 72.5593 14.258 80.0521C19.5018 93.8409 29.3423 106.243 42.6295 107.952C48.8586 108.725 54.1442 107.069 58.4256 103.991C62.4894 109.631 66.8723 114.297 69.7481 116.639C83.9775 127.993 98.2982 133.274 112.154 132.47C125.996 131.675 139.421 124.879 151.692 111.791C152.652 110.815 152.651 109.255 151.674 108.295ZM59.3796 86.1834C58.5155 83.8918 57.9316 81.6404 57.7604 79.4995C57.5471 76.7771 58.0723 74.2525 60.1941 72.4584C60.5536 72.159 60.9915 71.741 61.351 71.4416C61.6215 72.387 62.0893 74.2465 62.0961 75.7846C62.0956 79.2179 61.3151 83.3035 59.7486 87.1086C59.6012 86.7898 59.4835 86.4906 59.3796 86.1834Z" fill="#1F6A75"/>
<path fill-rule="evenodd" clip-rule="evenodd" d="M61.6772 71.1805C61.9203 71.3155 62.1534 71.4013 62.1348 71.21C62.1061 70.9696 61.9446 71.0078 61.6772 71.1805Z" fill="#1F6A75"/>
<path fill-rule="evenodd" clip-rule="evenodd" d="M144.876 113.724C143.745 116.25 142.653 118.936 141.874 121.498C140.675 125.494 140.161 129.151 141.147 131.813C141.454 133.14 142.793 133.965 144.113 133.643C145.441 133.336 146.265 131.997 145.943 130.677C145.875 130.019 146.105 129.335 146.322 128.567C146.819 126.757 147.931 124.866 149.141 122.828C150.687 120.228 152.547 117.63 154.133 115.227C155.577 113.053 156.781 111.037 157.547 109.438C158.756 106.922 158.822 104.81 158.548 103.573C158.472 103.249 155.79 98.4457 151.204 100.359C149.564 101.049 145.501 103.009 145.3 103.107C142.859 104.443 138.324 106.859 134.005 108.123C132.64 108.525 131.322 108.882 130.122 108.933C130.058 108.823 129.994 108.713 129.917 108.61C128.796 107.018 126.615 106.643 125.015 107.751C124.128 108.281 122.971 109.775 122.661 110.67C122.068 112.408 122.729 113.807 124.351 114.963C126.56 116.533 129.757 116.982 133.351 116.688C137.128 116.362 141.407 115.029 144.876 113.724ZM148.865 105.657C149.133 105.135 149.224 104.752 148.863 104.667C148.458 104.57 148.727 105.259 148.865 105.657Z" fill="#1F6A75"/>
</svg>
