<svg width="22" height="20" viewBox="0 0 22 20" fill="none" xmlns="http://www.w3.org/2000/svg">
<path fill-rule="evenodd" clip-rule="evenodd" d="M3.42987 1.56558C3.9274 1.09674 4.60219 0.833344 5.3058 0.833344H12.3804C12.6149 0.833344 12.8398 0.921141 13.0057 1.07742L18.3116 6.07742C18.4775 6.2337 18.5706 6.44566 18.5706 6.66668V16.6667C18.5706 17.3297 18.2911 17.9656 17.7936 18.4344C17.2961 18.9033 16.6213 19.1667 15.9177 19.1667H5.3058C4.60219 19.1667 3.9274 18.9033 3.42987 18.4344C2.93234 17.9656 2.65283 17.3297 2.65283 16.6667V3.33334C2.65283 2.6703 2.93234 2.03442 3.42987 1.56558ZM5.3058 2.50001C5.07126 2.50001 4.84633 2.58781 4.68049 2.74409C4.51465 2.90037 4.42148 3.11233 4.42148 3.33334V16.6667C4.42148 16.8877 4.51465 17.0996 4.68049 17.2559C4.84633 17.4122 5.07126 17.5 5.3058 17.5H15.9177C16.1522 17.5 16.3771 17.4122 16.543 17.2559C16.7088 17.0996 16.802 16.8877 16.802 16.6667V7.01185L12.0141 2.50001H5.3058Z" fill="#F49040"/>
<path fill-rule="evenodd" clip-rule="evenodd" d="M12.3804 0.833344C12.8688 0.833344 13.2647 1.20644 13.2647 1.66668V5.83334H17.6863C18.1747 5.83334 18.5707 6.20644 18.5707 6.66668C18.5707 7.12691 18.1747 7.50001 17.6863 7.50001H12.3804C11.892 7.50001 11.4961 7.12691 11.4961 6.66668V1.66668C11.4961 1.20644 11.892 0.833344 12.3804 0.833344Z" fill="#F49040"/>
<path fill-rule="evenodd" clip-rule="evenodd" d="M6.19043 10.8333C6.19043 10.3731 6.58635 10 7.07475 10H14.1493C14.6377 10 15.0337 10.3731 15.0337 10.8333C15.0337 11.2936 14.6377 11.6667 14.1493 11.6667H7.07475C6.58635 11.6667 6.19043 11.2936 6.19043 10.8333Z" fill="#F49040"/>
<path fill-rule="evenodd" clip-rule="evenodd" d="M6.19043 14.1667C6.19043 13.7064 6.58635 13.3333 7.07475 13.3333H14.1493C14.6377 13.3333 15.0337 13.7064 15.0337 14.1667C15.0337 14.6269 14.6377 15 14.1493 15H7.07475C6.58635 15 6.19043 14.6269 6.19043 14.1667Z" fill="#F49040"/>
<path fill-rule="evenodd" clip-rule="evenodd" d="M6.19043 7.49999C6.19043 7.03975 6.58635 6.66666 7.07475 6.66666H8.8434C9.33179 6.66666 9.72772 7.03975 9.72772 7.49999C9.72772 7.96023 9.33179 8.33332 8.8434 8.33332H7.07475C6.58635 8.33332 6.19043 7.96023 6.19043 7.49999Z" fill="#F49040"/>
</svg>
