<svg width="19" height="17" viewBox="0 0 19 17" fill="none" xmlns="http://www.w3.org/2000/svg">
<path d="M0 8.5C0 9.05228 0.447715 9.5 1 9.5H1.75C2.30228 9.5 2.75 9.05228 2.75 8.5V7.75C2.75 7.19772 2.30228 6.75 1.75 6.75H1C0.447715 6.75 0 7.19772 0 7.75V8.5ZM0 15.25C0 15.8023 0.447715 16.25 1 16.25H1.75C2.30228 16.25 2.75 15.8023 2.75 15.25V14.5C2.75 13.9477 2.30228 13.5 1.75 13.5H1C0.447715 13.5 0 13.9477 0 14.5V15.25ZM0 1.75C0 2.30228 0.447715 2.75 1 2.75H1.75C2.30228 2.75 2.75 2.30228 2.75 1.75V1C2.75 0.447715 2.30228 0 1.75 0H1C0.447715 0 0 0.447715 0 1V1.75ZM4.75 8.5C4.75 9.05228 5.19772 9.5 5.75 9.5H17.5C18.0523 9.5 18.5 9.05228 18.5 8.5V7.75C18.5 7.19772 18.0523 6.75 17.5 6.75H5.75C5.19772 6.75 4.75 7.19772 4.75 7.75V8.5ZM4.75 15.25C4.75 15.8023 5.19772 16.25 5.75 16.25H17.5C18.0523 16.25 18.5 15.8023 18.5 15.25V14.5C18.5 13.9477 18.0523 13.5 17.5 13.5H5.75C5.19772 13.5 4.75 13.9477 4.75 14.5V15.25ZM5.75 0C5.19772 0 4.75 0.447715 4.75 1V1.75C4.75 2.30228 5.19772 2.75 5.75 2.75H17.5C18.0523 2.75 18.5 2.30228 18.5 1.75V1C18.5 0.447715 18.0523 0 17.5 0H5.75Z" fill="#CED4D3"/>
</svg>
