<svg width="96" height="72" viewBox="0 0 96 72" fill="none" xmlns="http://www.w3.org/2000/svg">
<path d="M89.222 0.666626H6.77756C5.21573 0.666626 3.71787 1.28706 2.61349 2.39144C1.50911 3.49582 0.888672 4.99368 0.888672 6.55552V65.4444C0.888672 67.0062 1.50911 68.5041 2.61349 69.6085C3.71787 70.7129 5.21573 71.3333 6.77756 71.3333H89.222C90.7838 71.3333 92.2817 70.7129 93.3861 69.6085C94.4905 68.5041 95.1109 67.0062 95.1109 65.4444V6.55552C95.1109 4.99368 94.4905 3.49582 93.3861 2.39144C92.2817 1.28706 90.7838 0.666626 89.222 0.666626ZM84.6876 65.4444H11.6653L32.2764 44.1266L28.0364 40.0339L6.77756 62.0289V11.0311L43.377 47.4538C44.4804 48.5507 45.9729 49.1663 47.5287 49.1663C49.0844 49.1663 50.577 48.5507 51.6803 47.4538L89.222 10.1183V61.6461L67.5509 39.975L63.3992 44.1266L84.6876 65.4444ZM10.6348 6.55552H84.452L47.5287 43.2727L10.6348 6.55552Z" fill="#F49040"/>
</svg>
