<svg width="105" height="105" viewBox="0 0 105 105" fill="none" xmlns="http://www.w3.org/2000/svg">
<path d="M65.625 65.625H83.125L96.25 96.25H8.75L21.875 65.625H39.375M56.875 35C56.875 36.1603 56.4141 37.2731 55.5936 38.0936C54.7731 38.9141 53.6603 39.375 52.5 39.375C51.3397 39.375 50.2269 38.9141 49.4064 38.0936C48.5859 37.2731 48.125 36.1603 48.125 35C48.125 33.8397 48.5859 32.7269 49.4064 31.9064C50.2269 31.0859 51.3397 30.625 52.5 30.625C53.6603 30.625 54.7731 31.0859 55.5936 31.9064C56.4141 32.7269 56.875 33.8397 56.875 35ZM26.25 35C26.25 56.875 52.5 78.75 52.5 78.75C52.5 78.75 78.75 56.875 78.75 35C78.75 20.0506 66.9987 8.75 52.5 8.75C38.0013 8.75 26.25 20.0506 26.25 35Z" stroke="#F49040" stroke-width="6"/>
</svg>
