<svg width="85" height="412" viewBox="0 0 85 412" fill="none" xmlns="http://www.w3.org/2000/svg">
<path fill-rule="evenodd" clip-rule="evenodd" d="M34.7699 12.1223C23.1439 15.6502 16.5791 27.9348 20.107 39.5608C20.989 42.4673 19.3478 45.5384 16.4413 46.4204C13.5348 47.3024 10.4637 45.6612 9.58168 42.7547C4.28987 25.3158 14.137 6.88885 31.576 1.59703C34.4825 0.715058 37.5536 2.35625 38.4356 5.26274C39.3175 8.16923 37.6763 11.2404 34.7699 12.1223Z" fill="white" fill-opacity="0.5"/>
<path fill-rule="evenodd" clip-rule="evenodd" d="M49.9115 12.1233C61.5375 15.6512 68.1023 27.9358 64.5744 39.5618C63.6924 42.4682 65.3336 45.5394 68.2401 46.4214C71.1466 47.3033 74.2177 45.6621 75.0997 42.7557C80.3915 25.3167 70.5444 6.88982 53.1054 1.598C50.1989 0.716035 47.1278 2.35723 46.2458 5.26372C45.3639 8.1702 47.005 11.2414 49.9115 12.1233Z" fill="white" fill-opacity="0.5"/>
<path fill-rule="evenodd" clip-rule="evenodd" d="M27.2468 51.748C35.8378 60.339 49.7665 60.339 58.3574 51.748C60.5051 49.6003 63.9873 49.6003 66.135 51.748C68.2828 53.8957 68.2828 57.3779 66.135 59.5256C60.1086 65.5521 52.3312 68.7602 44.4404 69.15V87.5224C44.4404 88.5349 43.6197 89.3556 42.6072 89.3556C41.5948 89.3556 40.774 88.5349 40.774 87.5224V69.1285C33.0173 68.6537 25.3963 65.4528 19.4692 59.5256C17.3215 57.3779 17.3215 53.8957 19.4692 51.748C21.6169 49.6003 25.0991 49.6003 27.2468 51.748Z" fill="white" fill-opacity="0.5"/>
<path d="M43.5239 162.684L43.5239 236.012" stroke="white" stroke-opacity="0.5" stroke-width="3" stroke-linecap="round"/>
<path d="M43.5239 302.007L43.5239 375.336" stroke="white" stroke-opacity="0.5" stroke-width="3" stroke-linecap="round"/>
<circle cx="43.9969" cy="269.482" r="7.33283" fill="white" fill-opacity="0.5"/>
<circle cx="43.9969" cy="126.493" r="7.33283" fill="white" fill-opacity="0.5"/>
<circle cx="43.524" cy="404.668" r="7.33283" fill="white" fill-opacity="0.5"/>
</svg>
