<svg width="82" height="99" viewBox="0 0 82 99" fill="none" xmlns="http://www.w3.org/2000/svg">
<path fill-rule="evenodd" clip-rule="evenodd" d="M11.815 40C11.815 24.3829 24.6626 11.6393 40.6147 11.6393C56.5669 11.6393 69.4145 24.3829 69.4145 40C69.4145 55.6171 56.5669 68.3607 40.6147 68.3607C24.6626 68.3607 11.815 55.6171 11.815 40ZM40.6147 0C18.2938 0 0.114746 17.8625 0.114746 40C0.114746 61.5257 17.3029 79.0095 38.7741 79.9594V96.5215C38.7741 97.534 39.5948 98.3548 40.6073 98.3548C41.6197 98.3548 42.4405 97.534 42.4405 96.5215V79.96C63.9186 79.0176 81.1147 61.5307 81.1147 40C81.1147 17.8625 62.9357 0 40.6147 0Z" fill="white" fill-opacity="0.35"/>
</svg>
