<svg width="117" height="141" viewBox="0 0 117 141" fill="none" xmlns="http://www.w3.org/2000/svg">
<path fill-rule="evenodd" clip-rule="evenodd" d="M10.8588 122.423C11.1967 121.096 12.5319 120.305 13.8585 120.627C29.5646 124.162 42.9553 122.688 53.6838 116.357C64.1295 110.19 71.8849 99.3413 76.7673 84.1953C77.8742 80.8644 78.9529 74.6717 79.1629 68.0042C74.283 65.8325 69.8547 62.4428 66.4045 58.6827C61.3106 53.1283 58.7121 46.7583 59.0546 42.6165C59.245 40.3225 60.1438 38.4431 61.6397 36.9805C63.5565 35.1116 66.8672 33.7381 72.1327 34.5818C79.409 35.765 84.1124 40.8982 86.5713 48.1935C87.8603 52.0307 88.4789 56.5022 88.6382 61.0628C91.9071 61.4872 95.2649 60.8444 98.3794 58.4573C105.001 53.4523 106.784 44.4459 106.418 35.3416C106.11 27.4605 104.764 16.3571 99.5269 10.0583C97.7486 7.91698 95.4929 6.51718 96.2707 3.41582C97.4426 -1.36356 102.037 0.0667093 104.484 3.00502C109.737 9.31938 112.329 19.188 113.767 27.0773C116.425 41.588 114.432 57.2936 103.953 65.6395C99.025 69.5277 93.6459 70.8491 88.3895 70.4345C87.8351 77.3637 86.5034 83.6253 85.2568 87.1182C78.968 104.202 69.4543 116.137 57.1866 122.628C44.9349 129.119 29.9311 130.261 12.6551 125.423C11.3281 125.085 10.5209 123.75 10.8588 122.423ZM78.3481 55.697C77.9001 53.2892 77.2331 51.061 76.2705 49.1411C75.0426 46.702 73.2856 44.8146 70.5412 44.3792C70.0786 44.3094 69.4875 44.1787 69.0249 44.1089C69.2833 45.0576 69.8465 46.8905 70.6375 48.2097C72.4165 51.1461 75.2006 54.2364 78.5119 56.6795C78.4727 56.3305 78.4184 56.0136 78.3481 55.697Z" fill="#F49040"/>
<path fill-rule="evenodd" clip-rule="evenodd" d="M68.6104 44.0547C68.4724 44.2961 68.3174 44.4902 68.2343 44.317C68.1342 44.0965 68.2922 44.0455 68.6104 44.0547Z" fill="#F49040"/>
<path fill-rule="evenodd" clip-rule="evenodd" d="M19.4864 123.546C21.7616 125.12 24.0879 126.852 26.0814 128.639C29.1774 131.437 31.5114 134.298 32.047 137.085C32.4717 138.38 31.7536 139.779 30.4582 140.188C29.1631 140.613 27.7645 139.895 27.3557 138.599C27.0728 138.001 26.5224 137.535 25.9385 136.991C24.5756 135.7 22.6455 134.659 20.5548 133.542C17.8851 132.119 14.9486 130.86 12.3465 129.627C9.98558 128.516 7.91109 127.414 6.42772 126.443C4.08988 124.918 2.93956 123.145 2.53273 121.945C2.43069 121.629 2.23584 116.131 7.15006 115.392C8.90977 115.132 13.4011 114.704 13.6233 114.684C16.4037 114.562 21.5342 114.279 25.8831 113.123C27.259 112.76 28.571 112.382 29.6243 111.804C29.6216 111.677 29.619 111.549 29.6322 111.422C29.7664 109.479 31.4375 108.029 33.38 108.147C34.4136 108.141 36.1771 108.82 36.9054 109.425C38.3136 110.604 38.4731 112.143 37.6846 113.972C36.6077 116.46 34.1061 118.5 30.8799 120.11C27.4801 121.788 23.1296 122.865 19.4864 123.546ZM11.895 118.712C11.3956 118.404 11.1193 118.124 11.3842 117.864C11.6802 117.571 11.8068 118.3 11.895 118.712Z" fill="#F49040"/>
</svg>
