<svg width="83" height="83" viewBox="0 0 83 83" fill="none" xmlns="http://www.w3.org/2000/svg">
<path d="M23 3.25C25.1875 3.25 33.9375 23.125 33.9375 25.3333C33.9375 29.75 27.375 34.1667 25.1875 38.5833C23 43 27.375 47.4167 31.75 51.8333C33.4562 53.5558 40.5 60.6667 44.875 58.4583C49.25 56.25 53.625 49.625 58 49.625C60.1875 49.625 79.875 58.4583 79.875 60.6667C79.875 69.5 73.3125 76.125 66.75 78.3333C60.1875 80.5417 55.8125 80.5417 47.0625 78.3333C38.3125 76.125 31.75 73.9167 20.8125 62.875C9.875 51.8333 7.6875 45.2083 5.5 36.375C3.3125 27.5417 3.3125 23.125 5.5 16.5C7.6875 9.875 14.25 3.25 23 3.25Z" stroke="#F49040" stroke-width="6" stroke-linecap="round" stroke-linejoin="round"/>
<path d="M49.25 21.0934C52.1375 22.4626 54.7625 24.3175 56.95 26.57C59.0938 28.7342 60.8875 31.3401 62.2 34.1667" stroke="#F49040" stroke-width="6" stroke-linecap="round" stroke-linejoin="round"/>
<path d="M53.625 4.35413C59.7937 5.98829 65.3063 9.21246 69.6813 13.6291C74.0125 18.0458 77.2062 23.5666 78.7812 29.75" stroke="#F49040" stroke-width="6" stroke-linecap="round" stroke-linejoin="round"/>
</svg>
