<?xml version="1.0" encoding="UTF-8"?>
<svg version="1.1" xmlns="http://www.w3.org/2000/svg" width="180" height="88">
<path d="M0 0 C0.99 0.33 1.98 0.66 3 1 C3.70173653 5.38585329 4.10834375 9.55790643 4 14 C4.804375 14.020625 5.60875 14.04125 6.4375 14.0625 C12.36407808 15.62212581 16.74522151 19.74086866 21.0234375 24.02734375 C22.92471509 25.92486387 24.90914894 27.56751829 27 29.25 C33.01537739 34.49245181 35.34623899 40.15486789 36 48 C39.96 48.33 43.92 48.66 48 49 C48.33 49.99 48.66 50.98 49 52 C46.69 52.99 44.38 53.98 42 55 C42.66 55.33 43.32 55.66 44 56 C44 56.66 44 57.32 44 58 C42.69417053 59.03565785 41.35622245 60.03126968 40 61 C39.525625 61.495 39.05125 61.99 38.5625 62.5 C33.90835287 66.96798125 29.74008391 67.54639856 23.5625 67.5625 C22.82451172 67.59923828 22.08652344 67.63597656 21.32617188 67.67382812 C18.02164661 67.70026433 15.84449027 67.62064417 13.12841797 65.62451172 C11.46484375 63.96484375 11.46484375 63.96484375 9 61 C9.66 62.98 10.32 64.96 11 67 C4.4 67 -2.2 67 -9 67 C-8.34 65.68 -7.68 64.36 -7 63 C-6.67 62.01 -6.34 61.02 -6 60 C-6.23589844 60.5053125 -6.47179687 61.010625 -6.71484375 61.53125 C-8.278886 64.0497078 -9.4898777 65.37224814 -12 67 C-19.3758358 68.21084792 -27.45677269 68.58606449 -34.0625 64.625 C-35.031875 63.75875 -36.00125 62.8925 -37 62 C-37 61.34 -37 60.68 -37 60 C-38.65 59.34 -40.3 58.68 -42 58 C-42 57.34 -42 56.68 -42 56 C-40.515 55.505 -40.515 55.505 -39 55 C-41.64 54.01 -44.28 53.02 -47 52 C-47 51.34 -47 50.68 -47 50 C-37.58997722 47.70387244 -37.58997722 47.70387244 -33 48 C-32.8453125 46.205625 -32.8453125 46.205625 -32.6875 44.375 C-31.90340113 38.2002214 -29.19604074 33.55570138 -25 29 C-19.59459459 25 -19.59459459 25 -17 25 C-16.74734375 24.40574219 -16.4946875 23.81148437 -16.234375 23.19921875 C-14.11009434 19.41450353 -10.67597989 17.19878056 -7 15 C-3.5 14.125 -3.5 14.125 -1 14 C-1.18433594 13.44828125 -1.36867187 12.8965625 -1.55859375 12.328125 C-2.0918802 9.51539295 -1.68538146 7.53464653 -1.0625 4.75 C-0.86785156 3.85796875 -0.67320313 2.9659375 -0.47265625 2.046875 C-0.23869141 1.03367188 -0.23869141 1.03367188 0 0 Z M1 9 C2 12 2 12 2 12 Z M8 20 C10.66723508 23.69379978 13.272591 27.272591 16.5 30.5 C21.34868675 35.34868675 25.31011289 40.24045156 27 47 C27.33 47 27.66 47 28 47 C27.54878298 40.45735328 26.47868461 36.14939165 21.390625 31.54296875 C20.20484366 30.54869634 19.01063204 29.56439953 17.80859375 28.58984375 C15.32050397 26.40268924 13.31116944 23.91441173 11.26171875 21.3203125 C10.84535156 20.88460938 10.42898437 20.44890625 10 20 C9.34 20 8.68 20 8 20 Z M3 23 C3.58037966 28.22341698 7.80928585 30.92835726 11.5 34.25 C14.73967052 37.81363757 16.81508573 41.73244405 19 46 C19.66 46 20.32 46 21 46 C19.47963077 40.55201027 17.15839661 37.15839661 13.1875 33.1875 C10.46017908 30.46017908 7.98914952 27.54401271 5.48828125 24.609375 C4.99714844 24.07828125 4.50601563 23.5471875 4 23 C3.67 23 3.34 23 3 23 Z M-11 24 C-11.721875 24.721875 -12.44375 25.44375 -13.1875 26.1875 C-14.94819401 27.94819401 -16.7362605 29.68238778 -18.5625 31.375 C-22.86959193 36.01340669 -25.37345383 40.57790177 -26 47 C-25.34 47 -24.68 47 -24 47 C-23.649375 45.845 -23.29875 44.69 -22.9375 43.5 C-21.02669922 38.35903601 -17.70070662 34.94461683 -14 31 C-12.65407903 29.34348188 -11.3140151 27.68193932 -10 26 C-10.33 25.34 -10.66 24.68 -11 24 Z M-2 24 C-6.33574025 26.96655912 -7.40385241 29.10514738 -9 34 C-10.875 35.0625 -10.875 35.0625 -13 36 C-16.0379639 39.21156184 -17.49607061 41.59061785 -18 46 C-17.34 46 -16.68 46 -16 46 C-15.65388672 45.20335937 -15.65388672 45.20335937 -15.30078125 44.390625 C-13.13639435 39.70254587 -11.20241547 37.12487304 -7 34 C-5.9590934 32.35857037 -4.95495674 30.69287785 -4 29 C-2.3125 27.1875 -2.3125 27.1875 -1 26 C-1.33 25.34 -1.66 24.68 -2 24 Z M6 57 C6.33 57.99 6.66 58.98 7 60 C7 59.01 7 58.02 7 57 C6.67 57 6.34 57 6 57 Z " fill="#B7932C" transform="translate(89,0)"/>
<path d="M0 0 C1.01295387 -0.01270432 1.01295387 -0.01270432 2.04637146 -0.02566528 C4.27337602 -0.04901862 6.49968902 -0.05005793 8.72680664 -0.04882812 C10.27853165 -0.0559307 11.83025404 -0.06362985 13.38197327 -0.07189941 C16.63265282 -0.0853403 19.88308952 -0.08691482 23.13378906 -0.08105469 C27.29480841 -0.07515844 31.454661 -0.10574717 35.61545467 -0.14617157 C38.81973014 -0.17205044 42.02372472 -0.17492589 45.22809029 -0.17127991 C46.76187638 -0.17297097 48.29567546 -0.18261239 49.82935905 -0.20042419 C51.97687214 -0.22262081 54.12202463 -0.21291305 56.26953125 -0.1953125 C58.10009315 -0.19839417 58.10009315 -0.19839417 59.96763611 -0.20153809 C64.11256575 0.59550581 65.58442462 2.17851915 68.19946289 5.41992188 C69.12524414 8.17382812 69.12524414 8.17382812 69.51196289 10.98242188 C69.6524707 11.91183594 69.79297852 12.84125 69.93774414 13.79882812 C70.19946289 16.41992188 70.19946289 16.41992188 70.19946289 20.41992188 C42.47946289 20.41992188 14.75946289 20.41992188 -13.80053711 20.41992188 C-12.05540041 4.71369162 -12.05540041 4.71369162 -9.15135193 1.71960449 C-5.98534309 -0.03077015 -3.61204188 0.02493522 0 0 Z " fill="#111F53" transform="translate(61.800537109375,67.580078125)"/>
<path d="M0 0 C0.99 0.33 1.98 0.66 3 1 C3.70173653 5.38585329 4.10834375 9.55790643 4 14 C4.804375 14.020625 5.60875 14.04125 6.4375 14.0625 C13.21140181 15.84510574 18.19319187 21.08439581 23 26 C23.9075 26.9075 24.815 27.815 25.75 28.75 C26.4925 29.4925 27.235 30.235 28 31 C26.39566191 30.52140759 24.79153584 30.04210442 23.1875 29.5625 C22.29417969 29.29566406 21.40085937 29.02882813 20.48046875 28.75390625 C14.98564489 27.08382593 13.50482797 25.45207878 10 21 C10.99 22.32 11.98 23.64 13 25 C9.10949131 26.29683623 7.31471478 25.41347964 3.4375 24.1875 C2.28121094 23.83042969 1.12492187 23.47335938 -0.06640625 23.10546875 C-3 22 -3 22 -5 20 C-8.39458023 22.84675172 -11.74672619 25.67154173 -14.8125 28.875 C-17 31 -17 31 -19 31 C-19.268125 31.53625 -19.53625 32.0725 -19.8125 32.625 C-20.69170616 34.38341232 -21.59061154 36.13200545 -22.5 37.875 C-23.93882189 40.8725456 -25.01799402 43.82736531 -26 47 C-25.34 47 -24.68 47 -24 47 C-23.87625 45.39125 -23.87625 45.39125 -23.75 43.75 C-22.94523098 39.7261549 -22.12270126 38.51830747 -19 36 C-19.33 37.65 -19.66 39.3 -20 41 C-20.66 41 -21.32 41 -22 41 C-22.33 43.31 -22.66 45.62 -23 48 C-24.32 48 -25.64 48 -27 48 C-27.33 47.01 -27.66 46.02 -28 45 C-28.556875 45.639375 -29.11375 46.27875 -29.6875 46.9375 C-32.22066561 49.19680987 -33.68341424 49.63149047 -37 50 C-37 50.99 -37 51.98 -37 53 C-31.9426426 54.42643414 -28.8420469 53.50413137 -24.1484375 51.59375 C-21.69397269 50.91542518 -20.378115 51.1821867 -18 52 C-19 54 -19 54 -22.37890625 55.2890625 C-23.77098377 55.74198724 -25.16566224 56.18697613 -26.5625 56.625 C-27.62887695 56.96917969 -27.62887695 56.96917969 -28.71679688 57.3203125 C-30.47570953 57.88694208 -32.23759039 58.44434258 -34 59 C-31.75882258 60.25698369 -31.75882258 60.25698369 -29 61 C-26.54417534 60.13322255 -26.54417534 60.13322255 -24.3125 58.5625 C-21.98828125 57.06640625 -21.98828125 57.06640625 -20 56 C-19.34 56.33 -18.68 56.66 -18 57 C-19.32 57.66 -20.64 58.32 -22 59 C-22 59.99 -22 60.98 -22 62 C-21.34 62.33 -20.68 62.66 -20 63 C-21.485 63.99 -21.485 63.99 -23 65 C-21.02 65.33 -19.04 65.66 -17 66 C-17 66.33 -17 66.66 -17 67 C-24.28725335 67.546544 -29.55679133 67.53979139 -35.671875 63.2890625 C-36.32929687 62.65097656 -36.32929687 62.65097656 -37 62 C-37 61.34 -37 60.68 -37 60 C-38.65 59.34 -40.3 58.68 -42 58 C-42 57.34 -42 56.68 -42 56 C-40.515 55.505 -40.515 55.505 -39 55 C-41.64 54.01 -44.28 53.02 -47 52 C-47 51.34 -47 50.68 -47 50 C-37.58997722 47.70387244 -37.58997722 47.70387244 -33 48 C-32.8453125 46.205625 -32.8453125 46.205625 -32.6875 44.375 C-31.90340113 38.2002214 -29.19604074 33.55570138 -25 29 C-19.59459459 25 -19.59459459 25 -17 25 C-16.74734375 24.40574219 -16.4946875 23.81148437 -16.234375 23.19921875 C-14.11009434 19.41450353 -10.67597989 17.19878056 -7 15 C-3.5 14.125 -3.5 14.125 -1 14 C-1.18433594 13.44828125 -1.36867187 12.8965625 -1.55859375 12.328125 C-2.0918802 9.51539295 -1.68538146 7.53464653 -1.0625 4.75 C-0.86785156 3.85796875 -0.67320313 2.9659375 -0.47265625 2.046875 C-0.23869141 1.03367188 -0.23869141 1.03367188 0 0 Z M1 9 C2 12 2 12 2 12 Z " fill="#A7A66F" transform="translate(89,0)"/>
<path d="M0 0 C0.26683594 0.54785156 0.53367187 1.09570312 0.80859375 1.66015625 C2.63898014 5.25491509 4.66581935 8.74015675 6.66015625 12.24609375 C7.95439552 14.90626484 8.56964449 17.09020991 9 20 C9.38567131 22.68149993 9.38567131 22.68149993 10 25 C10.66 25.33 11.32 25.66 12 26 C13.2890625 27.99609375 13.2890625 27.99609375 14.625 30.4375 C15.07101563 31.24058594 15.51703125 32.04367188 15.9765625 32.87109375 C17 35 17 35 17 37 C10.4 37 3.8 37 -3 37 C-2.34 35.68 -1.68 34.36 -1 33 C-0.67 32.01 -0.34 31.02 0 30 C-0.28230469 30.51691406 -0.56460938 31.03382812 -0.85546875 31.56640625 C-2.42316962 33.91565887 -3.64866992 35.40460374 -6 37 C-10.44745467 37.32709631 -14.61992192 36.77333723 -19 36 C-17.68 35.01 -16.36 34.02 -15 33 C-15.20625 32.38125 -15.4125 31.7625 -15.625 31.125 C-15.74875 30.42375 -15.8725 29.7225 -16 29 C-15.34 28.34 -14.68 27.68 -14 27 C-14.59167969 27.38414063 -15.18335937 27.76828125 -15.79296875 28.1640625 C-22.29993505 32.13405499 -22.29993505 32.13405499 -25.9375 31.4375 C-28 30 -28 30 -30 28 C-28.845 27.731875 -27.69 27.46375 -26.5 27.1875 C-20.99295322 25.8082929 -15.75711493 24.17140996 -11 21 C-11.66 20.67 -12.32 20.34 -13 20 C-13 18.02 -13 16.04 -13 14 C-12.67 14.66 -12.34 15.32 -12 16 C-11.34 16 -10.68 16 -10 16 C-9.9071875 14.948125 -9.9071875 14.948125 -9.8125 13.875 C-8.69528762 9.92178696 -6.79812617 8.00286711 -4 5 C-3.34 4.67 -2.68 4.34 -2 4 C-0.86649466 1.98330173 -0.86649466 1.98330173 0 0 Z " fill="#834D08" transform="translate(83,30)"/>
<path d="M0 0 C10.67860813 -0.76640728 10.67860813 -0.76640728 15.125 1.8125 C18.43751098 7.44376867 19 13.54676634 19 20 C-8.72 20 -36.44 20 -65 20 C-65 19.67 -65 19.34 -65 19 C-63.02 18.67 -61.04 18.34 -59 18 C-59.165 17.360625 -59.33 16.72125 -59.5 16.0625 C-60.15932515 12.02413348 -60.08003779 8.08192742 -60 4 C-59.34 4 -58.68 4 -58 4 C-58 8.29 -58 12.58 -58 17 C-57.01 17 -56.02 17 -55 17 C-55 14.03 -55 11.06 -55 8 C-52.35247996 10.57784846 -50.05567935 12.91648098 -48 16 C-46.68 16.33 -45.36 16.66 -44 17 C-44 12.05 -44 7.1 -44 2 C-43.67 2 -43.34 2 -43 2 C-43 6.95 -43 11.9 -43 17 C-38.71 17 -34.42 17 -30 17 C-30 16.01 -30 15.02 -30 14 C-32.97 14 -35.94 14 -39 14 C-39 13.01 -39 12.02 -39 11 C-36.69 11 -34.38 11 -32 11 C-32.495 10.01 -32.495 10.01 -33 9 C-36.02934491 8.34227572 -36.02934491 8.34227572 -39 8 C-39 7.01 -39 6.02 -39 5 C-35.535 4.505 -35.535 4.505 -32 4 C-31.68546875 4.85464844 -31.3709375 5.70929688 -31.046875 6.58984375 C-30.61890625 7.69457031 -30.1909375 8.79929687 -29.75 9.9375 C-29.33234375 11.03964844 -28.9146875 12.14179687 -28.484375 13.27734375 C-27.29217133 16.14897458 -27.29217133 16.14897458 -24.828125 16.87890625 C-24.22484375 16.91886719 -23.6215625 16.95882812 -23 17 C-22.67 16.34 -22.34 15.68 -22 15 C-19.525 15.495 -19.525 15.495 -17 16 C-15.68 13.36 -14.36 10.72 -13 8 C-10.36 9.32 -7.72 10.64 -5 12 C-5 12.66 -5 13.32 -5 14 C-7.31 14 -9.62 14 -12 14 C-12.33 14.66 -12.66 15.32 -13 16 C-11.72125 16.020625 -10.4425 16.04125 -9.125 16.0625 C-8.40570313 16.07410156 -7.68640625 16.08570312 -6.9453125 16.09765625 C-4.91814596 16.12649242 -4.91814596 16.12649242 -3 15 C-3 13.35 -3 11.7 -3 10 C-4.98 9.01 -6.96 8.02 -9 7 C-9 6.34 -9 5.68 -9 5 C-8.071875 5.020625 -7.14375 5.04125 -6.1875 5.0625 C-2.97713989 5.15769604 -2.97713989 5.15769604 0 4 C0.495 7.465 0.495 7.465 1 11 C1.66 11 2.32 11 3 11 C3.33 9.68 3.66 8.36 4 7 C4 8.32 4 9.64 4 11 C4.99 11 5.98 11 7 11 C7 8.03 7 5.06 7 2 C5.02 2 3.04 2 1 2 C0.505 1.01 0.505 1.01 0 0 Z " fill="#071139" transform="translate(113,68)"/>
<path d="M0 0 C13.45605701 3.68408551 13.45605701 3.68408551 16.1484375 7.72265625 C18.53632648 12.11738809 19.58628211 16.03538527 20 21 C23.96 21.33 27.92 21.66 32 22 C32.495 23.485 32.495 23.485 33 25 C30.69 25.99 28.38 26.98 26 28 C26.66 28.66 27.32 29.32 28 30 C25.03 30.33 22.06 30.66 19 31 C19 31.99 19 32.98 19 34 C14.78087253 33.5205537 12.20336822 32.83374881 9 30 C11 27 11 27 13 26 C14.13350534 23.98330173 14.13350534 23.98330173 15 22 C13.35 21.67 11.7 21.34 10 21 C9.67 18.69 9.34 16.38 9 14 C9.99 15.485 9.99 15.485 11 17 C9.51695459 10.18726016 7.14942649 6.59739143 1.64453125 2.3125 C1.10183594 1.879375 0.55914062 1.44625 0 1 C0 0.67 0 0.34 0 0 Z " fill="#94864A" transform="translate(105,27)"/>
<path d="M0 0 C0.33 0 0.66 0 1 0 C1 4.95 1 9.9 1 15 C5.29 15 9.58 15 14 15 C14 14.01 14 13.02 14 12 C11.03 12 8.06 12 5 12 C5 11.01 5 10.02 5 9 C7.31 9 9.62 9 12 9 C11.505 8.01 11.505 8.01 11 7 C7.97065509 6.34227572 7.97065509 6.34227572 5 6 C5 5.01 5 4.02 5 3 C8.465 2.505 8.465 2.505 12 2 C12.31453125 2.85464844 12.6290625 3.70929688 12.953125 4.58984375 C13.38109375 5.69457031 13.8090625 6.79929687 14.25 7.9375 C14.66765625 9.03964844 15.0853125 10.14179687 15.515625 11.27734375 C16.70782867 14.14897458 16.70782867 14.14897458 19.171875 14.87890625 C19.77515625 14.91886719 20.3784375 14.95882812 21 15 C21.33 14.34 21.66 13.68 22 13 C24.475 13.495 24.475 13.495 27 14 C28.32 11.36 29.64 8.72 31 6 C33.64 7.32 36.28 8.64 39 10 C39 10.66 39 11.32 39 12 C36.69 12 34.38 12 32 12 C31.67 12.66 31.34 13.32 31 14 C34.3 14.33 37.6 14.66 41 15 C41 15.33 41 15.66 41 16 C28.06134717 17.17663491 15.10714248 17.32797523 2.125 17.5625 C-0.12370433 17.60578796 -2.37240235 17.64940515 -4.62109375 17.69335938 C-10.08066221 17.79936767 -15.5402945 17.90131552 -21 18 C-21 17.67 -21 17.34 -21 17 C-19.02 16.67 -17.04 16.34 -15 16 C-15.165 15.360625 -15.33 14.72125 -15.5 14.0625 C-16.15932515 10.02413348 -16.08003779 6.08192742 -16 2 C-15.34 2 -14.68 2 -14 2 C-14 6.29 -14 10.58 -14 15 C-13.01 15 -12.02 15 -11 15 C-11 12.03 -11 9.06 -11 6 C-8.35247996 8.57784846 -6.05567935 10.91648098 -4 14 C-2.68 14.33 -1.36 14.66 0 15 C0 10.05 0 5.1 0 0 Z " fill="#101E4E" transform="translate(69,70)"/>
<path d="M0 0 C1.46184058 0.22860058 2.91955419 0.48370392 4.375 0.75 C5.59316406 0.95882813 5.59316406 0.95882813 6.8359375 1.171875 C9 2 9 2 10.06640625 3.90234375 C10.52853516 4.94068359 10.52853516 4.94068359 11 6 C12.6818439 7.49007615 12.6818439 7.49007615 14.5625 8.8125 C17.443991 11.18372697 17.95607615 11.85014215 19.0625 15.625 C19.0010799 18.94168544 18.5571289 20.20327437 17 23 C14.87465341 22.85930804 12.74972471 22.71229079 10.625 22.5625 C9.44164063 22.48128906 8.25828125 22.40007813 7.0390625 22.31640625 C4 22 4 22 2 21 C1.67 21.66 1.34 22.32 1 23 C-1.57231219 15.96901335 -2.12996178 9.40782155 -2 2 C2.49740566 4.24870283 4.32127773 6.81449646 7 11 C7.86625 11.825 8.7325 12.65 9.625 13.5 C12.23641673 16.24885972 13.06993184 18.36427901 14 22 C14.66 22 15.32 22 16 22 C13.25748718 16.5383149 10.96986762 12.69554259 6 9 C4.60287726 7.04402816 3.26220093 5.04563599 2 3 C1.34 2.01 0.68 1.02 0 0 Z " fill="#A47113" transform="translate(94,24)"/>
<path d="M0 0 C1.03543945 0.02126953 1.03543945 0.02126953 2.09179688 0.04296875 C6.15533269 0.15851953 10.07259439 0.61323398 14.0625 1.375 C14.0625 1.705 14.0625 2.035 14.0625 2.375 C12.0825 2.375 10.1025 2.375 8.0625 2.375 C8.0625 7.325 8.0625 12.275 8.0625 17.375 C2.0625 17.375 2.0625 17.375 0.1640625 15.625 C-0.56683594 14.51125 -0.56683594 14.51125 -1.3125 13.375 C-2.06660156 12.26125 -2.06660156 12.26125 -2.8359375 11.125 C-3.19945312 10.5475 -3.56296875 9.97 -3.9375 9.375 C-4.2675 12.015 -4.5975 14.655 -4.9375 17.375 C-5.9275 17.375 -6.9175 17.375 -7.9375 17.375 C-7.9375 13.085 -7.9375 8.795 -7.9375 4.375 C-8.5975 4.375 -9.2575 4.375 -9.9375 4.375 C-9.2775 9.325 -8.6175 14.275 -7.9375 19.375 C-10.2475 19.375 -12.5575 19.375 -14.9375 19.375 C-14.73516165 17.14323823 -14.49947726 14.91448507 -14.25 12.6875 C-14.12238281 11.44613281 -13.99476562 10.20476562 -13.86328125 8.92578125 C-11.85313107 1.21596474 -7.43355117 -0.40032123 0 0 Z " fill="#0E1C59" transform="translate(62.9375,67.625)"/>
<path d="M0 0 C1.859375 0.24609375 1.859375 0.24609375 4 1 C5.265625 2.84765625 5.265625 2.84765625 6.25 5.0625 C6.75273438 6.16271484 6.75273438 6.16271484 7.265625 7.28515625 C7.50796875 7.85105469 7.7503125 8.41695312 8 9 C7.41196203 5.97580475 6.77321882 2.98241547 6 0 C6.721875 0.185625 7.44375 0.37125 8.1875 0.5625 C11.37456241 1.22366086 11.37456241 1.22366086 16 0 C15.01 3.3 14.02 6.6 13 10 C13.66 10 14.32 10 15 10 C15.12375 9.278125 15.2475 8.55625 15.375 7.8125 C15.9904931 5.04278106 16.88444374 2.6029646 18 0 C19.60407328 -0.02708567 21.2082785 -0.04643483 22.8125 -0.0625 C23.70582031 -0.07410156 24.59914063 -0.08570312 25.51953125 -0.09765625 C28 0 28 0 31 1 C30.67 1.99 30.34 2.98 30 4 C27.03 3.505 27.03 3.505 24 3 C25.50663783 6.01327566 28.03166411 6.61056618 31 8 C31.1875 10.375 31.1875 10.375 31 13 C27.54337669 15.30441554 26.05142119 15.25860135 22 15 C21.34 14.67 20.68 14.34 20 14 C20.33 13.01 20.66 12.02 21 11 C23.31 11.33 25.62 11.66 28 12 C25.64722731 9.27573689 23.37503669 8.1858237 20 7 C18.68 9.64 17.36 12.28 16 15 C15.278125 14.814375 14.55625 14.62875 13.8125 14.4375 C10.85580541 13.97756973 8.88750224 14.34485243 6 15 C5.17988688 13.44148245 4.36923787 11.87798284 3.5625 10.3125 C3.11003906 9.44238281 2.65757813 8.57226562 2.19140625 7.67578125 C1.04008072 5.09001736 0.43679247 2.78643472 0 0 Z " fill="#F1DFBD" transform="translate(80,70)"/>
<path d="M0 0 C0.33 0 0.66 0 1 0 C1 1.65 1 3.3 1 5 C1.66 5.33 2.32 5.66 3 6 C2.34 7.65 1.68 9.3 1 11 C0.01 11 -0.98 11 -2 11 C-2 12.32 -2 13.64 -2 15 C0.64 15.99 3.28 16.98 6 18 C6 17.01 6 16.02 6 15 C8.8125 13.875 8.8125 13.875 12 13 C13.485 13.99 13.485 13.99 15 15 C14.401875 15.433125 13.80375 15.86625 13.1875 16.3125 C11.0444268 17.87905447 11.0444268 17.87905447 9.5625 19.5 C5.19999241 23.68800729 0.97400545 24.60996148 -4.9375 24.625 C-5.65099609 24.62806152 -6.36449219 24.63112305 -7.09960938 24.63427734 C-10.3389778 24.52435418 -12.61526638 24.24259066 -15.37890625 22.5 C-17.4691073 20.08241806 -19 18.26347161 -19 15 C-15.97580475 15.58803797 -12.98241547 16.22678118 -10 17 C-10.33 16.01 -10.66 15.02 -11 14 C-10.01 14 -9.02 14 -8 14 C-8.66 11.69 -9.32 9.38 -10 7 C-6.7 6.34 -3.4 5.68 0 5 C0 3.35 0 1.7 0 0 Z " fill="#C3AF52" transform="translate(118,43)"/>
<path d="M0 0 C0.33 0.66 0.66 1.32 1 2 C0.67 2.99 0.34 3.98 0 5 C-0.66 5 -1.32 5 -2 5 C-2.33 7.31 -2.66 9.62 -3 12 C-4.32 12 -5.64 12 -7 12 C-7.33 11.01 -7.66 10.02 -8 9 C-8.556875 9.639375 -9.11375 10.27875 -9.6875 10.9375 C-12.22066561 13.19680987 -13.68341424 13.63149047 -17 14 C-17 14.99 -17 15.98 -17 17 C-11.9426426 18.42643414 -8.8420469 17.50413137 -4.1484375 15.59375 C-1.69397269 14.91542518 -0.378115 15.1821867 2 16 C1 18 1 18 -2.37890625 19.2890625 C-3.77098377 19.74198724 -5.16566224 20.18697613 -6.5625 20.625 C-7.62887695 20.96917969 -7.62887695 20.96917969 -8.71679688 21.3203125 C-10.47570953 21.88694208 -12.23759039 22.44434258 -14 23 C-11.75882258 24.25698369 -11.75882258 24.25698369 -9 25 C-6.54417534 24.13322255 -6.54417534 24.13322255 -4.3125 22.5625 C-1.98828125 21.06640625 -1.98828125 21.06640625 0 20 C0.66 20.33 1.32 20.66 2 21 C0.02 21.99 0.02 21.99 -2 23 C-2 23.99 -2 24.98 -2 26 C-1.34 26.33 -0.68 26.66 0 27 C-0.99 27.66 -1.98 28.32 -3 29 C-1.02 29.33 0.96 29.66 3 30 C3 30.33 3 30.66 3 31 C-4.28725335 31.546544 -9.55679133 31.53979139 -15.671875 27.2890625 C-16.11015625 26.86367188 -16.5484375 26.43828125 -17 26 C-17 25.34 -17 24.68 -17 24 C-19.475 23.01 -19.475 23.01 -22 22 C-22 21.34 -22 20.68 -22 20 C-21.01 19.67 -20.02 19.34 -19 19 C-21.64 18.01 -24.28 17.02 -27 16 C-27 15.34 -27 14.68 -27 14 C-17.58997722 11.70387244 -17.58997722 11.70387244 -13 12 C-13 10.35 -13 8.7 -13 7 C-12.01 6.67 -11.02 6.34 -10 6 C-10 5.01 -10 4.02 -10 3 C-8.35 2.34 -6.7 1.68 -5 1 C-5.33 4.3 -5.66 7.6 -6 11 C-5.34 11 -4.68 11 -4 11 C-3.896875 9.9275 -3.79375 8.855 -3.6875 7.75 C-3.02599507 4.14179128 -2.42516579 2.63604977 0 0 Z " fill="#A59F59" transform="translate(69,36)"/>
<path d="M0 0 C0.66 0.33 1.32 0.66 2 1 C1.34 1.66 0.68 2.32 0 3 C0 3.94875 0 4.8975 0 5.875 C0 9.16427314 -0.12638393 10.35990463 -2 13 C-2.969375 13.804375 -3.93875 14.60875 -4.9375 15.4375 C-9.74723066 19.46196851 -11.28073438 22.81431566 -12 29 C-10.68 29.33 -9.36 29.66 -8 30 C-8.65226562 30.12117188 -9.30453125 30.24234375 -9.9765625 30.3671875 C-13.85648454 31.11112536 -17.53138139 31.82877397 -21.25 33.1875 C-24.57064808 34.16860057 -26.68085048 33.9052226 -30 33 C-30.66 32.34 -31.32 31.68 -32 31 C-29.54945142 27.32417713 -28.0945678 27.3102617 -24 26 C-21.69833325 24.48446847 -21.69833325 24.48446847 -20 23 C-20 24.32 -20 25.64 -20 27 C-18.68 27 -17.36 27 -16 27 C-15.67 24.69 -15.34 22.38 -15 20 C-14.34 20 -13.68 20 -13 20 C-13 19.195625 -13 18.39125 -13 17.5625 C-11.48691731 12.1721429 -7.78467072 8.9977881 -4 5 C-2.65027159 3.3465827 -1.306607 1.68770071 0 0 Z " fill="#AB811F" transform="translate(82,21)"/>
<path d="M0 0 C3.5834621 2.59651967 6.83654203 5.35827014 9.86328125 8.59375 C10.77078125 9.50125 11.67828125 10.40875 12.61328125 11.34375 C13.35578125 12.08625 14.09828125 12.82875 14.86328125 13.59375 C13.25894316 13.11515759 11.65481709 12.63585442 10.05078125 12.15625 C9.15746094 11.88941406 8.26414062 11.62257813 7.34375 11.34765625 C1.84892614 9.67757593 0.36810922 8.04582878 -3.13671875 3.59375 C-2.14671875 4.91375 -1.15671875 6.23375 -0.13671875 7.59375 C-4.0235371 8.88935612 -5.87502641 8.03302615 -9.76171875 6.84375 C-11.51355469 6.32554688 -11.51355469 6.32554688 -13.30078125 5.796875 C-14.23664063 5.39984375 -15.1725 5.0028125 -16.13671875 4.59375 C-16.46671875 3.60375 -16.79671875 2.61375 -17.13671875 1.59375 C-18.78671875 1.59375 -20.43671875 1.59375 -22.13671875 1.59375 C-15.47176039 -5.84913725 -7.71750187 -5.07916028 0 0 Z " fill="#CAB572" transform="translate(102.13671875,17.40625)"/>
<path d="M0 0 C2 3 2 3 2 7 C-21.43 7 -44.86 7 -69 7 C-69 6.67 -69 6.34 -69 6 C-68.01829834 5.97494385 -67.03659668 5.9498877 -66.02514648 5.92407227 C-62.30680018 5.82834734 -58.58857111 5.72856285 -54.87036133 5.62768555 C-53.27533756 5.58494883 -51.68028569 5.54324546 -50.08520508 5.50268555 C-30.80031504 5.45234077 -30.80031504 5.45234077 -12 2 C-9.86042911 1.59077865 -7.71439299 1.21350002 -5.5625 0.875 C-3.98662109 0.62363281 -3.98662109 0.62363281 -2.37890625 0.3671875 C-1.59386719 0.24601562 -0.80882812 0.12484375 0 0 Z " fill="#5E6773" transform="translate(130,81)"/>
<path d="M0 0 C2.375 0.1875 2.375 0.1875 5 1 C6.125 3.25 6.125 3.25 7 6 C7.53625 6.886875 8.0725 7.77375 8.625 8.6875 C10 11 10 11 10 13 C3.4 13 -3.2 13 -10 13 C-5.6 4.2 -5.6 4.2 -2 3 C-1.34 2.01 -0.68 1.02 0 0 Z " fill="#81591B" transform="translate(90,54)"/>
<path d="M0 0 C0.66666667 1.33333333 1.33333333 2.66666667 2 4 C2.3609375 4.6084375 2.721875 5.216875 3.09375 5.84375 C4.67103023 9.59658918 3.58191136 13.04300274 3 17 C-2.28 17 -7.56 17 -13 17 C-12.505 15.515 -12.505 15.515 -12 14 C-12 14.66 -12 15.32 -12 16 C-11.34 16 -10.68 16 -10 16 C-9.9071875 14.948125 -9.9071875 14.948125 -9.8125 13.875 C-8.69528762 9.92178696 -6.79812617 8.00286711 -4 5 C-3.34 4.67 -2.68 4.34 -2 4 C-0.86649466 1.98330173 -0.86649466 1.98330173 0 0 Z " fill="#6B491A" transform="translate(83,30)"/>
<path d="M0 0 C0.99 0 1.98 0 3 0 C1.05974285 6.77597498 -2.15776997 11.92838996 -8 16 C-12.54207744 16.54484561 -16.55531833 16.00297299 -21 15 C-19.68 14.01 -18.36 13.02 -17 12 C-17.33 10.68 -17.66 9.36 -18 8 C-11.44347826 5.85652174 -11.44347826 5.85652174 -8.875 6.6875 C-8.25625 6.790625 -7.6375 6.89375 -7 7 C-4.31256494 4.72926391 -4.31256494 4.72926391 -2 2 C-1.34 1.34 -0.68 0.68 0 0 Z " fill="#87540E" transform="translate(85,51)"/>
<path d="M0 0 C4 0 4 0 5.484375 1.4609375 C5.90203125 2.09257813 6.3196875 2.72421875 6.75 3.375 C7.17796875 4.00148438 7.6059375 4.62796875 8.046875 5.2734375 C9 7 9 7 9 9 C9.66 9 10.32 9 11 9 C11 6.03 11 3.06 11 0 C11.99 0 12.98 0 14 0 C14 4.95 14 9.9 14 15 C9 14 9 14 7.41796875 12.37109375 C7.01191406 11.73300781 6.60585938 11.09492187 6.1875 10.4375 C5.76855469 9.79683594 5.34960938 9.15617187 4.91796875 8.49609375 C4.61503906 8.00238281 4.31210937 7.50867188 4 7 C3.67 9.64 3.34 12.28 3 15 C2.01 15 1.02 15 0 15 C0 10.05 0 5.1 0 0 Z " fill="#D0D3D0" transform="translate(55,70)"/>
<path d="M0 0 C0.99 0.33 1.98 0.66 3 1 C3.64334937 5.10135226 4 8.82736898 4 13 C0.04 14.65 -3.92 16.3 -8 18 C-6.68 18.33 -5.36 18.66 -4 19 C-4.83144531 19.72316406 -4.83144531 19.72316406 -5.6796875 20.4609375 C-6.76636719 21.40839844 -6.76636719 21.40839844 -7.875 22.375 C-8.59429687 23.00148438 -9.31359375 23.62796875 -10.0546875 24.2734375 C-11.4076598 25.47426834 -12.7208345 26.7208345 -14 28 C-14 26.35 -14 24.7 -14 23 C-14.99 23.66 -15.98 24.32 -17 25 C-14.93975303 20.15421504 -11.43928774 17.65535174 -7 15 C-3.5 14.125 -3.5 14.125 -1 14 C-1.18433594 13.44828125 -1.36867188 12.8965625 -1.55859375 12.328125 C-2.0918802 9.51539295 -1.68538146 7.53464653 -1.0625 4.75 C-0.86785156 3.85796875 -0.67320313 2.9659375 -0.47265625 2.046875 C-0.31667969 1.37140625 -0.16070312 0.6959375 0 0 Z M1 9 C2 12 2 12 2 12 Z " fill="#9A8446" transform="translate(89,0)"/>
<path d="M0 0 C2.64 0.99 5.28 1.98 8 3 C8.17992922 7.588195 7.96710129 10.8472306 6 15 C5.62875 15.928125 5.2575 16.85625 4.875 17.8125 C4.441875 18.8953125 4.441875 18.8953125 4 20 C0.85262624 16.57894157 0.16471167 13.61192662 0 9 C1.4375 6.5625 1.4375 6.5625 3 5 C0.525 6.485 0.525 6.485 -2 8 C-2.6875 6.25 -2.6875 6.25 -3 4 C-1.5625 1.75 -1.5625 1.75 0 0 Z " fill="#C38C22" transform="translate(84,20)"/>
<path d="M0 0 C2.31 0 4.62 0 7 0 C7 0.99 7 1.98 7 3 C5.68 3 4.36 3 3 3 C3 3.99 3 4.98 3 6 C4.98 6 6.96 6 9 6 C9.33 6.99 9.66 7.98 10 9 C7.69 9 5.38 9 3 9 C3 9.99 3 10.98 3 12 C5.97 12 8.94 12 12 12 C12 12.99 12 13.98 12 15 C8.04 15 4.08 15 0 15 C0 10.05 0 5.1 0 0 Z " fill="#D1D6BF" transform="translate(71,70)"/>
<path d="M0 0 C1.37478516 0.01740234 1.37478516 0.01740234 2.77734375 0.03515625 C3.69644531 0.04417969 4.61554688 0.05320313 5.5625 0.0625 C6.27277344 0.07410156 6.98304688 0.08570313 7.71484375 0.09765625 C7.71484375 0.75765625 7.71484375 1.41765625 7.71484375 2.09765625 C4.24984375 3.58265625 4.24984375 3.58265625 0.71484375 5.09765625 C1.37484375 5.75765625 2.03484375 6.41765625 2.71484375 7.09765625 C-1.74015625 7.59265625 -1.74015625 7.59265625 -6.28515625 8.09765625 C-6.28515625 9.08765625 -6.28515625 10.07765625 -6.28515625 11.09765625 C-10.50428372 10.61820995 -13.08178803 9.93140506 -16.28515625 7.09765625 C-15.62515625 6.10765625 -14.96515625 5.11765625 -14.28515625 4.09765625 C-10.56875486 3.82737251 -7.82795525 3.91672325 -4.28515625 5.09765625 C-4.14078125 4.45828125 -3.99640625 3.81890625 -3.84765625 3.16015625 C-3.07397355 0.32331967 -2.98167988 0.12742222 0 0 Z " fill="#A4A261" transform="translate(130.28515625,49.90234375)"/>
<path d="M0 0 C0.33 0.99 0.66 1.98 1 3 C1.5775 3.12375 2.155 3.2475 2.75 3.375 C6.16425788 4.32340497 7.7643121 6.32959501 10 9 C10 10.32 10 11.64 10 13 C6.7 13 3.4 13 0 13 C-1.29243536 8.8803623 -2.26252625 5.33168317 -2 1 C-1.34 0.67 -0.68 0.34 0 0 Z " fill="#B6760B" transform="translate(96,31)"/>
<path d="M0 0 C-0.66 0.66 -1.32 1.32 -2 2 C-1.44570312 2.39832031 -0.89140625 2.79664063 -0.3203125 3.20703125 C0.40414062 3.73683594 1.12859375 4.26664063 1.875 4.8125 C2.59429687 5.33457031 3.31359375 5.85664063 4.0546875 6.39453125 C6 8 6 8 8 11 C2.07136283 9.83348574 -3.38798394 8.24480642 -9 6 C-9 5.34 -9 4.68 -9 4 C-10.65 4 -12.3 4 -14 4 C-10.27794693 -0.54917597 -5.52651111 -1.62544444 0 0 Z " fill="#E5D198" transform="translate(94,15)"/>
<path d="M0 0 C3.16717283 1.58358642 4.73268318 2.45263699 6.3125 5.6875 C6.539375 6.450625 6.76625 7.21375 7 8 C5.68 7.67 4.36 7.34 3 7 C3.33 10.3 3.66 13.6 4 17 C7.3 17.33 10.6 17.66 14 18 C14.33 17.34 14.66 16.68 15 16 C15.33 17.32 15.66 18.64 16 20 C16.66 20 17.32 20 18 20 C17.34 18.02 16.68 16.04 16 14 C17.5 15.25 17.5 15.25 19 17 C19 18.32 19 19.64 19 21 C16.87465341 20.85930804 14.74972471 20.71229079 12.625 20.5625 C11.44164063 20.48128906 10.25828125 20.40007813 9.0390625 20.31640625 C6 20 6 20 4 19 C3.67 19.66 3.34 20.32 3 21 C0.42768781 13.96901335 -0.12996178 7.40782155 0 0 Z " fill="#8A7944" transform="translate(92,26)"/>
<path d="M0 0 C2.64 1.32 5.28 2.64 8 4 C8 4.66 8 5.32 8 6 C5.69 6 3.38 6 1 6 C0.67 6.66 0.34 7.32 0 8 C3.3 8.33 6.6 8.66 10 9 C10 9.33 10 9.66 10 10 C1.98603754 10.6466598 -5.95787245 11.16677223 -14 11 C-11.8125 8.9375 -11.8125 8.9375 -9 7 C-6.1875 7.25 -6.1875 7.25 -4 8 C-2.68 5.36 -1.36 2.72 0 0 Z " fill="#0A1134" transform="translate(100,76)"/>
<path d="M0 0 C0.33 0.66 0.66 1.32 1 2 C0.67 2.99 0.34 3.98 0 5 C-0.66 5 -1.32 5 -2 5 C-2.33 7.31 -2.66 9.62 -3 12 C-4.32 12 -5.64 12 -7 12 C-7.33 11.01 -7.66 10.02 -8 9 C-8.556875 9.639375 -9.11375 10.27875 -9.6875 10.9375 C-14.11316471 14.88471447 -19.36532353 14.09550299 -25 14 C-25 13.67 -25 13.34 -25 13 C-19.06 12.505 -19.06 12.505 -13 12 C-13 10.35 -13 8.7 -13 7 C-12.01 6.67 -11.02 6.34 -10 6 C-10 5.01 -10 4.02 -10 3 C-8.35 2.34 -6.7 1.68 -5 1 C-5.33 4.3 -5.66 7.6 -6 11 C-5.34 11 -4.68 11 -4 11 C-3.896875 9.9275 -3.79375 8.855 -3.6875 7.75 C-3.02599507 4.14179128 -2.42516579 2.63604977 0 0 Z " fill="#A8A05C" transform="translate(69,36)"/>
<path d="M0 0 C1.73732492 3.09665446 2.48017413 5.88104478 3.0625 9.375 C3.22621094 10.33792969 3.38992187 11.30085938 3.55859375 12.29296875 C3.70425781 13.18628906 3.84992188 14.07960938 4 15 C4.309375 16.8253125 4.309375 16.8253125 4.625 18.6875 C4.74875 19.450625 4.8725 20.21375 5 21 C2.6875 20.4375 2.6875 20.4375 0 19 C-2.44293764 14.6195601 -3.58290835 11.01301179 -3 6 C-2.34 5.34 -1.68 4.68 -1 4 C-0.3574765 1.93125966 -0.3574765 1.93125966 0 0 Z " fill="#CC880A" transform="translate(91,30)"/>
<path d="M0 0 C-1.33333333 1.33333333 -2.66666667 2.66666667 -4 4 C-4.7115625 4.7734375 -4.7115625 4.7734375 -5.4375 5.5625 C-7.49575897 7.45609825 -9.48414037 8.7727514 -12 10 C-14.3125 9.6875 -14.3125 9.6875 -16 9 C-15.34 7.68 -14.68 6.36 -14 5 C-15.65 4.01 -17.3 3.02 -19 2 C-17 1 -17 1 -15.0546875 1.55859375 C-14.33539063 1.84863281 -13.61609375 2.13867188 -12.875 2.4375 C-12.15054688 2.72496094 -11.42609375 3.01242188 -10.6796875 3.30859375 C-10.12539062 3.53675781 -9.57109375 3.76492187 -9 4 C-9 3.01 -9 2.02 -9 1 C-5.64919071 -1.10976881 -3.77897651 -1.0497157 0 0 Z " fill="#B0B06A" transform="translate(133,57)"/>
<path d="M0 0 C2 3 2 3 2 7 C5.96 7.33 9.92 7.66 14 8 C14 8.33 14 8.66 14 9 C13.37351563 9.02578125 12.74703125 9.0515625 12.1015625 9.078125 C11.28429687 9.13484375 10.46703125 9.1915625 9.625 9.25 C8.81289062 9.29640625 8.00078125 9.3428125 7.1640625 9.390625 C4.81161073 9.7922092 4.81161073 9.7922092 3.7109375 12.046875 C3.47632812 12.69140625 3.24171875 13.3359375 3 14 C0.69 13.67 -1.62 13.34 -4 13 C-4 10 -4 10 -2.5625 8.1875 C-0.63599355 5.49039097 -0.3700239 3.25621035 0 0 Z " fill="#837E44" transform="translate(123,41)"/>
<path d="M0 0 C4.29 0.33 8.58 0.66 13 1 C13 1.33 13 1.66 13 2 C11.02 2 9.04 2 7 2 C7 6.95 7 11.9 7 17 C6.67 17 6.34 17 6 17 C6 12.05 6 7.1 6 2 C4.68 2 3.36 2 2 2 C2 4.97 2 7.94 2 11 C1.34 11 0.68 11 0 11 C-1.98 7.535 -1.98 7.535 -4 4 C-3.34 4 -2.68 4 -2 4 C-1.34 2.68 -0.68 1.36 0 0 Z " fill="#1E30A1" transform="translate(64,68)"/>
<path d="M0 0 C0.66 0.33 1.32 0.66 2 1 C0.02 1.99 0.02 1.99 -2 3 C-2 3.99 -2 4.98 -2 6 C-1.34 6.33 -0.68 6.66 0 7 C-0.99 7.66 -1.98 8.32 -3 9 C-0.03 9.495 -0.03 9.495 3 10 C3 10.33 3 10.66 3 11 C1.04233719 11.08082094 -0.91626728 11.13910778 -2.875 11.1875 C-4.51082031 11.23970703 -4.51082031 11.23970703 -6.1796875 11.29296875 C-7.11039063 11.19628906 -8.04109375 11.09960938 -9 11 C-9.66 10.01 -10.32 9.02 -11 8 C-11.66 7.34 -12.32 6.68 -13 6 C-11.96875 5.566875 -10.9375 5.13375 -9.875 4.6875 C-7.39459275 3.63596832 -5.07902861 2.51344908 -2.6875 1.25 C-1.800625 0.8375 -0.91375 0.425 0 0 Z " fill="#A89F58" transform="translate(69,56)"/>
<path d="M0 0 C0 2.97 0 5.94 0 9 C-1.98 9 -3.96 9 -6 9 C-6.309375 8.05125 -6.61875 7.1025 -6.9375 6.125 C-7.87394742 3.13919592 -7.87394742 3.13919592 -9 1 C-9.99 0.67 -10.98 0.34 -12 0 C-7.89962722 -3.07527959 -4.53236941 -1.35971082 0 0 Z " fill="#313853" transform="translate(120,70)"/>
<path d="M0 0 C0.66 0.33 1.32 0.66 2 1 C1.34 1.66 0.68 2.32 0 3 C0 3.94875 0 4.8975 0 5.875 C0 9.11775115 -0.16986336 10.38551908 -2 13 C-6.44444444 17 -6.44444444 17 -9 17 C-9.42067195 13.06204314 -9.24290419 11.36917581 -7.03125 8.0078125 C-6.1959375 7.05648438 -5.360625 6.10515625 -4.5 5.125 C-3.6646875 4.15820312 -2.829375 3.19140625 -1.96875 2.1953125 C-1.3190625 1.47085937 -0.669375 0.74640625 0 0 Z " fill="#5F4F2D" transform="translate(82,21)"/>
<path d="M0 0 C2.71224618 1.61268692 5.37352812 3.24901874 8 5 C8.375 7.5 8.375 7.5 8 10 C4.54337669 12.30441554 3.05142119 12.25860135 -1 12 C-1.66 11.67 -2.32 11.34 -3 11 C-2.67 10.01 -2.34 9.02 -2 8 C0.31 8.33 2.62 8.66 5 9 C2.87219421 6.65941363 0.88437779 5.29299694 -2 4 C-1.34 2.68 -0.68 1.36 0 0 Z " fill="#E2D1BD" transform="translate(103,73)"/>
<path d="M0 0 C0.70133599 1.57725347 1.385583 3.16211333 2.0625 4.75 C2.44535156 5.63171875 2.82820313 6.5134375 3.22265625 7.421875 C4.04600008 10.15256309 3.9773992 11.36901347 3 14 C2.67 12.68 2.34 11.36 2 10 C-0.97 10 -3.94 10 -7 10 C-7 9.01 -7 8.02 -7 7 C-4.69 7 -2.38 7 0 7 C-0.33 6.34 -0.66 5.68 -1 5 C-4.02934491 4.34227572 -4.02934491 4.34227572 -7 4 C-7 3.01 -7 2.02 -7 1 C-2.25 0 -2.25 0 0 0 Z " fill="#031147" transform="translate(81,72)"/>
<path d="M0 0 C1.98270912 0.95098266 3.96108379 1.91100703 5.9375 2.875 C7.03964844 3.40867188 8.14179687 3.94234375 9.27734375 4.4921875 C12 6 12 6 13 8 C12.01 8 11.02 8 10 8 C10 8.99 10 9.98 10 11 C8.02 10.34 6.04 9.68 4 9 C4 8.34 4 7.68 4 7 C3.360625 6.7525 2.72125 6.505 2.0625 6.25 C0 5 0 5 -0.8125 2.9375 C-0.874375 2.298125 -0.93625 1.65875 -1 1 C-0.67 0.67 -0.34 0.34 0 0 Z " fill="#AB943F" transform="translate(98,50)"/>
<path d="M0 0 C2.4377963 -0.05397335 4.87439685 -0.09365616 7.3125 -0.125 C8.00279297 -0.14175781 8.69308594 -0.15851563 9.40429688 -0.17578125 C13.17135396 -0.21217794 14.78431704 -0.14378864 18 2 C17.01 2.495 17.01 2.495 16 3 C16.350625 3.7425 16.70125 4.485 17.0625 5.25 C18.04509293 8.1322726 18.0326802 9.21176345 17 12 C15.20552383 9.79768833 13.99737047 7.99293314 13 5.3125 C12.67 4.549375 12.34 3.78625 12 3 C11.01 2.67 10.02 2.34 9 2 C8.67 2.99 8.34 3.98 8 5 C7.34 4.01 6.68 3.02 6 2 C2.93443402 1.26656572 2.93443402 1.26656572 0 1 C0 0.67 0 0.34 0 0 Z " fill="#112E8A" transform="translate(71,68)"/>
<path d="M0 0 C4.12751449 0.60698743 7.3321148 2.03810791 11 4 C11 4.99 11 5.98 11 7 C13.31 7.33 15.62 7.66 18 8 C18 8.33 18 8.66 18 9 C7.5296158 10.06736926 7.5296158 10.06736926 3.8671875 7.51171875 C0 3 0 3 0 0 Z " fill="#CFC16B" transform="translate(99,58)"/>
<path d="M0 0 C6.30506095 1.50586893 11.01532164 2.68709552 15 8 C15 8.99 15 9.98 15 11 C14.01 11.33 13.02 11.66 12 12 C11.319375 11.29875 10.63875 10.5975 9.9375 9.875 C7.22379838 7.14570239 4.31945276 4.68645559 1.35546875 2.234375 C0.90816406 1.82703125 0.46085937 1.4196875 0 1 C0 0.67 0 0.34 0 0 Z " fill="#A77721" transform="translate(105,27)"/>
<path d="M0 0 C0.66 0 1.32 0 2 0 C2 4.29 2 8.58 2 13 C2.99 13 3.98 13 5 13 C5 10.03 5 7.06 5 4 C5.33 4 5.66 4 6 4 C6 7.63 6 11.26 6 15 C6.66 15.33 7.32 15.66 8 16 C3.71 16 -0.58 16 -5 16 C-5 15.67 -5 15.34 -5 15 C-3.02 14.67 -1.04 14.34 1 14 C0.835 13.360625 0.67 12.72125 0.5 12.0625 C-0.15932515 8.02413348 -0.08003779 4.08192742 0 0 Z " fill="#1E2766" transform="translate(53,72)"/>
<path d="M0 0 C1.65 0 3.3 0 5 0 C5.45375 0.94875 5.9075 1.8975 6.375 2.875 C7.80238254 6.00313679 7.80238254 6.00313679 10 8 C9.01 8 8.02 8 7 8 C8.98 10.31 10.96 12.62 13 15 C12.67 15.66 12.34 16.32 12 17 C6.72138521 12.26902248 3.00076447 7.44403799 0 1 C0 0.67 0 0.34 0 0 Z " fill="#C69727" transform="translate(92,50)"/>
<path d="M0 0 C3.99067442 1.33022481 6.17547274 2.91067331 9 6 C9.9075 6.9075 10.815 7.815 11.75 8.75 C12.4925 9.4925 13.235 10.235 14 11 C12.39566191 10.52140759 10.79153584 10.04210442 9.1875 9.5625 C8.29417969 9.29566406 7.40085937 9.02882813 6.48046875 8.75390625 C4.64526945 8.19612127 2.81966274 7.60655425 1 7 C-0.1875 3.9375 -0.1875 3.9375 -1 1 C-0.67 0.67 -0.34 0.34 0 0 Z " fill="#DFC66D" transform="translate(103,20)"/>
<path d="M0 0 C-0.87971366 2.71245044 -1.74899303 4.71037657 -3.625 6.875 C-7.28426188 8.60833457 -10.06042931 7.72225463 -14 7 C-13 4 -13 4 -10.8203125 2.83203125 C-9.93085937 2.49558594 -9.04140625 2.15914062 -8.125 1.8125 C-7.24070312 1.46832031 -6.35640625 1.12414063 -5.4453125 0.76953125 C-3 0 -3 0 0 0 Z " fill="#664B17" transform="translate(84,51)"/>
<path d="M0 0 C1.32 0 2.64 0 4 0 C4.33 1.65 4.66 3.3 5 5 C4.01 5 3.02 5 2 5 C2.33 5.66 2.66 6.32 3 7 C3.13415472 9.6723621 3.04318541 12.32250488 3 15 C2.01 15 1.02 15 0 15 C0 10.05 0 5.1 0 0 Z " fill="#E9DDD7" transform="translate(55,70)"/>
<path d="M0 0 C3.45925163 1.2491742 6.14693203 2.67527795 9 5 C8.01 5 7.02 5 6 5 C5.67 5.99 5.34 6.98 5 8 C2.36 8 -0.28 8 -3 8 C-2.01 5.36 -1.02 2.72 0 0 Z " fill="#96995B" transform="translate(112,58)"/>
<path d="M0 0 C0.66 0 1.32 0 2 0 C2.56561146 5.65611463 0.71391278 9.22642128 -2 14 C-2.99 14 -3.98 14 -5 14 C-6 11 -6 11 -5 8 C-4.34 8 -3.68 8 -3 8 C-2.87625 7.05125 -2.7525 6.1025 -2.625 5.125 C-2 2 -2 2 0 0 Z " fill="#A99545" transform="translate(72,33)"/>
<path d="M0 0 C1.60407328 -0.02708567 3.2082785 -0.04643483 4.8125 -0.0625 C5.70582031 -0.07410156 6.59914063 -0.08570312 7.51953125 -0.09765625 C10 0 10 0 13 1 C12.67 1.99 12.34 2.98 12 4 C9.69 3.67 7.38 3.34 5 3 C4.67 3.99 4.34 4.98 4 6 C2.68 5.67 1.36 5.34 0 5 C0 3.35 0 1.7 0 0 Z " fill="#E8EBF4" transform="translate(98,70)"/>
<path d="M0 0 C0.33 0 0.66 0 1 0 C1.18451025 11.52164009 1.18451025 11.52164009 0 17 C-3.14032517 13.58660308 -3.83266624 10.60167853 -4 6 C-2.625 4.25 -2.625 4.25 -1 3 C-0.67 2.01 -0.34 1.02 0 0 Z " fill="#8E7846" transform="translate(88,23)"/>
<path d="M0 0 C2.31 0 4.62 0 7 0 C7 0.99 7 1.98 7 3 C5.68 3 4.36 3 3 3 C3 3.99 3 4.98 3 6 C4.98 6 6.96 6 9 6 C9 6.66 9 7.32 9 8 C2.84765625 8.09765625 2.84765625 8.09765625 1 8 C0 7 0 7 -0.0625 3.4375 C-0.041875 2.303125 -0.02125 1.16875 0 0 Z " fill="#E5EEE5" transform="translate(71,70)"/>
<path d="M0 0 C0.33 0.66 0.66 1.32 1 2 C1.99 2.33 2.98 2.66 4 3 C2.35 5.97 0.7 8.94 -1 12 C-2.65 11.67 -4.3 11.34 -6 11 C-6.33 10.34 -6.66 9.68 -7 9 C-6.195625 8.773125 -5.39125 8.54625 -4.5625 8.3125 C-3.716875 7.879375 -2.87125 7.44625 -2 7 C-1.17295995 4.53176909 -1.17295995 4.53176909 -1 2 C-0.67 1.34 -0.34 0.68 0 0 Z " fill="#D3CFBD" transform="translate(97,73)"/>
<path d="M0 0 C0.33 0 0.66 0 1 0 C1.66 4.29 2.32 8.58 3 13 C0.69 13 -1.62 13 -4 13 C-3.29666462 10.02277453 -2.41751463 7.14743457 -1.4375 4.25 C-1.16808594 3.45078125 -0.89867187 2.6515625 -0.62109375 1.828125 C-0.41613281 1.22484375 -0.21117187 0.6215625 0 0 Z " fill="#031678" transform="translate(52,74)"/>
<path d="M0 0 C3.3 0.99 6.6 1.98 10 3 C9.01 3.495 9.01 3.495 8 4 C8 4.99 8 5.98 8 7 C3.78087253 6.5205537 1.20336822 5.83374881 -2 3 C-1.34 2.01 -0.68 1.02 0 0 Z " fill="#858748" transform="translate(116,54)"/>
<path d="M0 0 C0.33 0.66 0.66 1.32 1 2 C-1.3814045 4.63207866 -3.7535648 6.53137455 -7 8 C-10.17435434 7.18795587 -11.68180575 6.31819425 -14 4 C-12.80375 3.71125 -11.6075 3.4225 -10.375 3.125 C-6.85273164 2.2475666 -3.42798179 1.19979363 0 0 Z " fill="#A7700C" transform="translate(67,54)"/>
<path d="M0 0 C2.97 0.495 2.97 0.495 6 1 C6 2.32 6 3.64 6 5 C5.01 5.33 4.02 5.66 3 6 C3 7.32 3 8.64 3 10 C1.0625 9.1875 1.0625 9.1875 -1 8 C-1.33 7.01 -1.66 6.02 -2 5 C-1.01 5 -0.02 5 1 5 C0.67 3.35 0.34 1.7 0 0 Z " fill="#B7AB62" transform="translate(109,52)"/>
<path d="M0 0 C0.721875 0.185625 1.44375 0.37125 2.1875 0.5625 C5.12826973 1.01995307 7.14103058 0.73516357 10 0 C8.75 2.9375 8.75 2.9375 7 6 C4.8125 6.875 4.8125 6.875 3 7 C2.01 4.69 1.02 2.38 0 0 Z " fill="#EBF2F0" transform="translate(86,70)"/>
<path d="M0 0 C1.37562854 1.28965176 2.70766393 2.62689293 4 4 C4 4.66 4 5.32 4 6 C4.99 6 5.98 6 7 6 C7 7.32 7 8.64 7 10 C6.01 10.33 5.02 10.66 4 11 C3.66226563 10.4946875 3.32453125 9.989375 2.9765625 9.46875 C2.53054687 8.8190625 2.08453125 8.169375 1.625 7.5 C0.96371094 6.52546875 0.96371094 6.52546875 0.2890625 5.53125 C-0.13632812 5.0259375 -0.56171875 4.520625 -1 4 C-1.66 4 -2.32 4 -3 4 C-3 3.34 -3 2.68 -3 2 C-2.01 2 -1.02 2 0 2 C0 1.34 0 0.68 0 0 Z " fill="#E4D4C3" transform="translate(60,73)"/>
<path d="M0 0 C-3.43772727 3.43772727 -7.10960984 3.97127774 -11.875 4.125 C-12.90625 4.08375 -13.9375 4.0425 -15 4 C-15 3.01 -15 2.02 -15 1 C-9.94997778 -0.03590199 -5.12583611 -0.10251672 0 0 Z " fill="#86500C" transform="translate(85,46)"/>
<path d="M0 0 C0.99 0.33 1.98 0.66 3 1 C3.63394697 5.04141194 4.12404452 8.9065307 4 13 C3.01 13 2.02 13 1 13 C0.855625 11.9275 0.71125 10.855 0.5625 9.75 C0.10566824 6.21527402 0.10566824 6.21527402 -0.625 3.6875 C-1 2 -1 2 0 0 Z " fill="#A28337" transform="translate(89,0)"/>
<path d="M0 0 C2.475 0.495 2.475 0.495 5 1 C5 2.98 5 4.96 5 7 C3.35 7.33 1.7 7.66 0 8 C0 5.36 0 2.72 0 0 Z " fill="#AFA889" transform="translate(121,71)"/>
<path d="M0 0 C0 0.66 0 1.32 0 2 C-5.33931188 4.86034565 -10.07943568 6.73130765 -16 8 C-15.67 7.01 -15.34 6.02 -15 5 C-12.12890625 3.61328125 -12.12890625 3.61328125 -8.5625 2.3125 C-6.80099609 1.65701172 -6.80099609 1.65701172 -5.00390625 0.98828125 C-2 0 -2 0 0 0 Z " fill="#884F08" transform="translate(83,49)"/>
<path d="M0 0 C2.97 0 5.94 0 9 0 C9.33 0.99 9.66 1.98 10 3 C13.00847418 4.22520264 13.00847418 4.22520264 16 5 C16 5.33 16 5.66 16 6 C10.34979382 5.39891424 5.33835539 3.92471317 0 2 C0 1.34 0 0.68 0 0 Z " fill="#C6C16F" transform="translate(42,50)"/>
<path d="M0 0 C0.33 0.99 0.66 1.98 1 3 C-1.97 5.31 -4.94 7.62 -8 10 C-8.99 9.34 -9.98 8.68 -11 8 C-8.55536759 4.33305139 -7.06774391 4.32824291 -3 3 C-1.16310524 1.50113129 -1.16310524 1.50113129 0 0 Z " fill="#A98D34" transform="translate(61,44)"/>
<path d="M0 0 C3.33775938 1.22113148 4.57089065 3.06073094 6.5625 5.9375 C5.1233866 5.65390113 3.68624482 5.36028601 2.25 5.0625 C1.44949219 4.90007813 0.64898437 4.73765625 -0.17578125 4.5703125 C-2.4375 3.9375 -2.4375 3.9375 -5.4375 1.9375 C-2.4375 -0.0625 -2.4375 -0.0625 0 0 Z " fill="#E0C577" transform="translate(95.4375,20.0625)"/>
<path d="M0 0 C4.29 0.33 8.58 0.66 13 1 C13 1.33 13 1.66 13 2 C11.02 2 9.04 2 7 2 C7 6.95 7 11.9 7 17 C6.67 17 6.34 17 6 17 C6 12.05 6 7.1 6 2 C3.03 1.505 3.03 1.505 0 1 C0 0.67 0 0.34 0 0 Z " fill="#123494" transform="translate(64,68)"/>
<path d="M0 0 C3.16717283 1.58358642 4.73268318 2.45263699 6.3125 5.6875 C6.539375 6.450625 6.76625 7.21375 7 8 C6.401875 7.814375 5.80375 7.62875 5.1875 7.4375 C2.83591238 6.77906313 2.83591238 6.77906313 0 8 C0 5.36 0 2.72 0 0 Z " fill="#957230" transform="translate(92,26)"/>
<path d="M0 0 C4.455 0.99 4.455 0.99 9 2 C9.33 3.32 9.66 4.64 10 6 C9.34 6 8.68 6 8 6 C7.01 7.485 7.01 7.485 6 9 C4 6 2 3 0 0 Z " fill="#956B1F" transform="translate(94,24)"/>
<path d="M0 0 C0.33 0.99 0.66 1.98 1 3 C2.32 2.67 3.64 2.34 5 2 C3.02 4.64 1.04 7.28 -1 10 C-1.33 9.01 -1.66 8.02 -2 7 C-2.33 6.67 -2.66 6.34 -3 6 C-3.99 6.495 -3.99 6.495 -5 7 C-3.70700306 4.11562221 -2.34058637 2.12780579 0 0 Z " fill="#867538" transform="translate(77,18)"/>
<path d="M0 0 C0.99 0.33 1.98 0.66 3 1 C3.33 2.98 3.66 4.96 4 7 C3.01 7 2.02 7 1 7 C0.01 8.485 0.01 8.485 -1 10 C-1.66 10 -2.32 10 -3 10 C-2.01 6.7 -1.02 3.4 0 0 Z " fill="#644319" transform="translate(89,48)"/>
<path d="M0 0 C0.66 0 1.32 0 2 0 C0.71107323 2.87529818 -0.49296383 5.05008298 -3 7 C-7.26062184 8.33905258 -11.5783266 8.07494362 -16 8 C-16 7.67 -16 7.34 -16 7 C-10.06 6.505 -10.06 6.505 -4 6 C-4 4.35 -4 2.7 -4 1 C-3.01 1 -2.02 1 -1 1 C-0.67 0.67 -0.34 0.34 0 0 Z " fill="#8D8B54" transform="translate(60,42)"/>
<path d="M0 0 C1.04059132 3.12177395 1.32284898 4.07083439 0 7 C-2.5625 8.25 -2.5625 8.25 -5 9 C-5 9.66 -5 10.32 -5 11 C-5.66 10.67 -6.32 10.34 -7 10 C-2.85714286 2.42857143 -2.85714286 2.42857143 0 0 Z " fill="#C4B86B" transform="translate(75,22)"/>
<path d="M0 0 C0.1875 2.375 0.1875 2.375 0 5 C-0.99 5.66 -1.98 6.32 -3 7 C-3.0825 6.05125 -3.165 5.1025 -3.25 4.125 C-3.65074923 0.89538209 -3.65074923 0.89538209 -6.0625 -0.375 C-6.701875 -0.58125 -7.34125 -0.7875 -8 -1 C-4.59745511 -2.2151946 -3.06748874 -1.86240388 0 0 Z M-5 7 C-3 8 -3 8 -3 8 Z " fill="#202642" transform="translate(129,71)"/>
<path d="M0 0 C0.598125 0.20625 1.19625 0.4125 1.8125 0.625 C0.8225 2.11 0.8225 2.11 -0.1875 3.625 C2.4525 3.625 5.0925 3.625 7.8125 3.625 C7.8125 3.955 7.8125 4.285 7.8125 4.625 C3.8525 4.625 -0.1075 4.625 -4.1875 4.625 C-4.5175 3.635 -4.8475 2.645 -5.1875 1.625 C-2.1875 -0.375 -2.1875 -0.375 0 0 Z " fill="#B59339" transform="translate(64.1875,62.375)"/>
<path d="M0 0 C0.99 0.33 1.98 0.66 3 1 C1.68 4.3 0.36 7.6 -1 11 C-1.66 11 -2.32 11 -3 11 C-2.53199289 6.94393835 -2.12046792 3.53411321 0 0 Z " fill="#0C1B4C" transform="translate(96,69)"/>
<path d="M0 0 C0 2.31 0 4.62 0 7 C-1.32 7.33 -2.64 7.66 -4 8 C-4.33 6.02 -4.66 4.04 -5 2 C-2 0 -2 0 0 0 Z " fill="#B29330" transform="translate(123,40)"/>
<path d="M0 0 C0.66 1.32 1.32 2.64 2 4 C-2.75 8 -2.75 8 -5 8 C-5 6.02 -5 4.04 -5 2 C-3.35 1.34 -1.7 0.68 0 0 Z " fill="#846429" transform="translate(78,30)"/>
<path d="M0 0 C4.62 0.66 9.24 1.32 14 2 C13.67 2.66 13.34 3.32 13 4 C11.3954444 3.85851011 9.79136233 3.71164314 8.1875 3.5625 C7.29417969 3.48128906 6.40085937 3.40007813 5.48046875 3.31640625 C3 3 3 3 0 2 C0 1.34 0 0.68 0 0 Z " fill="#C2890E" transform="translate(96,45)"/>
<path d="M0 0 C0.33 1.65 0.66 3.3 1 5 C-1.64 4.67 -4.28 4.34 -7 4 C-7 3.01 -7 2.02 -7 1 C-2.25 0 -2.25 0 0 0 Z " fill="#091E53" transform="translate(81,72)"/>
<path d="M0 0 C-6.4 4.06153846 -6.4 4.06153846 -9.4375 3.75 C-9.953125 3.5025 -10.46875 3.255 -11 3 C-10.67 2.01 -10.34 1.02 -10 0 C-3.375 -1.125 -3.375 -1.125 0 0 Z " fill="#C2C577" transform="translate(128,63)"/>
<path d="M0 0 C1.81495662 0.44850658 3.62693134 0.90909571 5.4375 1.375 C6.44683594 1.63023438 7.45617187 1.88546875 8.49609375 2.1484375 C11 3 11 3 12 5 C11.34 5.66 10.68 6.32 10 7 C8.33073546 6.02526874 6.66464358 5.04510211 5 4.0625 C4.071875 3.51722656 3.14375 2.97195312 2.1875 2.41015625 C1.465625 1.94480469 0.74375 1.47945312 0 1 C0 0.67 0 0.34 0 0 Z " fill="#C1992B" transform="translate(98,49)"/>
<path d="M0 0 C3 1 3 1 4.25 3.3125 C5.0275526 6.09873015 4.98726527 7.33438378 4 10 C1.16625119 6.79663178 0.4794463 4.21912747 0 0 Z " fill="#0E245A" transform="translate(84,70)"/>
<path d="M0 0 C0.66 0 1.32 0 2 0 C2 0.99 2 1.98 2 3 C2.66 3 3.32 3 4 3 C4.33 2.01 4.66 1.02 5 0 C5 2.31 5 4.62 5 7 C4.67 6.01 4.34 5.02 4 4 C3.34 4 2.68 4 2 4 C2 5.32 2 6.64 2 8 C1.34 8 0.68 8 0 8 C0 5.36 0 2.72 0 0 Z " fill="#DFD4A2" transform="translate(114,71)"/>
<path d="M0 0 C1.32 0.33 2.64 0.66 4 1 C4.33 3.31 4.66 5.62 5 8 C4.01 7.67 3.02 7.34 2 7 C0.8125 3.4375 0.8125 3.4375 0 0 Z " fill="#E5F2EB" transform="translate(80,70)"/>
<path d="M0 0 C2.475 0.495 2.475 0.495 5 1 C5.33 1.99 5.66 2.98 6 4 C6.66 4.33 7.32 4.66 8 5 C8 5.66 8 6.32 8 7 C4.66272214 5.82744291 2.22562513 4.81131596 0 2 C0 1.34 0 0.68 0 0 Z " fill="#C2C073" transform="translate(52,59)"/>
<path d="M0 0 C-1.75 2 -1.75 2 -4 4 C-5.32 4 -6.64 4 -8 4 C-8 3.01 -8 2.02 -8 1 C-3.375 -1.125 -3.375 -1.125 0 0 Z " fill="#9A671B" transform="translate(75,58)"/>
<path d="M0 0 C0 0.66 0 1.32 0 2 C-4.21912747 1.5205537 -6.79663178 0.83374881 -10 -2 C-5.82412255 -3.39195915 -3.86525224 -1.82323219 0 0 Z " fill="#E6C365" transform="translate(101,18)"/>
<path d="M0 0 C1.32 0.99 2.64 1.98 4 3 C2.25 6.875 2.25 6.875 0 8 C-0.66 6.02 -1.32 4.04 -2 2 C-1.34 2 -0.68 2 0 2 C0 1.34 0 0.68 0 0 Z " fill="#D1D2B4" transform="translate(85,76)"/>
<path d="M0 0 C0.33 0.99 0.66 1.98 1 3 C-1.92824652 3.97608217 -3.95613276 4.08226668 -7 4 C-7.33 3.01 -7.66 2.02 -8 1 C-7.05125 1.020625 -6.1025 1.04125 -5.125 1.0625 C-2.09333717 1.22551826 -2.09333717 1.22551826 0 0 Z " fill="#070A25" transform="translate(112,72)"/>
<path d="M0 0 C4.29 0 8.58 0 13 0 C10.01353231 1.99097846 7.40312738 2.94124926 4 4 C3.67 3.34 3.34 2.68 3 2 C2.01 1.34 1.02 0.68 0 0 Z " fill="#0D226A" transform="translate(86,68)"/>
<path d="M0 0 C2.97 0 5.94 0 9 0 C8.34 1.32 7.68 2.64 7 4 C6.01 4 5.02 4 4 4 C4 3.34 4 2.68 4 2 C2.68 2 1.36 2 0 2 C0 1.34 0 0.68 0 0 Z " fill="#0B1C7A" transform="translate(55,68)"/>
<path d="M0 0 C3.96 1.98 3.96 1.98 8 4 C5.50907189 5.24546405 4.58919267 4.7767578 2 4 C2.66 4.33 3.32 4.66 4 5 C4 5.66 4 6.32 4 7 C2.0625 6.25 2.0625 6.25 0 5 C-0.8125 2.9375 -0.8125 2.9375 -1 1 C-0.67 0.67 -0.34 0.34 0 0 Z " fill="#8C7A44" transform="translate(98,50)"/>
<path d="M0 0 C4.10899581 1.12795963 8.07561214 2.33510818 12 4 C8.79462189 5.06845937 8.04067907 4.94995121 4.9375 4.0625 C2.01114462 3.23603846 2.01114462 3.23603846 -1 3 C-0.67 2.01 -0.34 1.02 0 0 Z " fill="#897945" transform="translate(97,47)"/>
<path d="M0 0 C0 0.66 0 1.32 0 2 C-1.051875 2.12375 -2.10375 2.2475 -3.1875 2.375 C-6.8852232 2.82992066 -6.8852232 2.82992066 -9.6875 4.125 C-12.35872159 5.13573249 -13.33917412 4.79544689 -16 4 C-13.71144298 3.13656269 -11.4198072 2.2840189 -9.125 1.4375 C-8.47402344 1.19064453 -7.82304688 0.94378906 -7.15234375 0.68945312 C-2.2265625 -1.11328125 -2.2265625 -1.11328125 0 0 Z " fill="#504523" transform="translate(85,48)"/>
<path d="M0 0 C0.99 0.99 1.98 1.98 3 3 C1.35 4.65 -0.3 6.3 -2 8 C-2.6875 6.25 -2.6875 6.25 -3 4 C-1.5625 1.75 -1.5625 1.75 0 0 Z " fill="#BC9A4E" transform="translate(84,20)"/>
<path d="M0 0 C0.99 0.33 1.98 0.66 3 1 C4.1875 3.5625 4.1875 3.5625 5 6 C3.35 6 1.7 6 0 6 C0 4.02 0 2.04 0 0 Z " fill="#05148B" transform="translate(59,81)"/>
<path d="M0 0 C3.96 0 7.92 0 12 0 C12 0.66 12 1.32 12 2 C7.48281619 3.36884358 4.41225737 2.47075246 0 1 C0 0.67 0 0.34 0 0 Z " fill="#040C32" transform="translate(113,68)"/>
<path d="M0 0 C0.66 0 1.32 0 2 0 C2 2.97 2 5.94 2 9 C-1 6 -1 6 -1.25 3.375 C-1 1 -1 1 0 0 Z " fill="#C08F2E" transform="translate(85,28)"/>
<path d="M0 0 C0.99 0 1.98 0 3 0 C1.83857315 4.35535069 0.92300495 6.64619703 -3 9 C-3 6 -3 6 -1.5 4.3125 C-0.7575 3.6628125 -0.7575 3.6628125 0 3 C-0.66 2.67 -1.32 2.34 -2 2 C-1.34 1.34 -0.68 0.68 0 0 Z " fill="#995B02" transform="translate(85,51)"/>
<path d="M0 0 C1.98 0.66 3.96 1.32 6 2 C6 2.66 6 3.32 6 4 C2.7 4 -0.6 4 -4 4 C-2.68 2.68 -1.36 1.36 0 0 Z " fill="#172239" transform="translate(90,83)"/>
<path d="M0 0 C0 1.65 0 3.3 0 5 C-0.66 5 -1.32 5 -2 5 C-2.33 5.99 -2.66 6.98 -3 8 C-3.185625 7.071875 -3.185625 7.071875 -3.375 6.125 C-3.87197356 3.80879168 -3.87197356 3.80879168 -6 2 C-1.125 0 -1.125 0 0 0 Z " fill="#111945" transform="translate(114,74)"/>
<path d="M0 0 C0.99 0 1.98 0 3 0 C3 0.66 3 1.32 3 2 C2.34 2 1.68 2 1 2 C1 3.32 1 4.64 1 6 C-0.9375 5.1875 -0.9375 5.1875 -3 4 C-3.33 3.01 -3.66 2.02 -4 1 C-2.68 1.33 -1.36 1.66 0 2 C0 1.34 0 0.68 0 0 Z " fill="#CDC16B" transform="translate(111,56)"/>
<path d="M0 0 C2.97 0.495 2.97 0.495 6 1 C6 1.66 6 2.32 6 3 C4 4.625 4 4.625 2 6 C1.34 4.02 0.68 2.04 0 0 Z " fill="#C7E1E8" transform="translate(86,70)"/>
<path d="M0 0 C3.96 0.33 7.92 0.66 12 1 C12 1.33 12 1.66 12 2 C10.37585622 2.19477739 8.75063577 2.38059458 7.125 2.5625 C6.22007812 2.66691406 5.31515625 2.77132812 4.3828125 2.87890625 C2 3 2 3 0 2 C0 1.34 0 0.68 0 0 Z " fill="#595837" transform="translate(125,48)"/>
<path d="M0 0 C0.99 0 1.98 0 3 0 C3 1.98 3 3.96 3 6 C2.01 6 1.02 6 0 6 C-1 3 -1 3 0 0 Z " fill="#B7942F" transform="translate(67,41)"/>
<path d="M0 0 C0.66 0 1.32 0 2 0 C2.33 1.65 2.66 3.3 3 5 C1.02 5 -0.96 5 -3 5 C-1.625 2.5 -1.625 2.5 0 0 Z " fill="#0215A1" transform="translate(52,82)"/>
<path d="M0 0 C1.65 1.32 3.3 2.64 5 4 C4.34 4 3.68 4 3 4 C2.67 4.66 2.34 5.32 2 6 C0.68 5.34 -0.64 4.68 -2 4 C-1.34 2.68 -0.68 1.36 0 0 Z " fill="#D1CDCC" transform="translate(103,73)"/>
<path d="M0 0 C-1.1875 1.5625 -1.1875 1.5625 -3 3 C-5.6875 2.6875 -5.6875 2.6875 -8 2 C-8 1.34 -8 0.68 -8 0 C-4.71023192 -1.09658936 -3.28696233 -0.79953138 0 0 Z " fill="#A4A86A" transform="translate(55,56)"/>
<path d="M0 0 C0.99 0.66 1.98 1.32 3 2 C3 2.99 3 3.98 3 5 C2.01 5.33 1.02 5.66 0 6 C-0.66 4.68 -1.32 3.36 -2 2 C-1.34 2 -0.68 2 0 2 C0 1.34 0 0.68 0 0 Z " fill="#AA6F0D" transform="translate(117,33)"/>
</svg>
