<svg width="86" height="59" viewBox="0 0 86 59" fill="none" xmlns="http://www.w3.org/2000/svg">
<g clip-path="url(#clip0_31_126881)">
<path d="M10.9549 2.5102C18.6873 2.3084 26.9328 3.846 32.7748 9.27613C37.5415 13.7059 40.1196 20.4643 38.3996 26.8349L37.1397 25.7319C41.332 24.1623 45.8821 23.7854 50.2825 24.6433C54.683 25.5012 58.7608 27.5601 62.0612 30.5905C65.1085 33.4861 67.3623 37.11 68.6078 41.1164C70.1721 46.036 69.5146 51.0511 69.3638 56.106C69.3333 57.3432 67.4067 57.2306 67.4434 55.9955C67.5697 51.5253 68.1946 47.0583 67.0571 42.6631C66.052 38.8529 64.0653 35.3687 61.2943 32.5561C55.2738 26.4528 45.9613 24.5652 37.936 27.3819C37.7756 27.4544 37.5975 27.4791 37.423 27.4531C37.2486 27.427 37.0854 27.3512 36.9529 27.2349C36.8204 27.1186 36.7244 26.9667 36.6764 26.7974C36.6284 26.6282 36.6304 26.4488 36.6823 26.281C38.3326 20.3233 35.5843 13.9716 31.0762 9.97589C25.6242 5.13966 17.9736 3.66472 10.8976 3.5612C10.2165 3.55152 10.2882 2.53941 10.9508 2.52246L10.9549 2.5102Z" fill="#F49040"/>
<path d="M66.9353 55.5117C63.7261 53.116 60.9456 49.9095 58.1262 47.0648C57.3382 46.2695 58.5012 45.0022 59.4061 45.6115C63.078 48.1078 66.3106 51.1929 68.9723 54.7411L67.6326 54.6543L72.0263 50.3572C73.337 49.0778 74.6312 47.3976 76.2538 46.5361C76.4144 46.4639 76.5942 46.445 76.7667 46.4823C76.9392 46.5195 77.0953 46.6109 77.212 46.7431C77.3287 46.8752 77.3998 47.041 77.415 47.2163C77.4302 47.3915 77.3886 47.5668 77.2963 47.7164C76.3939 49.3095 74.638 50.5695 73.3232 51.8406L68.9049 56.1091C68.7142 56.2704 68.468 56.3514 68.2181 56.3352C67.9682 56.3191 67.7342 56.2069 67.5652 56.0223C65.0072 52.5999 61.893 49.6276 58.3519 47.2289L59.6318 45.7756C62.3384 48.6303 65.4163 51.4797 67.6696 54.7076C67.9877 55.1684 67.4954 55.9035 66.964 55.5077L66.9353 55.5117Z" fill="#F49040"/>
<path d="M58.5952 45.9472C61.8544 45.8603 65.1144 45.7645 68.375 45.6599L73.0977 45.4944C74.5974 45.4302 76.2202 45.1209 77.6789 45.5066C77.8125 45.5549 77.9293 45.6408 78.0151 45.7539C78.1008 45.867 78.1517 46.0024 78.1617 46.1437C78.1717 46.2849 78.1404 46.4259 78.0715 46.5496C78.0026 46.6732 77.899 46.7741 77.7735 46.8401C76.4667 47.3301 75.0245 47.2022 73.6294 47.24C71.9594 47.2813 70.2792 47.3124 68.601 47.2964C65.2446 47.2645 61.895 47.103 58.5523 46.8121C58.4398 46.8026 58.3353 46.75 58.261 46.6652C58.1866 46.5804 58.1481 46.4703 58.1537 46.3579C58.1593 46.2456 58.2085 46.14 58.2908 46.0633C58.3732 45.9866 58.4824 45.945 58.5952 45.9472Z" fill="#F49040"/>
</g>
<defs>
<clipPath id="clip0_31_126881">
<rect width="78" height="36" fill="white" transform="matrix(0.948366 0.317179 0.317179 -0.948366 0 34.1411)"/>
</clipPath>
</defs>
</svg>
