<svg width="20" height="19" viewBox="0 0 20 19" fill="none" xmlns="http://www.w3.org/2000/svg">
<path d="M19.3301 4.07465C19.2366 3.74462 19.0111 3.53254 18.6741 3.42488C18.0348 3.22075 17.3936 3.0215 16.7531 2.82063C14.5314 2.12371 12.3094 1.42751 10.0881 0.729505C9.82447 0.64659 9.56243 0.641171 9.29885 0.720654C9.00152 0.810433 8.70497 0.9022 8.40861 0.99505C6.30628 1.65458 4.20376 2.31338 2.10219 2.9749C1.58289 3.13838 1.06473 3.30548 0.549838 3.48052C0.256544 3.58041 0.0817168 3.78779 0.0318758 4.07845C0.010981 4.1993 0.00657197 4.32394 0.00638027 4.44696C0.0050384 6.65189 0.00542179 8.85682 0.00542179 11.0617C0.00542179 11.1038 0.00542179 11.1461 0.00753045 11.188C0.0284253 11.5424 0.282423 11.8494 0.649329 11.9644C1.00627 12.0762 1.40653 11.9691 1.64711 11.7001C1.82385 11.5025 1.87695 11.2695 1.87657 11.0197C1.87561 10.4481 1.87331 9.87673 1.87312 9.30517C1.87254 8.06885 1.87292 6.83253 1.87312 5.59621C1.87312 5.56514 1.87676 5.53389 1.87944 5.49216C2.73191 5.75987 3.57039 6.02343 4.41884 6.28988C3.68158 7.55637 3.45691 8.88608 3.78682 10.29C4.11692 11.6945 4.90211 12.8223 6.14698 13.6793C6.11286 13.6943 6.09867 13.7008 6.0841 13.7067C4.61494 14.3159 3.40151 15.2258 2.45491 16.4491C2.30117 16.648 2.13478 16.8411 2.06865 17.0867C1.97682 17.428 2.0558 17.7277 2.34162 17.9609C2.6121 18.1816 2.92419 18.2544 3.2679 18.1325C3.50732 18.0474 3.67257 17.8756 3.81404 17.6823C4.16733 17.2 4.56587 16.7536 5.04569 16.3801C6.79472 15.0173 8.78472 14.4887 11.0276 14.8858C12.712 15.184 14.0886 15.9774 15.1695 17.2275C15.3587 17.4464 15.5203 17.6874 15.7182 17.8985C16.133 18.3413 16.8996 18.2597 17.2009 17.7461C17.4028 17.402 17.3461 17.067 17.1208 16.7513C16.1936 15.4507 14.9815 14.4616 13.4736 13.7974C13.3887 13.76 13.3036 13.723 13.2047 13.6798C14.4461 12.8225 15.228 11.6976 15.5608 10.2962C15.8949 8.88934 15.6662 7.55944 14.9387 6.29566C14.9661 6.28609 14.9805 6.28049 14.9953 6.27597C15.684 6.05848 16.3732 5.84152 17.0618 5.62331C17.6054 5.45115 18.1493 5.27882 18.6918 5.10324C18.9672 5.01418 19.1767 4.84997 19.2852 4.59021C19.3178 4.51217 19.3374 4.44028 19.4605 4.47731C19.4133 4.33261 19.3669 4.2049 19.3301 4.07465ZM12.6131 11.8539C11.9017 12.5336 11.0343 12.9058 10.0215 12.9762C8.81366 13.0604 7.7532 12.7224 6.85108 11.9688C6.33254 11.5358 6.00052 10.9758 5.75515 10.3708C5.58416 9.94881 5.49464 9.51093 5.49751 9.04107C5.49483 8.35301 5.72467 7.711 6.09177 7.10639C6.14199 7.02401 6.17976 6.90407 6.2551 6.87498C6.32526 6.84789 6.43855 6.91762 6.5319 6.94724C7.42559 7.23013 8.3189 7.51338 9.21239 7.79662C9.52198 7.89471 9.83157 7.89634 10.1419 7.79843C11.0962 7.49712 12.0508 7.19725 13.0043 6.89341C13.0871 6.86703 13.1299 6.87589 13.1811 6.94851C13.5737 7.50489 13.7966 8.11636 13.8273 8.78167C13.8819 9.96398 13.5031 11.003 12.6131 11.8539ZM15.0089 4.41408C13.2896 4.95258 11.5697 5.49017 9.85074 6.02994C9.7363 6.06588 9.6299 6.06534 9.51527 6.02939C7.68093 5.45386 5.84602 4.88032 4.0111 4.30624C3.98158 4.29703 3.95302 4.28565 3.90605 4.26866C3.95359 4.25241 3.98388 4.24121 4.01455 4.23145C5.86059 3.65231 7.70662 3.07227 9.55418 2.49692C9.62952 2.47343 9.72767 2.47343 9.80301 2.4971C11.6565 3.07498 13.5083 3.65755 15.3603 4.2394C15.3831 4.24663 15.4053 4.25512 15.45 4.27101C15.2893 4.32322 15.1496 4.37019 15.0089 4.41408Z" fill="#F49040"/>
</svg>
