<svg width="50" height="50" viewBox="0 0 50 50" fill="none" xmlns="http://www.w3.org/2000/svg">
<path fill-rule="evenodd" clip-rule="evenodd" d="M17.3445 1.20094C23.3298 -0.724264 29.8193 -0.323316 35.5204 2.32123C41.2198 4.965 45.7045 9.6522 48.0995 15.4388C50.4941 21.2242 50.6304 27.6974 48.4824 33.578C46.3339 39.4596 42.052 44.3312 36.4706 47.2133C30.8875 50.0962 24.421 50.7721 18.359 49.1018C12.2981 47.4319 7.09982 43.5436 3.78461 38.2254C3.21884 37.3178 3.51477 36.1349 4.44558 35.5832C5.37638 35.0316 6.58959 35.3201 7.15536 36.2277C9.96318 40.7319 14.3491 44.0002 19.4316 45.4006C24.5129 46.8006 29.9344 46.2362 34.6245 43.8143C39.3164 41.3916 42.9422 37.2817 44.7664 32.2875C46.5911 27.2924 46.4748 21.7905 44.4416 16.8782C42.4088 11.9669 38.6142 8.01556 33.8258 5.79438C29.039 3.57396 23.5989 3.23918 18.5803 4.85348C13.5602 6.46822 9.31464 9.92032 6.69845 14.5409C4.08152 19.1628 3.29179 24.608 4.49206 29.7922C4.73192 30.8282 4.06503 31.8577 3.0025 32.0916C1.93998 32.3254 0.884186 31.6752 0.644324 30.6392C-0.767416 24.5416 0.158791 18.1331 3.2452 12.682C6.33235 7.22963 11.3607 3.12569 17.3445 1.20094Z" fill="#F4F4F4"/>
<path d="M23.1173 30.2828L22.6387 12.8726H27.0934L26.6148 30.2828H23.1173ZM27.6457 35.452C27.6457 36.9238 26.4676 38.0726 24.9949 38.0726C23.4855 38.0726 22.3074 36.9238 22.3074 35.452C22.3074 33.9802 23.4855 32.8315 24.9949 32.8315C26.4676 32.8315 27.6457 33.9802 27.6457 35.452Z" fill="#F4F4F4"/>
</svg>
