<?xml version="1.0" encoding="UTF-8"?>
<svg version="1.1" xmlns="http://www.w3.org/2000/svg" width="128" height="45">
<path d="M0 0 C0.99 -0.66 1.98 -1.32 3 -2 C5.02045442 -1.39816251 7.02111039 -0.72693904 9 0 C11.31259384 0 13.62542943 -0.01330701 15.9375 -0.0625 C21.47828569 0.05057726 26.96906955 0.96906955 31 5 C31 6.32 31 7.64 31 9 C34.67387495 9.85298376 38.0447393 10.10789471 41.8125 10.0625 C43.27623047 10.04896484 43.27623047 10.04896484 44.76953125 10.03515625 C45.50558594 10.02355469 46.24164063 10.01195312 47 10 C48.09891186 13.9560827 47.89401268 15.44952877 46 19 C45.33191923 22.19349606 44.75408544 25.38011177 44.23242188 28.59960938 C43.74555013 31.30833781 43.24773468 33.60298929 41.78125 35.953125 C39.13775319 37.50675909 36.97216331 37.28705761 33.9375 37.1875 C32.34228516 37.14689453 32.34228516 37.14689453 30.71484375 37.10546875 C29.81894531 37.07066406 28.92304687 37.03585938 28 37 C27.34 37 26.68 37 26 37 C25.67 37.33 25.34 37.66 25 38 C22.46950598 38.07313567 19.96695163 38.09247527 17.4375 38.0625 C16.72658203 38.05798828 16.01566406 38.05347656 15.28320312 38.04882812 C13.52209987 38.03700864 11.76103964 38.01907263 10 38 C11.20783751 34.37648747 12.29653142 33.84784764 15.4375 31.8125 C16.24058594 31.28269531 17.04367188 30.75289062 17.87109375 30.20703125 C20 29 20 29 22 29 C21.28987545 25.92094306 21.28987545 25.92094306 19 24.5 C17 23 17 23 16 20 C10.94990405 19.06213918 10.94990405 19.06213918 6 20 C5.39938767 21.90178785 5.39938767 21.90178785 5 24 C4.34 24.99 3.68 25.98 3 27 C3.825 27.5775 4.65 28.155 5.5 28.75 C6.325 29.4925 7.15 30.235 8 31 C8 35 8 35 6.25 36.8125 C4 38 4 38 2 37.75 C1.34 37.5025 0.68 37.255 0 37 C-2.01508358 36.26676204 -2.01508358 36.26676204 -4 36 C-4.99 36.66 -5.98 37.32 -7 38 C-10.35484137 37.67533793 -12.67057064 36.40975452 -15 34 C-15.75 30.3125 -15.75 30.3125 -16 27 C-17.32 30.63 -18.64 34.26 -20 38 C-24.62 38 -29.24 38 -34 38 C-32.06604999 34.13209997 -31.2196994 33.12365764 -27.875 30.75 C-26.78832031 29.96882813 -26.78832031 29.96882813 -25.6796875 29.171875 C-25.12539063 28.78515625 -24.57109375 28.3984375 -24 28 C-24.804375 27.525625 -25.60875 27.05125 -26.4375 26.5625 C-29 25 -29 25 -30 24 C-30.59063136 16.79429735 -30.59063136 16.79429735 -28.1875 13.5625 C-26 12 -26 12 -23 11 C-21.33289654 9.50014391 -21.33289654 9.50014391 -20 8 C-17.69 8.66 -15.38 9.32 -13 10 C-13 10.66 -13 11.32 -13 12 C-11.35444301 10.77190909 -11.35444301 10.77190909 -10 9 C-10.32843384 6.93618425 -10.32843384 6.93618425 -11 5 C-10.67 4.34 -10.34 3.68 -10 3 C-10.66 3 -11.32 3 -12 3 C-11.67 1.02 -11.34 -0.96 -11 -3 C-6.57716576 -5.12296044 -3.74455635 -2.37635307 0 0 Z M-3 17 C-2.67 17.66 -2.34 18.32 -2 19 C-1.34 18.34 -0.68 17.68 0 17 C-0.99 17 -1.98 17 -3 17 Z M36.5 24.3125 C33.9300464 26.93098108 33.9300464 26.93098108 32 30 C32.66 30.66 33.32 31.32 34 32 C36.49824035 30.5023304 38.86004673 28.98441782 41 27 C41.58768383 24.28528995 41.58768383 24.28528995 41 22 C38.67711095 21.77365267 38.67711095 21.77365267 36.5 24.3125 Z M-2 28 C-2.99 28.33 -3.98 28.66 -5 29 C-5 29.66 -5 30.32 -5 31 C-3.35 30.34 -1.7 29.68 0 29 C-0.66 28.67 -1.32 28.34 -2 28 Z " fill="#29B9E8" transform="translate(56,7)"/>
<path d="M0 0 C2.29141286 -0.05384521 4.58318188 -0.09272087 6.875 -0.125 C8.78925781 -0.15980469 8.78925781 -0.15980469 10.7421875 -0.1953125 C14 0 14 0 16 2 C15.34 3.32 14.68 4.64 14 6 C16.475 7.98 16.475 7.98 19 10 C18.67 10.66 18.34 11.32 18 12 C17.4121875 11.2265625 17.4121875 11.2265625 16.8125 10.4375 C15.04901603 8.70576689 15.04901603 8.70576689 12.4375 9.1875 C9.85558728 9.84627033 9.85558728 9.84627033 8 12 C7.35232207 14.57061311 7.35232207 14.57061311 7 17 C5.01432292 16.70703125 3.02864583 16.4140625 1.04296875 16.12109375 C-1.2025342 15.86095201 -1.2025342 15.86095201 -4 17 C-4.60061233 18.90178785 -4.60061233 18.90178785 -5 21 C-5.66 21.99 -6.32 22.98 -7 24 C-5.7625 24.86625 -5.7625 24.86625 -4.5 25.75 C-3.2625 26.86375 -3.2625 26.86375 -2 28 C-2 32 -2 32 -3.75 33.8125 C-6 35 -6 35 -8 34.75 C-8.66 34.5025 -9.32 34.255 -10 34 C-12.01508358 33.26676204 -12.01508358 33.26676204 -14 33 C-14.99 33.66 -15.98 34.32 -17 35 C-20.35484137 34.67533793 -22.67057064 33.40975452 -25 31 C-25.625 27.5625 -25.625 27.5625 -26 24 C-26.62348752 22.6459374 -27.28214914 21.30648856 -28 20 C-26.25729488 17.32101801 -24.50838402 15.00055167 -22 13 C-19.80859375 12.8515625 -19.80859375 12.8515625 -17.5 13.125 C-15.19184422 13.44416686 -15.19184422 13.44416686 -13 13 C-11.0584066 10.82663982 -9.80039035 8.66188096 -8.484375 6.06640625 C-7 4 -7 4 -4.453125 3.15234375 C-2 3 -2 3 0 4 C0 2.68 0 1.36 0 0 Z M-13 14 C-12.67 14.66 -12.34 15.32 -12 16 C-11.34 15.34 -10.68 14.68 -10 14 C-10.99 14 -11.98 14 -13 14 Z M-12 25 C-12.99 25.33 -13.98 25.66 -15 26 C-15 26.66 -15 27.32 -15 28 C-13.35 27.34 -11.7 26.68 -10 26 C-10.66 25.67 -11.32 25.34 -12 25 Z " fill="#25B7E6" transform="translate(66,10)"/>
<path d="M0 0 C2.31 0.66 4.62 1.32 7 2 C7 2.66 7 3.32 7 4 C8.051875 3.814375 9.10375 3.62875 10.1875 3.4375 C13.57119882 3.04920669 15.76425888 3.11752515 19 4 C19.33 2.68 19.66 1.36 20 0 C20.66 0 21.32 0 22 0 C20.25 5.75 20.25 5.75 18 8 C16.39924548 8.12182734 14.79283863 8.17546598 13.1875 8.1875 C9.31917098 8.45797139 9.31917098 8.45797139 6.23046875 10.6171875 C4.69113722 12.75102774 4.69113722 12.75102774 3 16 C3.33 16.66 3.66 17.32 4 18 C3.4765625 20.3125 3.4765625 20.3125 2.625 23 C2.34914063 23.886875 2.07328125 24.77375 1.7890625 25.6875 C1 28 1 28 0 30 C-4.62 30 -9.24 30 -14 30 C-12.06604999 26.13209997 -11.2196994 25.12365764 -7.875 22.75 C-7.15054687 22.22921875 -6.42609375 21.7084375 -5.6796875 21.171875 C-5.12539063 20.78515625 -4.57109375 20.3984375 -4 20 C-4.804375 19.525625 -5.60875 19.05125 -6.4375 18.5625 C-9 17 -9 17 -10 16 C-10.59063136 8.79429735 -10.59063136 8.79429735 -8.1875 5.5625 C-6 4 -6 4 -3 3 C-1.33289654 1.50014391 -1.33289654 1.50014391 0 0 Z " fill="#2D2828" transform="translate(36,15)"/>
<path d="M0 0 C0.66 0.66 1.32 1.32 2 2 C2.99 1.67 3.98 1.34 5 1 C5.0494009 6.78408559 5.08572 12.56804864 5.10986328 18.35229492 C5.11992707 20.32041564 5.13357934 22.28852138 5.15087891 24.2565918 C5.17511059 27.08385918 5.18647923 29.91092905 5.1953125 32.73828125 C5.20563507 33.61962234 5.21595764 34.50096344 5.22659302 35.40901184 C5.22674408 36.22963608 5.22689514 37.05026031 5.22705078 37.89575195 C5.231492 38.61745071 5.23593323 39.33914948 5.24050903 40.0827179 C5 42 5 42 3 45 C1.515 44.505 1.515 44.505 0 44 C-1.00013174 39.85758584 -1.11516542 35.98519696 -1.09765625 31.73046875 C-1.0962413 31.04946609 -1.09482635 30.36846344 -1.09336853 29.66682434 C-1.08780298 27.50700353 -1.07525703 25.34728911 -1.0625 23.1875 C-1.05748054 21.71679838 -1.05291841 20.24609512 -1.04882812 18.77539062 C-1.03784488 15.1835596 -1.02060422 11.5917902 -1 8 C-1.60328125 8.28875 -2.2065625 8.5775 -2.828125 8.875 C-3.62734375 9.24625 -4.4265625 9.6175 -5.25 10 C-6.43335937 10.556875 -6.43335937 10.556875 -7.640625 11.125 C-10 12 -10 12 -14 12 C-14 11.34 -14 10.68 -14 10 C-14.66 10 -15.32 10 -16 10 C-16 9.34 -16 8.68 -16 8 C-13.36 7.67 -10.72 7.34 -8 7 C-8.33 5.68 -8.66 4.36 -9 3 C-5.9628306 0.30029386 -4.0730612 -0.5359291 0 0 Z " fill="#484647" transform="translate(123,0)"/>
<path d="M0 0 C2.29141286 -0.05384521 4.58318188 -0.09272087 6.875 -0.125 C8.78925781 -0.15980469 8.78925781 -0.15980469 10.7421875 -0.1953125 C14 0 14 0 16 2 C15.34 3.32 14.68 4.64 14 6 C15.65 7.32 17.3 8.64 19 10 C18.67 10.66 18.34 11.32 18 12 C17.608125 11.484375 17.21625 10.96875 16.8125 10.4375 C15.04901603 8.70576689 15.04901603 8.70576689 12.4375 9.1875 C9.85558728 9.84627033 9.85558728 9.84627033 8 12 C7.35232207 14.57061311 7.35232207 14.57061311 7 17 C5.01432292 16.70703125 3.02864583 16.4140625 1.04296875 16.12109375 C-1.2025342 15.86095201 -1.2025342 15.86095201 -4 17 C-5.33106622 17.34227417 -6.66400079 17.67751743 -8 18 C-8 16.68 -8 15.36 -8 14 C-8.99 13.67 -9.98 13.34 -11 13 C-9.94124926 9.59687262 -8.99097846 6.98646769 -7 4 C-2.625 2.6875 -2.625 2.6875 0 4 C0 2.68 0 1.36 0 0 Z " fill="#23BAEB" transform="translate(66,10)"/>
<path d="M0 0 C2.95247614 1.21127226 3.77134525 2.30960848 5.4375 5 C7.0654269 12.73265276 4.21193441 18.39473979 0.4375 25 C-3.1925 25 -6.8225 25 -10.5625 25 C-9.2206656 20.97449681 -7.1397427 20.11714364 -3.5625 18 C-2.9025 18 -2.2425 18 -1.5625 18 C-2.23118314 14.88667752 -2.23118314 14.88667752 -4.625 13.8125 C-6.5625 12 -6.5625 12 -7.0625 8.0625 C-6.90124521 5.0487036 -6.59263562 4.0457615 -4.875 1.4375 C-2.5625 0 -2.5625 0 0 0 Z " fill="#272324" transform="translate(79.5625,18)"/>
<path d="M0 0 C0.66 0 1.32 0 2 0 C5.28592161 6.57184321 2.73758161 17.22128655 1 24 C-1 26 -1 26 -4.6953125 26.1953125 C-6.17200108 26.182009 -7.64862358 26.15814835 -9.125 26.125 C-9.87910156 26.11597656 -10.63320312 26.10695313 -11.41015625 26.09765625 C-13.27357254 26.0740687 -15.13682593 26.03819719 -17 26 C-15.69812562 22.09437685 -13.92403349 21.308049 -10.5625 19 C-5.01339048 15.29257376 -5.01339048 15.29257376 -2.40234375 9.3359375 C-2.17224609 7.87027344 -2.17224609 7.87027344 -1.9375 6.375 C-1.09984399 1.09984399 -1.09984399 1.09984399 0 0 Z " fill="#6E6D6F" transform="translate(116,19)"/>
<path d="M0 0 C0.66 0 1.32 0 2 0 C3.02695156 4.09236337 2.99525568 7.67666137 2.6875 11.875 C2.56955078 13.63457031 2.56955078 13.63457031 2.44921875 15.4296875 C2 19 2 19 0 26 C-5.61 26 -11.22 26 -17 26 C-17 25.34 -17 24.68 -17 24 C-14.88184508 22.42095822 -12.7685122 20.94603522 -10.5625 19.5 C-6.13041595 16.87971854 -6.13041595 16.87971854 -3 13 C-2.72690486 10.47278622 -2.55442823 7.94588875 -2.37890625 5.41015625 C-2 3 -2 3 0 0 Z " fill="#6B696B" transform="translate(17,19)"/>
<path d="M0 0 C0.9075 0.7425 1.815 1.485 2.75 2.25 C2.75 3.24 2.75 4.23 2.75 5.25 C6.38 5.25 10.01 5.25 13.75 5.25 C13.75 6.57 13.75 7.89 13.75 9.25 C11.44 9.25 9.13 9.25 6.75 9.25 C6.42 9.91 6.09 10.57 5.75 11.25 C5.09 10.92 4.43 10.59 3.75 10.25 C3.42 11.57 3.09 12.89 2.75 14.25 C-0.55 14.25 -3.85 14.25 -7.25 14.25 C-6.92 13.26 -6.59 12.27 -6.25 11.25 C-6.57380126 9.91431979 -6.90657551 8.58076989 -7.25 7.25 C-6.92 6.59 -6.59 5.93 -6.25 5.25 C-6.91 5.25 -7.57 5.25 -8.25 5.25 C-7.92 3.27 -7.59 1.29 -7.25 -0.75 C-4.02174031 -2.23996601 -3.23094164 -1.73973781 0 0 Z " fill="#3CB3D8" transform="translate(52.25,4.75)"/>
<path d="M0 0 C6.48979592 0.48979592 6.48979592 0.48979592 8.9375 2.9375 C10 5 10 5 10 7 C10.66 7 11.32 7 12 7 C11.57669598 9.44075297 11.13710538 11.87657829 10.6875 14.3125 C10.56955078 15.00279297 10.45160156 15.69308594 10.33007812 16.40429688 C9.80632351 19.1842252 9.2764338 21.56461677 7.75 23.96875 C5.21978838 25.45976756 3.22107354 25.29015554 0.3125 25.1875 C-1.17830078 25.14689453 -1.17830078 25.14689453 -2.69921875 25.10546875 C-3.45847656 25.07066406 -4.21773438 25.03585938 -5 25 C-3.1875 23 -3.1875 23 -1 21 C-0.01 21 0.98 21 2 21 C2.103125 20.38125 2.20625 19.7625 2.3125 19.125 C3 17 3 17 6 15 C6.75085106 12.58736705 6.75085106 12.58736705 6 10 C5.01 9.360625 4.02 8.72125 3 8.0625 C2.01 7.381875 1.02 6.70125 0 6 C-0.375 2.75 -0.375 2.75 0 0 Z " fill="#2C2728" transform="translate(90,19)"/>
<path d="M0 0 C2.49361571 1.20381448 4.68143083 2.45428722 7 4 C7 8 7 8 5.25 9.8125 C3 11 3 11 1 10.75 C0.34 10.5025 -0.32 10.255 -1 10 C-3.01508358 9.26676204 -3.01508358 9.26676204 -5 9 C-5.99 9.66 -6.98 10.32 -8 11 C-10 10.9375 -10 10.9375 -12 10 C-13.75 7.4375 -13.75 7.4375 -15 5 C-13.68 3.68 -12.36 2.36 -11 1 C-9.39125 1.5878125 -9.39125 1.5878125 -7.75 2.1875 C-4.10114009 3.41296883 -4.10114009 3.41296883 -1.5625 1.625 C-0.7890625 0.820625 -0.7890625 0.820625 0 0 Z " fill="#2B2727" transform="translate(57,34)"/>
<path d="M0 0 C0.66 0.66 1.32 1.32 2 2 C1.52309796 3.62566606 1.04340334 5.25051311 0.5625 6.875 C0.29566406 7.77992187 0.02882813 8.68484375 -0.24609375 9.6171875 C-1 12 -1 12 -2 14 C-6.62 14 -11.24 14 -16 14 C-14.06604999 10.13209997 -13.2196994 9.12365764 -9.875 6.75 C-8.78832031 5.96882813 -8.78832031 5.96882813 -7.6796875 5.171875 C-7.12539063 4.78515625 -6.57109375 4.3984375 -6 4 C-7.32 3.34 -8.64 2.68 -10 2 C-10 1.67 -10 1.34 -10 1 C-7.36 1 -4.72 1 -2 1 C-1.67 2.32 -1.34 3.64 -1 5 C-0.67 3.35 -0.34 1.7 0 0 Z " fill="#B5B5B7" transform="translate(38,31)"/>
<path d="M0 0 C0.66 0.66 1.32 1.32 2 2 C1.9765625 4.1640625 1.9765625 4.1640625 1.625 6.625 C1.45871094 7.85089844 1.45871094 7.85089844 1.2890625 9.1015625 C1.14597656 10.04128906 1.14597656 10.04128906 1 11 C1.66 11 2.32 11 3 11 C3.66 12.32 4.32 13.64 5 15 C5.66 15 6.32 15 7 15 C7 15.66 7 16.32 7 17 C3.68223532 18.73428609 0.65551535 20.18766326 -3 21 C-3.33 21.33 -3.66 21.66 -4 22 C-6.53049402 22.07313567 -9.03304837 22.09247527 -11.5625 22.0625 C-12.27341797 22.05798828 -12.98433594 22.05347656 -13.71679688 22.04882812 C-15.47790013 22.03700864 -17.23896036 22.01907263 -19 22 C-18.505 20.515 -18.505 20.515 -18 19 C-13.71 19 -9.42 19 -5 19 C-1.7665511 12.53310221 -0.30139338 7.21837147 0 0 Z " fill="#23BEF0" transform="translate(85,23)"/>
<path d="M0 0 C2 2 2 2 2 5 C1.34 5 0.68 5 0 5 C-0.165 5.598125 -0.33 6.19625 -0.5 6.8125 C-2.7984075 10.16434427 -6.14183715 11.03909906 -10 12 C-11.32 12 -12.64 12 -14 12 C-14 11.34 -14 10.68 -14 10 C-14.66 10 -15.32 10 -16 10 C-16 9.34 -16 8.68 -16 8 C-13.36 7.67 -10.72 7.34 -8 7 C-8.33 5.68 -8.66 4.36 -9 3 C-5.9628306 0.30029386 -4.0730612 -0.5359291 0 0 Z " fill="#B6B8BA" transform="translate(123,0)"/>
<path d="M0 0 C2.95409701 1.37154504 5.44008376 2.98863724 8 5 C6.84826645 7.46800047 5.95216435 9.04783565 4 11 C0.15910696 10.73511082 -2.24354242 8.52675278 -5 6 C-5 5.34 -5 4.68 -5 4 C-3.37373596 2.61767557 -1.7074998 1.28062485 0 0 Z " fill="#2B2829" transform="translate(12,3)"/>
<path d="M0 0 C2.31 0.66 4.62 1.32 7 2 C7 2.66 7 3.32 7 4 C7.66 4.33 8.32 4.66 9 5 C6.6875 7.5 6.6875 7.5 4 10 C3.01 10 2.02 10 1 10 C-0.01405257 8.67732273 -1.01268258 7.34275169 -2 6 C-4.08334635 4.7483533 -4.08334635 4.7483533 -6 4 C-5.01 3.67 -4.02 3.34 -3 3 C-1.33289654 1.50014391 -1.33289654 1.50014391 0 0 Z " fill="#28BAE8" transform="translate(36,15)"/>
<path d="M0 0 C2.31259384 0 4.62542943 -0.01330701 6.9375 -0.0625 C11.71565703 0.03501341 14.68941841 0.8447092 19 3 C9.43 3 -0.14 3 -10 3 C-9.67 1.68 -9.34 0.36 -9 -1 C-5.19402954 -2.26865682 -3.71644033 -1.28937726 0 0 Z " fill="#5CCFF4" transform="translate(65,7)"/>
<path d="M0 0 C6.43014706 0.48529412 6.43014706 0.48529412 8.9375 2.75 C10.16717908 5.35402628 10.23723981 7.15312226 10 10 C6.06332052 9.43761722 3.09284555 8.56264345 0 6 C-0.3125 2.8125 -0.3125 2.8125 0 0 Z " fill="#241E1F" transform="translate(90,19)"/>
<path d="M0 0 C0.625 1.8125 0.625 1.8125 1 4 C0.01 5.485 0.01 5.485 -1 7 C-3.6015625 7.29296875 -3.6015625 7.29296875 -6.625 7.1875 C-8.12933594 7.14689453 -8.12933594 7.14689453 -9.6640625 7.10546875 C-10.82035156 7.05326172 -10.82035156 7.05326172 -12 7 C-10.1896099 1.56882971 -5.56166796 -0.65431388 0 0 Z " fill="#1E1919" transform="translate(81,36)"/>
<path d="M0 0 C3.375 -0.1875 3.375 -0.1875 7 0 C7.66 0.99 8.32 1.98 9 3 C6.42215154 5.64752004 4.08351902 7.94432065 1 10 C1 9.34 1 8.68 1 8 C0.34 8 -0.32 8 -1 8 C-0.67 5.36 -0.34 2.72 0 0 Z " fill="#20B5E5" transform="translate(87,26)"/>
<path d="M0 0 C-0.33 1.98 -0.66 3.96 -1 6 C-4.63 6.33 -8.26 6.66 -12 7 C-8.57553957 1.25179856 -8.57553957 1.25179856 -6 0.125 C-4.00346171 0.00021636 -2.00043398 0 0 0 Z " fill="#2B2829" transform="translate(36,37)"/>
<path d="M0 0 C0.66 0 1.32 0 2 0 C0.25 5.75 0.25 5.75 -2 8 C-4.3828125 8.1953125 -4.3828125 8.1953125 -7.125 8.125 C-8.49011719 8.09792969 -8.49011719 8.09792969 -9.8828125 8.0703125 C-10.58148438 8.04710937 -11.28015625 8.02390625 -12 8 C-11.67 6.68 -11.34 5.36 -11 4 C-7.30458414 3.04975021 -4.69541586 3.04975021 -1 4 C-0.67 2.68 -0.34 1.36 0 0 Z " fill="#262122" transform="translate(56,15)"/>
<path d="M0 0 C2.475 0.99 2.475 0.99 5 2 C5 3.32 5 4.64 5 6 C3 8 3 8 0.375 8.125 C-0.40875 8.08375 -1.1925 8.0425 -2 8 C-2.66 6.68 -3.32 5.36 -4 4 C-2.68 2.68 -1.36 1.36 0 0 Z " fill="#2D2727" transform="translate(46,35)"/>
<path d="M0 0 C4.95 0 9.9 0 15 0 C15.33 1.65 15.66 3.3 16 5 C14.0625 7.3125 14.0625 7.3125 12 9 C11.690625 8.236875 11.38125 7.47375 11.0625 6.6875 C8.10698839 2.83637881 4.57899591 2.18074737 0 1 C0 0.67 0 0.34 0 0 Z " fill="#6CC2DF" transform="translate(88,17)"/>
<path d="M0 0 C0.94875 0.04125 1.8975 0.0825 2.875 0.125 C1.875 2.125 1.875 2.125 0.875 3.125 C0.875 4.115 0.875 5.105 0.875 6.125 C-3.74697306 8.34354707 -6.89324163 9.50781159 -12.125 9.125 C-12.125 8.465 -12.125 7.805 -12.125 7.125 C-9.485 6.795 -6.845 6.465 -4.125 6.125 C-4.33125 5.50625 -4.5375 4.8875 -4.75 4.25 C-4.87375 3.54875 -4.9975 2.8475 -5.125 2.125 C-3.125 0.125 -3.125 0.125 0 0 Z " fill="#545355" transform="translate(119.125,0.875)"/>
<path d="M0 0 C3.96 0 7.92 0 12 0 C12 1.32 12 2.64 12 4 C8.04 4 4.08 4 0 4 C0 2.68 0 1.36 0 0 Z " fill="#226479" transform="translate(67,10)"/>
<path d="M0 0 C0.66 0 1.32 0 2 0 C1.34 1.65 0.68 3.3 0 5 C-4.95 5 -9.9 5 -15 5 C-14.67 4.01 -14.34 3.02 -14 2 C-9.71 2 -5.42 2 -1 2 C-0.67 1.34 -0.34 0.68 0 0 Z " fill="#BDBDBF" transform="translate(81,40)"/>
<path d="M0 0 C0.66 0 1.32 0 2 0 C1.01 4.95 0.02 9.9 -1 15 C-1.33 13.68 -1.66 12.36 -2 11 C-2.99 10.34 -3.98 9.68 -5 9 C-4.34 7.02 -3.68 5.04 -3 3 C-2.01 3 -1.02 3 0 3 C0 2.01 0 1.02 0 0 Z " fill="#5E5C5E" transform="translate(100,26)"/>
<path d="M0 0 C3.63 0 7.26 0 11 0 C11 1.32 11 2.64 11 4 C7.37 4 3.74 4 0 4 C0 2.68 0 1.36 0 0 Z " fill="#225D70" transform="translate(55,10)"/>
<path d="M0 0 C1.65 0.33 3.3 0.66 5 1 C5 2.32 5 3.64 5 5 C4.34 5.66 3.68 6.32 3 7 C0.875 6.625 0.875 6.625 -1 6 C-0.67 4.02 -0.34 2.04 0 0 Z " fill="#2B2424" transform="translate(49,5)"/>
<path d="M0 0 C0.66 0.33 1.32 0.66 2 1 C1.01 2.485 1.01 2.485 0 4 C0.99 4.66 1.98 5.32 3 6 C-0.63 6.66 -4.26 7.32 -8 8 C-6.88333826 4.65001479 -6.25305075 4.20659778 -3.4375 2.3125 C-2.79683594 1.87550781 -2.15617187 1.43851563 -1.49609375 0.98828125 C-1.00238281 0.66214844 -0.50867188 0.33601563 0 0 Z " fill="#5B595B" transform="translate(107,37)"/>
<path d="M0 0 C0.33 0.99 0.66 1.98 1 3 C2.98 3 4.96 3 7 3 C7 3.66 7 4.32 7 5 C1.375 8 1.375 8 -2 8 C-2.33 6.35 -2.66 4.7 -3 3 C-2.34 3 -1.68 3 -1 3 C-0.67 2.01 -0.34 1.02 0 0 Z " fill="#40AACE" transform="translate(85,35)"/>
<path d="M0 0 C0.66 0 1.32 0 2 0 C1.67 3.96 1.34 7.92 1 12 C0.01 12.33 -0.98 12.66 -2 13 C-2.05416188 11.39620659 -2.09286638 9.79188594 -2.125 8.1875 C-2.14820313 7.29417969 -2.17140625 6.40085937 -2.1953125 5.48046875 C-2 3 -2 3 0 0 Z " fill="#5A595B" transform="translate(17,19)"/>
<path d="M0 0 C0.66 0.33 1.32 0.66 2 1 C1.34 2.98 0.68 4.96 0 7 C-2.31 7 -4.62 7 -7 7 C-5.66667905 3.00003714 -3.5042173 2.16217663 0 0 Z " fill="#4C4A4B" transform="translate(76,36)"/>
<path d="M0 0 C2.64 0 5.28 0 8 0 C7.67 1.65 7.34 3.3 7 5 C6.01 5.33 5.02 5.66 4 6 C3.67 5.01 3.34 4.02 3 3 C1.50014391 1.33289654 1.50014391 1.33289654 0 0 Z " fill="#5FB1CA" transform="translate(74,30)"/>
<path d="M0 0 C0.66 0.66 1.32 1.32 2 2 C1.34 2 0.68 2 0 2 C-0.33 3.98 -0.66 5.96 -1 8 C-2.32 7.67 -3.64 7.34 -5 7 C-4.67 5.02 -4.34 3.04 -4 1 C-2.125 0.375 -2.125 0.375 0 0 Z " fill="#617D88" transform="translate(49,3)"/>
<path d="M0 0 C0.33 0.99 0.66 1.98 1 3 C-0.24663331 3.50833591 -1.49749387 4.00631145 -2.75 4.5 C-3.44609375 4.7784375 -4.1421875 5.056875 -4.859375 5.34375 C-7 6 -7 6 -11 6 C-11 5.34 -11 4.68 -11 4 C-7.37 2.68 -3.74 1.36 0 0 Z " fill="#DCDDDF" transform="translate(120,6)"/>
<path d="M0 0 C0.66 0.33 1.32 0.66 2 1 C2 1.99 2 2.98 2 4 C-0.77627845 6.67345333 -3.2241456 7.47557578 -7 8 C-7.33 7.34 -7.66 6.68 -8 6 C-7.236875 5.7525 -6.47375 5.505 -5.6875 5.25 C-2.7635955 3.89004442 -1.69995644 2.68414174 0 0 Z " fill="#C8C8CA" transform="translate(53,37)"/>
<path d="M0 0 C2.31 0.66 4.62 1.32 7 2 C6.67 2.66 6.34 3.32 6 4 C4.8553125 3.6596875 4.8553125 3.6596875 3.6875 3.3125 C2.800625 3.209375 1.91375 3.10625 1 3 C-0.8354799 4.33378575 -0.8354799 4.33378575 -2 6 C-3.32 5.34 -4.64 4.68 -6 4 C-5.01 3.67 -4.02 3.34 -3 3 C-1.33289654 1.50014391 -1.33289654 1.50014391 0 0 Z " fill="#5CC8EB" transform="translate(36,15)"/>
<path d="M0 0 C0.33 1.32 0.66 2.64 1 4 C-0.75 5.5625 -0.75 5.5625 -3 7 C-5.1875 6.8125 -5.1875 6.8125 -7 6 C-7.33 5.34 -7.66 4.68 -8 4 C-7.236875 3.855625 -6.47375 3.71125 -5.6875 3.5625 C-2.91827092 3.0367406 -2.91827092 3.0367406 0 2 C0 1.34 0 0.68 0 0 Z " fill="#D0D1D3" transform="translate(63,38)"/>
<path d="M0 0 C1.98 0.99 3.96 1.98 6 3 C5.01 3.495 5.01 3.495 4 4 C4 4.66 4 5.32 4 6 C1.525 5.01 1.525 5.01 -1 4 C-0.67 2.68 -0.34 1.36 0 0 Z " fill="#37C2EE" transform="translate(46,10)"/>
<path d="M0 0 C0.66 0.33 1.32 0.66 2 1 C1.484375 1.763125 0.96875 2.52625 0.4375 3.3125 C-0.036875 4.199375 -0.51125 5.08625 -1 6 C-0.67 6.99 -0.34 7.98 0 9 C-1.9375 8.1875 -1.9375 8.1875 -4 7 C-4.33 6.01 -4.66 5.02 -5 4 C-3.35 2.68 -1.7 1.36 0 0 Z " fill="#848486" transform="translate(12,3)"/>
<path d="M0 0 C0.66 0 1.32 0 2 0 C1.67 2.31 1.34 4.62 1 7 C0.01 7 -0.98 7 -2 7 C-2.33 5.68 -2.66 4.36 -3 3 C-2.01 3 -1.02 3 0 3 C0 2.01 0 1.02 0 0 Z " fill="#374850" transform="translate(100,26)"/>
<path d="M0 0 C0 3 0 3 -1.25 4.75 C-3 6 -3 6 -5.1875 5.6875 C-5.785625 5.460625 -6.38375 5.23375 -7 5 C-2.25 1.125 -2.25 1.125 0 0 Z " fill="#DADCDE" transform="translate(19,8)"/>
<path d="M0 0 C2.375 -0.1875 2.375 -0.1875 5 0 C5.66 0.99 6.32 1.98 7 3 C5.02 3 3.04 3 1 3 C0.67 2.01 0.34 1.02 0 0 Z " fill="#18BBF1" transform="translate(58,7)"/>
</svg>
