<svg width="169" height="177" viewBox="0 0 169 177" fill="none" xmlns="http://www.w3.org/2000/svg">
<path fill-rule="evenodd" clip-rule="evenodd" d="M151.674 108.294C150.698 107.334 149.146 107.349 148.178 108.312C136.575 119.472 124.358 125.149 111.901 125.291C99.7719 125.428 87.5179 120.166 75.4954 109.74C72.823 107.464 68.6922 102.726 65.0585 97.1318C68.1074 92.7463 70.1392 87.5528 71.1423 82.5492C72.622 75.1594 71.5446 68.3646 69.106 64.9993C67.7547 63.1359 66.0123 61.9939 63.975 61.5179C61.3673 60.9123 57.824 61.4526 53.7572 64.902C48.1464 69.6835 46.7826 76.5109 48.4588 84.0247C49.3441 87.9747 51.1314 92.1198 53.3578 96.1032C50.7816 98.1597 47.5765 99.3493 43.6759 98.921C35.4192 98.0704 29.2283 91.2905 24.8248 83.3136C21.0058 76.4127 16.405 66.2181 17.6212 58.1175C18.0329 55.3647 19.2372 52.9988 16.9652 50.7489C13.4868 47.268 10.2983 50.8713 9.72751 54.6523C8.50552 62.7746 11.4006 72.5587 14.258 80.0515C19.5018 93.8402 29.3423 106.242 42.6295 107.952C48.8586 108.725 54.1442 107.068 58.4256 103.99C62.4894 109.63 66.8723 114.296 69.7481 116.638C83.9775 127.993 98.2982 133.273 112.154 132.47C125.996 131.675 139.421 124.878 151.692 111.791C152.652 110.814 152.651 109.254 151.674 108.294ZM59.3796 86.1828C58.5155 83.8912 57.9316 81.6398 57.7604 79.4989C57.5471 76.7765 58.0723 74.2519 60.1941 72.4578C60.5536 72.1584 60.9915 71.7404 61.351 71.441C61.6215 72.3864 62.0893 74.2459 62.0961 75.784C62.0956 79.2173 61.3151 83.3029 59.7486 87.108C59.6012 86.7892 59.4835 86.49 59.3796 86.1828Z" fill="white"/>
<path fill-rule="evenodd" clip-rule="evenodd" d="M144.876 113.724C143.745 116.249 142.653 118.936 141.874 121.497C140.675 125.494 140.161 129.15 141.147 131.812C141.454 133.14 142.793 133.964 144.113 133.643C145.441 133.335 146.265 131.996 145.943 130.676C145.875 130.018 146.105 129.335 146.322 128.567C146.819 126.756 147.931 124.866 149.141 122.827C150.687 120.227 152.547 117.63 154.133 115.227C155.577 113.053 156.781 111.036 157.547 109.437C158.756 106.921 158.822 104.809 158.548 103.572C158.472 103.249 155.79 98.4451 151.204 100.359C149.564 101.048 145.501 103.009 145.3 103.106C142.859 104.442 138.324 106.859 134.005 108.122C132.64 108.525 131.322 108.882 130.122 108.932C130.058 108.822 129.994 108.712 129.917 108.61C128.796 107.017 126.615 106.643 125.015 107.75C124.128 108.281 122.971 109.775 122.661 110.669C122.068 112.407 122.729 113.807 124.351 114.963C126.56 116.533 129.757 116.982 133.351 116.688C137.128 116.361 141.407 115.029 144.876 113.724ZM148.865 105.656C149.133 105.134 149.224 104.751 148.863 104.666C148.458 104.569 148.727 105.258 148.865 105.656Z" fill="white"/>
</svg>
